<svg xmlns="http://www.w3.org/2000/svg" width="21" height="21"><path d="M17.52 17.39a9.746 9.746 0 0 1-6.97 2.89c-2.64 0-5.11-1.02-6.98-2.89a9.787 9.787 0 0 1-2.89-6.97c0-2.63 1.03-5.11 2.89-6.97A9.828 9.828 0 0 1 10.55.56c2.64 0 5.11 1.03 6.97 2.89a9.763 9.763 0 0 1 2.89 6.97c0 2.64-1.02 5.11-2.89 6.97zm-.79-13.15a8.692 8.692 0 0 0-6.18-2.56c-2.33 0-4.53.91-6.18 2.56-3.41 3.41-3.41 8.95 0 12.36a8.692 8.692 0 0 0 6.18 2.56c2.33 0 4.53-.91 6.18-2.56 3.41-3.41 3.41-8.95 0-12.36zm-5.39 6.18l3.55 3.55c.22.22.22.58 0 .8a.55.55 0 0 1-.4.16c-.14 0-.28-.05-.39-.16l-3.56-3.56-3.55 3.56a.567.567 0 0 1-.79 0 .567.567 0 0 1 0-.8l3.56-3.55L6.2 6.87a.555.555 0 0 1 0-.79c.22-.22.57-.22.79 0l3.56 3.55 3.55-3.55c.22-.22.58-.22.8 0 .22.22.22.57 0 .79l-3.56 3.55z" fill="#C9311D"/></svg>