<svg xmlns="http://www.w3.org/2000/svg" width="44" height="38" viewBox="0 0 22 19"><path d="M20.95 18.2c-.29.49-.82.8-1.4.8H1.77c-.58 0-1.11-.31-1.4-.8-.28-.5-.28-1.11 0-1.6l8.9-15.3c.28-.49.82-.8 1.39-.8.58 0 1.11.31 1.4.8l8.89 15.3c.29.49.29 1.1 0 1.6zM10.66 2.1L1.77 17.4h17.78L10.66 2.1zm0 11.69c.51 0 .93.41.93.92 0 .5-.42.91-.93.91a.915.915 0 1 1 0-1.83zm-.06-.33a.651.651 0 0 1-.59-.59l-.46-5.26c-.06-.61.4-1.15 1.01-1.2.62-.06 1.16.4 1.22 1.01v.19l-.46 5.26c-.04.36-.35.62-.72.59z" fill="#FFAF47"/></svg>