<svg xmlns="http://www.w3.org/2000/svg"><path d="M20.43 6.35c.18.22.25.49.21.81l-.85 4.9c-.03.26-.15.47-.35.63-.2.17-.43.25-.69.25H6.35l-.25 1.4h11.83a1.044 1.044 0 0 1 1.05 1.05c0 .3-.11.55-.31.76-.21.2-.46.3-.74.3H4.85c-.32 0-.58-.13-.81-.38a1.08 1.08 0 0 1-.24-.88l.56-3.06-.86-8.6-2.41-.76a1.01 1.01 0 0 1-.62-.52c-.13-.26-.15-.53-.08-.81.09-.29.27-.49.53-.62s.52-.15.79-.08l3.09.99c.2.06.36.17.48.34.13.16.21.35.24.56l.18 1.71 14.02 1.58c.31.04.55.19.71.43zM6.44 17.04c.45 0 .83.15 1.14.47.31.31.47.7.47 1.15 0 .45-.16.83-.47 1.16-.31.32-.69.48-1.14.48-.45 0-.83-.16-1.14-.48-.32-.33-.47-.71-.47-1.16 0-.45.15-.84.47-1.15.31-.32.69-.47 1.14-.47zm9.56 0c.45 0 .83.15 1.14.47.32.31.47.7.47 1.15 0 .45-.15.83-.47 1.16-.31.32-.69.48-1.14.48-.45 0-.83-.16-1.14-.48-.32-.33-.47-.71-.47-1.16 0-.45.15-.84.47-1.15.31-.32.69-.47 1.14-.47z" fill="#35abdf"/></svg>
