<svg  xmlns="http://www.w3.org/2000/svg"  x="0px" y="0px"
	 viewBox="0 0 24.6 24.6" >
<g>
	<g>
		<path class="st0" d="M12.8,12.6c0.1-8.3,2.4-9.4,2.4-9.4s0,5.6,0,9.1l0,1.5c0,0.6,0,1.1,0,1.1c0,0.5,0,5.7,0,5.7l0,0c0,0,0,0,0,0
			c0,0.4-0.3,0.8-0.8,0.8c-0.4,0-0.8-0.3-0.8-0.8c0,0,0,0,0,0l0,0c0,0,0.5-6.4-0.1-7.1L12.8,12.6z"/>
	</g>
	<g>
		<path class="st0" d="M11,13.6c0,1.2,0,7.1,0,7.1h0c0,0,0,0,0,0c0,0.4-0.3,0.8-0.8,0.8c-0.4,0-0.8-0.3-0.8-0.8c0,0,0,0,0,0l0,0
			c0,0,0-5.9,0-7.1l0.2-1.7c0.1-0.7,0-1.5-0.7-2.2C8.7,9.2,8.3,8.7,8.3,8.1c0-0.1,0-0.2,0-0.2l0.5-4h0.4L9.1,8.6l0.5,0l0-4.7l0.4,0
			l0,4.7l0.4,0l0-4.7l0.4,0l0,4.7l0.5,0l-0.1-4.7l0.4,0l0.5,4.2c0,0,0,0.1,0,0.1c0,0.5-0.3,1-0.6,1.3c0,0,0,0,0,0
			c-0.7,0.8-0.9,1.6-0.8,2.4L11,13.6z"/>
	</g>
</g>
</svg>
