<svg  xmlns="http://www.w3.org/2000/svg"  x="0px"
	 y="0px" viewBox="0 0 59.9 106" >
<g>
	<path class="st0" d="M32.3,46.5C18.9,43,14.6,39.5,14.6,33.9c0-6.4,5.9-10.9,15.9-10.9c10.5,0,14.4,5,14.7,12.4h13
		c-0.4-10.1-6.6-19.4-18.9-22.4V0H21.7v12.7C10.2,15.2,1.1,22.6,1.1,34c0,13.6,11.2,20.4,27.7,24.3c14.7,3.5,17.7,8.7,17.7,14.2
		c0,4.1-2.9,10.5-15.9,10.5C18.4,83,13.6,77.6,13,70.7H0c0.7,12.9,10.4,20.1,21.7,22.6V106h17.7V93.3c11.5-2.2,20.6-8.8,20.6-20.9
		C59.9,55.7,45.6,50,32.3,46.5z"/>
</g>
</svg>
