<?xml version="1.0" encoding="utf-8"?>
<!-- Generator: Adobe Illustrator 19.2.1, SVG Export Plug-In . SVG Version: 6.00 Build 0)  -->
<svg version="1.1" id="Ebene_1" xmlns="http://www.w3.org/2000/svg" xmlns:xlink="http://www.w3.org/1999/xlink" x="0px" y="0px"
	 viewBox="0 0 18 25.7" style="enable-background:new 0 0 18 25.7;" xml:space="preserve">

<path class="st2" d="M9,3.2c1.6,0,3,0.6,4.1,1.7c1.1,1.1,1.7,2.5,1.7,4.1c0,1.6-0.6,3-1.7,4.1c-1.1,1.1-2.5,1.7-4.1,1.7
	c-1.6,0-3-0.6-4.1-1.7C3.8,12,3.2,10.6,3.2,9c0-1.6,0.6-3,1.7-4.1C6,3.8,7.4,3.2,9,3.2z M8.4,25.3c0.1,0.1,0.3,0.3,0.4,0.4
	c0.1,0,0.2,0.1,0.3,0.1c0.1,0,0.2,0,0.3-0.1c0.2-0.1,0.3-0.2,0.4-0.4c0.2-0.2,0.5-0.5,0.8-0.9s0.9-1.2,1.8-2.4
	c0.9-1.2,1.7-2.4,2.4-3.5c0.7-1.2,1.4-2.5,2-4s1-3,1.2-4.3C18,9.7,18,9.3,18,9c0-2.5-0.9-4.6-2.6-6.4C13.6,0.9,11.5,0,9,0
	S4.4,0.9,2.6,2.6C0.9,4.4,0,6.5,0,9c0,0.4,0,0.8,0.1,1.2c0.1,1.3,0.5,2.7,1.2,4.2c0.6,1.5,1.3,2.9,2.1,4.1c0.8,1.2,1.6,2.4,2.3,3.4
	s1.4,1.9,1.9,2.4C8.1,25,8.4,25.3,8.4,25.3z"/>
</svg>
