<svg xmlns="http://www.w3.org/2000/svg" x="0px" y="0px"
	 viewBox="0 0 24.6 24.6" >
<g>
	<path class="st0" d="M17.2,9.7l-4.9-2.5c0,0-4.9,2.5-4.9,2.5L6.7,10l-0.4,0.2c-0.1,0-0.2,0.1-0.3,0.1c-0.2,0-0.4-0.1-0.5-0.3
		c-0.1-0.3,0-0.6,0.3-0.8c0,0,6-3.1,6.2-3.2C12.2,6,12.4,6,12.6,6l6.2,3.2c0.3,0.1,0.4,0.5,0.3,0.8c-0.1,0.3-0.5,0.4-0.8,0.3
		L17.9,10L17.2,9.7z"/>
	<path class="st0" d="M16.4,17.3H16v1c0,0.2-0.2,0.3-0.3,0.3h-0.7c-0.2,0-0.3-0.2-0.3-0.3v-1H10v1c0,0.2-0.2,0.3-0.3,0.3H8.9
		c-0.2,0-0.3-0.2-0.3-0.3v-1H8.2c-0.5,0-0.8-0.4-0.7-0.9c0,0,0.3-1.2,0.4-1.6c0.1-0.5,0.4-0.6,0.7-0.7l0.6-1.9
		c0.2-0.5,0.8-0.9,1.3-0.9h3.6c0.5,0,1.1,0.4,1.3,0.9l0.6,1.9c0.3,0.2,0.6,0.3,0.7,0.7c0.1,0.3,0.4,1.6,0.4,1.6
		C17.2,16.9,16.9,17.3,16.4,17.3z M10,15.7c0-0.3-0.3-0.6-0.6-0.6c-0.3,0-0.6,0.3-0.6,0.6c0,0.3,0.3,0.6,0.6,0.6
		C9.7,16.3,10,16.1,10,15.7z M13.6,16.1c0-0.2-0.1-0.3-0.3-0.3h-2.1c-0.2,0-0.3,0.1-0.3,0.3c0,0.2,0.1,0.3,0.3,0.3h2.1
		C13.5,16.3,13.6,16.2,13.6,16.1z M15.2,13.9c0,0-0.3-1.2-0.5-1.5c-0.1-0.3-0.4-0.4-0.6-0.4h-3.6c-0.2,0-0.5,0.1-0.6,0.4
		c-0.1,0.3-0.5,1.5-0.5,1.5H15.2z M15.8,15.7c0-0.3-0.3-0.6-0.6-0.6c-0.3,0-0.6,0.3-0.6,0.6c0,0.3,0.3,0.6,0.6,0.6
		C15.5,16.3,15.8,16.1,15.8,15.7z"/>
</g>
</svg>
