<svg  xmlns="http://www.w3.org/2000/svg" xmlns:xlink="http://www.w3.org/1999/xlink" x="0px" y="0px"
	 viewBox="0 0 14 14" >
<path d="M7,1.6c1.5,0,2.7,0.5,3.8,1.6s1.6,2.3,1.6,3.8s-0.5,2.7-1.6,3.8c-1.1,1.1-2.3,1.6-3.8,1.6s-2.7-0.5-3.8-1.6
	C2.1,9.7,1.6,8.5,1.6,7s0.5-2.7,1.6-3.8S5.5,1.6,7,1.6z M7,13.4c1.8,0,3.3-0.6,4.5-1.9s1.9-2.8,1.9-4.5s-0.6-3.3-1.9-4.5
	S8.8,0.6,7,0.6S3.7,1.2,2.5,2.5S0.6,5.2,0.6,7s0.6,3.3,1.9,4.5S5.2,13.4,7,13.4z M7,0c1.9,0,3.6,0.7,4.9,2.1S14,5.1,14,7
	s-0.7,3.6-2.1,4.9S8.9,14,7,14s-3.6-0.7-4.9-2.1S0,8.9,0,7s0.7-3.6,2.1-4.9S5.1,0,7,0z"/>
</svg>
