<?xml version="1.0" encoding="UTF-8" standalone="no"?>
<!-- Created with Inkscape (http://www.inkscape.org/) -->

<svg
   xmlns:dc="http://purl.org/dc/elements/1.1/"
   xmlns:cc="http://creativecommons.org/ns#"
   xmlns:rdf="http://www.w3.org/1999/02/22-rdf-syntax-ns#"
   xmlns:svg="http://www.w3.org/2000/svg"
   xmlns="http://www.w3.org/2000/svg"
   xmlns:sodipodi="http://sodipodi.sourceforge.net/DTD/sodipodi-0.dtd"
   xmlns:inkscape="http://www.inkscape.org/namespaces/inkscape"
   id="svg2"
   version="1.1"
   inkscape:version="0.91 r13725"
   xml:space="preserve"
   width="125"
   height="125"
   viewBox="0 0 125 125"
   sodipodi:docname="flusse-seen.svg"><metadata
     id="metadata8"><rdf:RDF><cc:Work
         rdf:about=""><dc:format>image/svg+xml</dc:format><dc:type
           rdf:resource="http://purl.org/dc/dcmitype/StillImage" /><dc:title></dc:title></cc:Work></rdf:RDF></metadata><defs
     id="defs6"><clipPath
       clipPathUnits="userSpaceOnUse"
       id="clipPath16"><path
         d="M 0,100 100,100 100,0 0,0 0,100 Z"
         id="path18"
         inkscape:connector-curvature="0" /></clipPath></defs><sodipodi:namedview
     pagecolor="#ffffff"
     bordercolor="#666666"
     borderopacity="1"
     objecttolerance="10"
     gridtolerance="10"
     guidetolerance="10"
     inkscape:pageopacity="0"
     inkscape:pageshadow="2"
     inkscape:window-width="735"
     inkscape:window-height="480"
     id="namedview4"
     showgrid="false"
     inkscape:zoom="1.888"
     inkscape:cx="62.5"
     inkscape:cy="62.5"
     inkscape:window-x="0"
     inkscape:window-y="23"
     inkscape:window-maximized="0"
     inkscape:current-layer="g10" /><g
     id="g10"
     inkscape:groupmode="layer"
     inkscape:label="icons_themen"
     transform="matrix(1.25,0,0,-1.25,0,125)"><g
       id="g12"><g
         id="g14"
         clip-path="url(#clipPath16)"><g
           id="g20"
           transform="translate(55.0385,67.9851)"><path
             d="m 0,0 c 0,-2.913 -2.361,-5.274 -5.274,-5.274 -2.912,0 -5.273,2.361 -5.273,5.274 0,2.912 2.361,5.274 5.273,5.274 C -2.361,5.274 0,2.912 0,0"
             style="fill:#000000;fill-opacity:1;fill-rule:nonzero;stroke:none"
             id="path22"
             inkscape:connector-curvature="0" /></g><g
           id="g24"
           transform="translate(53.3575,38.2283)"><path
             d="M 0,0 -0.263,0.167 6.523,10.86 c -0.724,0.023 -1.505,0.093 -2.34,0.25 L -2.046,1.296 -2.32,1.468 c -0.219,0.14 -0.525,0.11 -0.677,-0.065 L -6.473,-2.556 C -6.627,-2.73 -6.854,-3.034 -6.978,-3.23 L -9.641,-7.436 C -9.765,-7.633 -9.85,-7.989 -9.83,-8.229 l 0.119,-1.437 c 0.019,-0.24 0.216,-0.551 0.435,-0.689 l 0.383,-0.243 c 0.219,-0.139 0.578,-0.366 0.798,-0.505 l 0.382,-0.242 c 0.22,-0.139 0.584,-0.184 0.809,-0.099 l 1.351,0.507 c 0.224,0.084 0.511,0.315 0.635,0.511 l 2.663,4.205 c 0.124,0.198 0.301,0.532 0.393,0.745 l 2.093,4.835 C 0.323,-0.428 0.219,-0.139 0,0"
             style="fill:#000000;fill-opacity:1;fill-rule:nonzero;stroke:none"
             id="path26"
             inkscape:connector-curvature="0" /></g><g
           id="g28"
           transform="translate(68.1356,62.4621)"><path
             d="M 0,0 -1.616,0.968 C -2.157,1.291 -2.858,1.115 -3.182,0.573 -3.488,0.06 -3.34,-0.594 -2.86,-0.936 l -3.465,-5.459 c 0.04,0 0.077,0 0.117,0.002 0.493,0.014 1.005,0.028 1.537,0.028 0.277,0 0.542,-0.04 0.8,-0.1 l 2.824,4.449 c 0.52,-0.232 1.141,-0.049 1.441,0.452 C 0.717,-1.024 0.541,-0.324 0,0"
             style="fill:#000000;fill-opacity:1;fill-rule:nonzero;stroke:none"
             id="path30"
             inkscape:connector-curvature="0" /></g><g
           id="g32"
           transform="translate(88.2412,59.8323)"><path
             d="m 0,0 c -6.303,-3.537 -7.679,-10.349 -27.382,-12.029 l -5.878,-9.264 c 0.201,-0.489 0.216,-1.049 0,-1.55 l -1.731,-4.002 c 6.826,0.148 13.981,0.792 21.427,2.075 C 8.312,-21 0,0 0,0"
             style="fill:#000000;fill-opacity:1;fill-rule:nonzero;stroke:none"
             id="path34"
             inkscape:connector-curvature="0" /></g><g
           id="g36"
           transform="translate(45.0996,35.8096)"><path
             d="m 0,0 c 0.166,0.264 0.439,0.628 0.648,0.865 l 3.474,3.957 c 0.352,0.404 0.866,0.644 1.421,0.667 l 3.913,6.164 c -0.822,-0.021 -1.667,-0.035 -2.54,-0.041 -28.394,-0.194 -33.706,5.321 -40.846,9.326 0,0 -5.884,-17.679 11.47,-21.102 6.425,-1.268 13.363,-2.177 20.754,-2.53 L 0,0 Z"
             style="fill:#000000;fill-opacity:1;fill-rule:nonzero;stroke:none"
             id="path38"
             inkscape:connector-curvature="0" /></g><g
           id="g40"
           transform="translate(60.5313,56.8792)"><path
             d="M 0,0 2.894,4.561 C 1.693,4.229 -1.618,3.355 -2.98,3.169 -3.576,3.088 -4.91,3.058 -6.391,3.055 c 1.141,-1.521 2.536,-2.973 3.195,-3.273 0.449,-0.205 0.875,-0.331 1.301,-0.424 0.507,0.09 1.106,0.217 1.723,0.359 L 0,0 Z"
             style="fill:#000000;fill-opacity:1;fill-rule:nonzero;stroke:none"
             id="path42"
             inkscape:connector-curvature="0" /></g><g
           id="g44"
           transform="translate(63.4649,54.5816)"><path
             d="m 0,0 c -0.518,0 -1.015,-0.014 -1.495,-0.027 -1.931,-0.054 -3.454,-0.097 -5.263,0.727 -1.292,0.588 -3.353,3.054 -4.405,4.617 -0.097,0.144 -0.211,0.27 -0.336,0.38 -0.439,0.499 -1.012,0.892 -1.69,1.108 -1.999,0.637 -4.135,-0.466 -4.772,-2.463 l -3.126,-9.801 c 2.402,-0.119 5.03,-0.184 7.911,-0.189 l 1.65,5.176 c 0.957,-0.986 2.052,-1.917 3.134,-2.41 2.06,-0.94 3.862,-1.108 5.574,-1.108 0.484,0 0.961,0.013 1.434,0.027 0.453,0.013 0.922,0.025 1.384,0.025 1.087,0 1.969,0.882 1.969,1.969 C 1.969,-0.881 1.088,0 0,0"
             style="fill:#000000;fill-opacity:1;fill-rule:nonzero;stroke:none"
             id="path46"
             inkscape:connector-curvature="0" /></g></g></g></g></svg>