<?xml version="1.0" encoding="UTF-8" standalone="no"?>
<!-- Created with Inkscape (http://www.inkscape.org/) -->

<svg
   xmlns:dc="http://purl.org/dc/elements/1.1/"
   xmlns:cc="http://creativecommons.org/ns#"
   xmlns:rdf="http://www.w3.org/1999/02/22-rdf-syntax-ns#"
   xmlns:svg="http://www.w3.org/2000/svg"
   xmlns="http://www.w3.org/2000/svg"
   xmlns:sodipodi="http://sodipodi.sourceforge.net/DTD/sodipodi-0.dtd"
   xmlns:inkscape="http://www.inkscape.org/namespaces/inkscape"
   id="svg2"
   version="1.1"
   inkscape:version="0.91 r13725"
   xml:space="preserve"
   width="125"
   height="125"
   viewBox="0 0 125 125"
   sodipodi:docname="freizeitparks.svg"><metadata
     id="metadata8"><rdf:RDF><cc:Work
         rdf:about=""><dc:format>image/svg+xml</dc:format><dc:type
           rdf:resource="http://purl.org/dc/dcmitype/StillImage" /><dc:title></dc:title></cc:Work></rdf:RDF></metadata><defs
     id="defs6"><clipPath
       clipPathUnits="userSpaceOnUse"
       id="clipPath16"><path
         d="M 0,100 100,100 100,0 0,0 0,100 Z"
         id="path18"
         inkscape:connector-curvature="0" /></clipPath></defs><sodipodi:namedview
     pagecolor="#ffffff"
     bordercolor="#666666"
     borderopacity="1"
     objecttolerance="10"
     gridtolerance="10"
     guidetolerance="10"
     inkscape:pageopacity="0"
     inkscape:pageshadow="2"
     inkscape:window-width="735"
     inkscape:window-height="480"
     id="namedview4"
     showgrid="false"
     inkscape:zoom="1.888"
     inkscape:cx="62.5"
     inkscape:cy="62.5"
     inkscape:window-x="187"
     inkscape:window-y="187"
     inkscape:window-maximized="0"
     inkscape:current-layer="g10" /><g
     id="g10"
     inkscape:groupmode="layer"
     inkscape:label="icons_themen"
     transform="matrix(1.25,0,0,-1.25,0,125)"><g
       id="g12"><g
         id="g14"
         clip-path="url(#clipPath16)"><g
           id="g20"
           transform="translate(28.2816,67.1989)"><path
             d="M 0,0 C 2.365,0 4.282,1.917 4.282,4.282 4.282,6.647 2.365,8.565 0,8.565 -2.303,8.565 -4.18,6.747 -4.277,4.469 -4.28,4.407 -4.282,4.345 -4.282,4.282 -4.282,1.917 -2.365,0 0,0"
             style="fill:#000000;fill-opacity:1;fill-rule:nonzero;stroke:none"
             id="path22"
             inkscape:connector-curvature="0" /></g><g
           id="g24"
           transform="translate(24.9417,53.0388)"><path
             d="M 0,0 C -0.098,2.278 -1.975,4.096 -4.278,4.096 -6.58,4.096 -8.458,2.278 -8.555,0 -8.558,-0.062 -8.56,-0.124 -8.56,-0.186 c 0,-2.365 1.917,-4.283 4.282,-4.283 2.365,0 4.282,1.918 4.282,4.283 C 0.005,-0.124 0.003,-0.062 0,0"
             style="fill:#000000;fill-opacity:1;fill-rule:nonzero;stroke:none"
             id="path26"
             inkscape:connector-curvature="0" /></g><g
           id="g28"
           transform="translate(71.9333,66.9566)"><path
             d="M 0,0 C 2.365,0 4.282,1.917 4.282,4.282 4.282,4.345 4.28,4.407 4.278,4.469 4.18,6.747 2.303,8.565 0,8.565 -2.303,8.565 -4.18,6.747 -4.277,4.469 -4.28,4.407 -4.282,4.345 -4.282,4.282 -4.282,1.917 -2.365,0 0,0"
             style="fill:#000000;fill-opacity:1;fill-rule:nonzero;stroke:none"
             id="path30"
             inkscape:connector-curvature="0" /></g><g
           id="g32"
           transform="translate(50.195,76.8268)"><path
             d="M 0,0 C 2.365,0 4.282,1.918 4.282,4.282 4.282,4.345 4.28,4.407 4.278,4.469 4.18,6.747 2.303,8.565 0,8.565 -2.303,8.565 -4.18,6.747 -4.278,4.469 -4.28,4.407 -4.282,4.345 -4.282,4.282 -4.282,1.918 -2.365,0 0,0"
             style="fill:#000000;fill-opacity:1;fill-rule:nonzero;stroke:none"
             id="path34"
             inkscape:connector-curvature="0" /></g><g
           id="g36"
           transform="translate(71.3299,35.8136)"><path
             d="m 0,0 c -2.303,0 -4.18,-1.818 -4.277,-4.096 -0.003,-0.062 -0.005,-0.124 -0.005,-0.186 0,-2.365 1.917,-4.282 4.282,-4.282 2.365,0 4.282,1.917 4.282,4.282 0,0.062 -0.002,0.124 -0.004,0.186 C 4.18,-1.818 2.303,0 0,0"
             style="fill:#000000;fill-opacity:1;fill-rule:nonzero;stroke:none"
             id="path38"
             inkscape:connector-curvature="0" /></g><g
           id="g40"
           transform="translate(28.6988,35.8247)"><path
             d="m 0,0 c -2.303,0 -4.18,-1.818 -4.278,-4.096 -0.002,-0.062 -0.004,-0.124 -0.004,-0.186 0,-2.365 1.917,-4.282 4.282,-4.282 2.365,0 4.282,1.917 4.282,4.282 0,0.062 -0.002,0.124 -0.005,0.186 C 4.18,-1.818 2.303,0 0,0"
             style="fill:#000000;fill-opacity:1;fill-rule:nonzero;stroke:none"
             id="path42"
             inkscape:connector-curvature="0" /></g><g
           id="g44"
           transform="translate(83.6135,53.0388)"><path
             d="M 0,0 C -0.097,2.278 -1.975,4.096 -4.278,4.096 -6.58,4.096 -8.457,2.278 -8.555,0 -8.558,-0.062 -8.56,-0.124 -8.56,-0.186 c 0,-2.365 1.918,-4.283 4.282,-4.283 2.366,0 4.283,1.918 4.283,4.283 C 0.005,-0.124 0.003,-0.062 0,0"
             style="fill:#000000;fill-opacity:1;fill-rule:nonzero;stroke:none"
             id="path46"
             inkscape:connector-curvature="0" /></g><g
           id="g48"
           transform="translate(56.7179,46.2154)"><path
             d="m 0,0 c 1.22,1.346 2.035,3.065 2.234,4.972 l 11.745,0 c -0.068,-5.228 -2.09,-9.98 -5.36,-13.591 L 0,0 Z M -3.658,-15.208 -5.48,-2.83 c 1.643,0.191 3.145,0.837 4.383,1.806 L 7.579,-9.7 c -3.022,-2.89 -6.911,-4.865 -11.237,-5.508 m 0.434,-13.365 -7.299,0 3.785,24.329 3.514,-24.329 z m -17.797,18.895 8.854,8.854 c 1.165,-0.983 2.59,-1.662 4.155,-1.933 l -1.954,-12.42 c -4.254,0.677 -8.078,2.642 -11.055,5.499 m -6.376,14.65 12.151,0 c 0.045,-0.435 0.131,-0.856 0.238,-1.27 0.007,-0.026 0.013,-0.052 0.02,-0.078 0.337,-1.263 0.942,-2.416 1.761,-3.387 l -8.831,-8.832 c -3.257,3.609 -5.271,8.351 -5.339,13.567 m 5.745,14.559 8.228,-8.229 c -1.055,-1.347 -1.722,-3.009 -1.841,-4.824 0,-0.002 -10e-4,-0.004 -10e-4,-0.006 l -12.078,0 c 0.298,5.052 2.401,9.618 5.692,13.059 m 14.193,6.375 0,-11.277 C -9.353,14.424 -11.061,13.613 -12.4,12.4 l 0,0 -8.172,8.172 c 3.5,3.169 8.075,5.152 13.113,5.334 M -9.094,2.248 c 0.505,-0.356 1.081,-0.618 1.71,-0.741 l 0,-0.274 -0.394,-2.506 c -1.243,0.22 -2.379,0.751 -3.32,1.517 l 2.004,2.004 z m -1.795,2.724 c 0.129,-0.611 0.381,-1.175 0.731,-1.666 l -2,-2.001 c -0.836,1.028 -1.393,2.288 -1.569,3.667 l 2.838,0 z m -0.445,6.362 c 1.062,0.944 2.398,1.581 3.875,1.776 l 0,-2.853 C -8.165,10.106 -8.81,9.791 -9.35,9.35 l -1.984,1.984 z m 1.004,-3.126 c -0.316,-0.52 -0.537,-1.105 -0.619,-1.736 l -2.813,0 c 0.111,1.401 0.62,2.688 1.413,3.755 l 2.019,-2.019 z m 4.295,-6.757 c 0.667,0.073 1.287,0.296 1.833,0.63 l 2.03,-2.03 c -1.009,-0.75 -2.214,-1.25 -3.527,-1.395 l -0.336,2.283 0,0.512 z m 0.076,11.7 c 1.525,-0.114 2.921,-0.694 4.041,-1.605 L -3.934,9.529 c -0.586,0.418 -1.276,0.697 -2.025,0.792 l 0,2.83 z m 0,12.755 c 5.027,-0.182 9.591,-2.157 13.088,-5.313 l -7.978,-7.978 c -1.398,1.178 -3.169,1.92 -5.11,2.04 l 0,11.251 z M 0.714,4.972 C 0.525,3.482 -0.115,2.135 -1.065,1.065 l -2,2 c 0.445,0.544 0.762,1.194 0.911,1.907 l 2.868,0 z m -2.812,1.5 c -0.096,0.736 -0.369,1.415 -0.778,1.994 l 2.019,2.02 C 0.05,9.372 0.63,7.986 0.75,6.472 l -2.848,0 z m 16.024,0 -11.673,0 C 2.127,8.403 1.385,10.163 0.212,11.554 l 8.001,8.001 c 3.303,-3.443 5.414,-8.02 5.713,-13.083 M 16.975,5.52 C 16.974,18.601 6.371,29.203 -6.709,29.204 -19.79,29.203 -30.393,18.601 -30.393,5.52 c 0,-11.828 8.67,-21.629 20.002,-23.399 l -1.683,-10.696 -6.221,0 c -0.491,0 -0.888,-0.398 -0.888,-0.888 l 0,-1.085 c 0,-0.585 0.474,-1.059 1.058,-1.059 l 22.666,0 c 0.573,0 1.038,0.465 1.038,1.038 l 0,1.123 c 0,0.481 -0.39,0.871 -0.871,0.871 l -6.398,0 -1.57,10.662 C 8.186,-16.242 16.974,-6.389 16.975,5.52"
             style="fill:#000000;fill-opacity:1;fill-rule:nonzero;stroke:none"
             id="path50"
             inkscape:connector-curvature="0" /></g></g></g></g></svg>