<svg xmlns="http://www.w3.org/2000/svg"  x="0px"
	 y="0px" viewBox="0 0 104.5 107.4" >
<g>
	<path class="st0" d="M92.2,59c0.2-1.7,0.4-3.4,0.4-5.3c0-1.8-0.2-3.5-0.4-5.3l11.3-8.9c1-0.8,1.3-2.3,0.6-3.4L93.4,17.6
		c-0.6-1.2-2.1-1.6-3.3-1.2l-13.4,5.4c-2.8-2.1-5.8-3.9-9.1-5.3l-2-14.2C65.5,1,64.3,0,63,0H41.5c-1.3,0-2.5,1-2.6,2.3l-2,14.2
		c-3.3,1.3-6.3,3.2-9.1,5.3l-13.4-5.4c-1.2-0.5-2.6,0-3.3,1.2L0.4,36.1C-0.3,37.3,0,38.8,1,39.6l11.3,8.9c-0.2,1.7-0.4,3.5-0.4,5.3
		c0,1.8,0.2,3.5,0.4,5.3L1,67.8c-1,0.8-1.3,2.3-0.6,3.4l10.7,18.6c0.6,1.2,2.1,1.6,3.3,1.2l13.4-5.4c2.8,2.1,5.8,3.9,9.1,5.3l2,14.2
		c0.2,1.3,1.3,2.3,2.6,2.3H63c1.3,0,2.5-1,2.6-2.3l2-14.2c3.3-1.3,6.3-3.2,9.1-5.3L90.1,91c1.2,0.5,2.6,0,3.3-1.2l10.7-18.6
		c0.6-1.2,0.4-2.6-0.6-3.4L92.2,59z M52.3,72.5c-10.4,0-18.8-8.4-18.8-18.8s8.4-18.8,18.8-18.8s18.8,8.4,18.8,18.8
		S62.6,72.5,52.3,72.5z"/>
</g>
</svg>
