<?xml version="1.0" encoding="UTF-8" standalone="no"?>
<!-- Created with Inkscape (http://www.inkscape.org/) -->

<svg
   xmlns:dc="http://purl.org/dc/elements/1.1/"
   xmlns:cc="http://creativecommons.org/ns#"
   xmlns:rdf="http://www.w3.org/1999/02/22-rdf-syntax-ns#"
   xmlns:svg="http://www.w3.org/2000/svg"
   xmlns="http://www.w3.org/2000/svg"
   xmlns:sodipodi="http://sodipodi.sourceforge.net/DTD/sodipodi-0.dtd"
   xmlns:inkscape="http://www.inkscape.org/namespaces/inkscape"
   id="svg2"
   version="1.1"
   inkscape:version="0.91 r13725"
   xml:space="preserve"
   width="125"
   height="125"
   viewBox="0 0 125 125"
   sodipodi:docname="thermen-baeder.svg"><metadata
     id="metadata8"><rdf:RDF><cc:Work
         rdf:about=""><dc:format>image/svg+xml</dc:format><dc:type
           rdf:resource="http://purl.org/dc/dcmitype/StillImage" /><dc:title></dc:title></cc:Work></rdf:RDF></metadata><defs
     id="defs6"><clipPath
       clipPathUnits="userSpaceOnUse"
       id="clipPath16"><path
         d="M 0,100 100,100 100,0 0,0 0,100 Z"
         id="path18"
         inkscape:connector-curvature="0" /></clipPath></defs><sodipodi:namedview
     pagecolor="#ffffff"
     bordercolor="#666666"
     borderopacity="1"
     objecttolerance="10"
     gridtolerance="10"
     guidetolerance="10"
     inkscape:pageopacity="0"
     inkscape:pageshadow="2"
     inkscape:window-width="735"
     inkscape:window-height="480"
     id="namedview4"
     showgrid="false"
     inkscape:zoom="1.888"
     inkscape:cx="62.5"
     inkscape:cy="62.5"
     inkscape:window-x="0"
     inkscape:window-y="23"
     inkscape:window-maximized="0"
     inkscape:current-layer="g10" /><g
     id="g10"
     inkscape:groupmode="layer"
     inkscape:label="icons_themen"
     transform="matrix(1.25,0,0,-1.25,0,125)"><g
       id="g12"><g
         id="g14"
         clip-path="url(#clipPath16)"><g
           id="g20"
           transform="translate(37.3381,66.4118)"><path
             d="m 0,0 c 0.142,-0.133 0.24,-0.216 0.328,-0.308 2.15,-2.238 3.903,-4.753 5.237,-7.554 0.791,-1.66 1.386,-3.391 1.624,-5.224 0.297,-2.28 -0.024,-4.435 -1.326,-6.389 -0.368,-0.554 -0.592,-1.167 -0.54,-1.852 0.07,-0.903 0.839,-1.572 1.636,-1.293 0.44,0.153 0.861,0.53 1.148,0.914 0.544,0.728 0.594,1.644 0.731,2.516 0.38,2.425 0.49,4.868 0.111,7.291 C 8.336,-7.984 6.903,-4.367 4.644,-1.1 3.612,0.393 2.382,1.705 0.794,2.63 -0.024,3.106 -0.029,3.088 -0.763,2.504 -2.786,0.892 -4.055,-1.249 -4.975,-3.609 c -1.574,-4.039 -2.188,-8.252 -1.959,-12.564 0.116,-2.2 0.613,-4.356 1.924,-6.2 0.455,-0.64 1.024,-1.251 1.666,-1.693 1.059,-0.728 2.382,-0.202 2.72,0.969 0.193,0.669 -0.138,1.256 -0.815,1.433 -0.158,0.042 -0.32,0.077 -0.482,0.093 -1.558,0.157 -2.412,1.117 -2.856,2.525 -0.581,1.843 -0.481,3.718 -0.208,5.592 C -4.286,-8.639 -2.465,-4.238 0,0 m 11.492,-6.817 c -0.21,-3.893 -0.452,-7.783 -0.618,-11.677 -0.106,-2.487 -0.172,-4.98 -0.115,-7.467 0.036,-1.564 0.353,-3.12 0.508,-4.684 0.208,-2.102 0.168,-4.187 -0.625,-6.191 -0.973,-2.459 -2.794,-3.885 -5.367,-4.387 -1.61,-0.313 -3.225,-0.352 -4.824,0.038 -2.517,0.615 -4.244,2.21 -5.105,4.6 -0.589,1.634 -0.942,3.364 -1.293,5.073 -0.697,3.395 -1.214,6.83 -2.005,10.203 -0.681,2.907 -1.652,5.746 -2.471,8.622 -0.93,3.267 -1.467,6.584 -1.043,9.99 0.478,3.838 2.075,7.043 5.419,9.189 1.761,1.13 3.724,1.715 5.782,2.054 2.205,0.363 4.31,0.142 6.293,-0.905 3.024,-1.595 4.83,-4.138 5.247,-7.491 0.265,-2.131 0.116,-4.313 0.152,-6.472 0.002,-0.164 0,-0.328 0,-0.492 0.022,-0.001 0.043,-0.002 0.065,-0.003"
             style="fill:#000000;fill-opacity:1;fill-rule:nonzero;stroke:none"
             id="path22"
             inkscape:connector-curvature="0" /></g><g
           id="g24"
           transform="translate(64.2826,66.4946)"><path
             d="m 0,0 c 2.73,-4.748 4.708,-9.591 5.184,-14.946 0.141,-1.589 0.083,-3.179 -0.552,-4.684 -0.433,-1.027 -1.165,-1.729 -2.279,-1.974 -0.286,-0.063 -0.585,-0.075 -0.87,-0.145 -0.62,-0.151 -0.974,-0.695 -0.863,-1.287 0.169,-0.904 1.029,-1.527 1.945,-1.411 0.878,0.112 1.479,0.661 2.003,1.306 1.671,2.06 2.308,4.513 2.403,7.077 0.07,1.92 -0.054,3.866 -0.29,5.776 -0.423,3.417 -1.357,6.695 -3.198,9.657 -0.83,1.337 -1.85,2.5 -3.158,3.386 -0.147,0.099 -0.454,0.131 -0.594,0.045 -0.68,-0.419 -1.374,-0.836 -1.98,-1.351 -1.789,-1.522 -3.03,-3.463 -4.086,-5.533 -2.679,-5.252 -3.453,-10.76 -2.22,-16.536 0.157,-0.735 0.458,-1.403 1.093,-1.859 0.803,-0.577 1.835,-0.265 2.07,0.689 0.11,0.448 0.074,0.986 -0.067,1.428 -0.177,0.55 -0.533,1.042 -0.808,1.561 -1.195,2.254 -1.19,4.622 -0.619,7.024 0.779,3.273 2.393,6.143 4.401,8.803 0.755,1 1.607,1.929 2.485,2.974 m 11.655,-4.872 c -0.035,-3.291 -0.642,-6.094 -1.47,-8.865 -0.796,-2.661 -1.639,-5.314 -2.277,-8.014 -0.624,-2.638 -0.986,-5.338 -1.519,-7.999 -0.41,-2.051 -0.832,-4.105 -1.388,-6.119 -0.542,-1.968 -1.67,-3.581 -3.48,-4.633 -1.449,-0.843 -3.04,-1.074 -4.684,-1.032 -1.25,0.032 -2.478,0.204 -3.644,0.688 -2.153,0.895 -3.435,2.544 -4.074,4.738 -0.589,2.023 -0.556,4.088 -0.258,6.138 0.486,3.339 0.56,6.686 0.374,10.044 -0.326,5.921 -0.689,11.839 -0.67,17.773 0.008,2.653 0.61,5.105 2.335,7.174 2.412,2.893 5.525,4.013 9.239,3.469 1.856,-0.272 3.637,-0.784 5.294,-1.699 2.866,-1.581 4.669,-3.992 5.57,-7.101 0.23,-0.797 0.386,-1.623 0.497,-2.447 0.111,-0.825 0.124,-1.664 0.155,-2.115"
             style="fill:#000000;fill-opacity:1;fill-rule:nonzero;stroke:none"
             id="path26"
             inkscape:connector-curvature="0" /></g></g></g></g></svg>