<svg  xmlns="http://www.w3.org/2000/svg" x="0px" y="0px"
	 viewBox="0 0 49.2 43.2" >
<g>
	<path class="st0" d="M47.6,13.9l-0.5-3.3c-0.1-0.5-0.7-1.1-1.3-1.1H44h-0.6h-0.4c0,0-0.1-0.1-0.1-0.1c-0.1-0.1-0.1-0.1-0.1-0.2
		c0,0-0.1-0.2-0.1-0.3c0,0,0-0.1,0-0.1l0.2-0.1l0.1-0.1c0.1-0.1,0.3-0.3,0.4-0.4c0.2-0.2,0.3-0.4,0.5-0.7c0.2-0.3,0.3-0.6,0.4-0.9
		c0.4,0,0.6-0.4,0.6-0.9c0-0.1,0-0.3-0.1-0.4c0.1-0.2,0.1-0.6,0-1.2c-0.4-2.8-1.4-3.8-3.8-3.8c-2.2,0-3.4,1.2-3.7,3.8
		c-0.1,0.6-0.1,1,0,1.2c0,0.1-0.1,0.3-0.1,0.4c0,0.5,0.3,0.9,0.6,0.9c0.1,0.3,0.3,0.6,0.5,0.9c0.1,0.2,0.3,0.5,0.5,0.7
		c0.1,0.2,0.3,0.3,0.4,0.4l0.1,0.1l0.2,0.1c0,0,0,0.1,0,0.1c-0.1,0.1-0.2,0.3-0.1,0.3c0,0.1-0.1,0.2-0.1,0.2c0,0-0.1,0.1-0.1,0.1
		h-0.4h-0.6h-1.9c-0.6,0-1.2,0.6-1.3,1.1l-0.5,3.3l-0.5,3c0,0,0.9,0.4,1.3,1c0.3,0.5,0.6,1.5,0.7,1.7l0.6-4v7.6
		c0.5,0.2,0.9,0.8,1,1.2l1.2,7.5c0.1,0.4-0.1,0.8-0.4,1.1c-0.2,0.2-0.6,0.4-1,0.5c0,0-0.1,0-0.1,0v7.9c0,0.7,0.8,1.5,1.8,1.5
		c1,0,1.8-0.8,1.8-1.5V25.2h0.7v16.4c0,0.7,0.8,1.5,1.8,1.5c1,0,1.8-0.8,1.8-1.5V25.2l0.1,0v0c0.3-0.1,0.5-0.2,0.5-0.8v-8.6l1,6.7
		c0.1,0.4,0.5,0.7,1.1,0.7c0.1,0,0.2,0,0.2,0c0.3,0,0.6-0.2,0.8-0.4c0.2-0.2,0.3-0.5,0.3-0.7L47.6,13.9z"/>
	<path class="st0" d="M37.6,32.6c0.1-0.1,0.2-0.3,0.2-0.5L37,26.8l-0.3-2.2c0-0.3-0.5-0.7-0.8-0.7h-1.2h-0.4h-0.3c0,0-0.1,0-0.1-0.1
		c0,0-0.1-0.1-0.1-0.1c0,0-0.1-0.1-0.1-0.2c0,0,0,0,0-0.1l0.1-0.1l0.1-0.1c0.1-0.1,0.2-0.2,0.3-0.3c0.1-0.1,0.2-0.3,0.3-0.4
		c0.1-0.2,0.2-0.4,0.3-0.6c0.2,0,0.4-0.3,0.4-0.6c0-0.1,0-0.2,0-0.3c0.1-0.1,0.1-0.4,0-0.8c0-0.2-0.1-0.4-0.1-0.5
		c0,0-0.1-1.1-0.8-1.6c-0.5-0.3-0.6-0.3-1.2-0.4c-0.1,0-0.3,0-0.4,0c-1.2,0-1.8,0.8-1.8,0.8c-0.2,0.2-0.2,0.3-0.3,0.6
		c-0.1,0.3-0.2,0.7-0.3,1.1c-0.1,0.4,0,0.6,0,0.8c0,0.1,0,0.2,0,0.3c0,0.3,0.2,0.6,0.4,0.6c0.1,0.2,0.2,0.4,0.3,0.6
		c0.1,0.2,0.2,0.3,0.3,0.4c0.1,0.1,0.2,0.2,0.3,0.3l0.1,0.1l0.1,0.1c0,0,0,0,0,0.1c0,0.1-0.1,0.2-0.1,0.2c0,0-0.1,0.1-0.1,0.1
		c0,0,0,0-0.1,0.1H31h-0.4l-2.8-0.9l-1.1-0.5L24.2,11c-0.1-0.5-0.7-1.1-1.3-1.1h-2.1c-0.1-0.1-0.2-0.2-0.2-0.3
		c2.7-0.1,4.3-1.1,4.2-2.5c0-0.1-1.3,0.8-1.8-2.5c-0.4-2.6-1.4-3.9-4-4v0c0,0,0,0,0,0c0,0,0,0,0,0v0c-2.6,0.1-3.6,1.4-4,4
		c-0.5,3.3-1.8,2.4-1.8,2.5c-0.1,1.4,1.5,2.4,4.2,2.5c-0.1,0.1-0.2,0.2-0.2,0.3h-2.1c-0.6,0-1.2,0.6-1.3,1.1l-2.6,11.5c0,0,0,0,0,0
		l-1.1,0.5l-2.8,0.9H6.9H6.6c0,0-0.1,0-0.1-0.1c0,0-0.1-0.1-0.1-0.1c0,0-0.1-0.1-0.1-0.2c0,0,0,0,0-0.1l0.1-0.1l0.1-0.1
		c0.1-0.1,0.2-0.2,0.3-0.3c0.1-0.1,0.2-0.3,0.3-0.4c0.1-0.2,0.2-0.4,0.3-0.6c0.2,0,0.4-0.3,0.4-0.6c0-0.1,0-0.2,0-0.3
		c0.1-0.1,0.1-0.4,0-0.8c-0.1-0.4-0.1-0.8-0.3-1.1c-0.1-0.3-0.2-0.4-0.3-0.6c0,0-0.6-0.8-1.8-0.8c-0.1,0-0.3,0-0.4,0
		c-0.6,0.1-0.7,0.1-1.2,0.4c-0.7,0.5-0.9,1.6-0.8,1.6c0,0.2-0.1,0.3-0.1,0.5c-0.1,0.4,0,0.6,0,0.8c0,0.1,0,0.2,0,0.3
		c0,0.3,0.2,0.6,0.4,0.6c0.1,0.2,0.2,0.4,0.3,0.6c0.1,0.2,0.2,0.3,0.3,0.4c0.1,0.1,0.2,0.2,0.3,0.3l0.1,0.1l0.1,0.1c0,0,0,0,0,0.1
		c0,0.1-0.1,0.2-0.1,0.2c0,0-0.1,0.1-0.1,0.1c0,0,0,0-0.1,0.1H3.7H3.3H2.1c-0.4,0-0.8,0.4-0.8,0.7l-0.3,2.2l-0.8,5.3
		c0,0.2,0,0.3,0.2,0.5c0.1,0.1,0.3,0.2,0.5,0.2c0.1,0,0.1,0,0.2,0c0.4,0,0.7-0.2,0.7-0.5l0.7-4.4v5.7c0,0.4,0.2,0.5,0.4,0.5v0l0,0
		v7.9c0,0.4,0.5,1,1.2,1c0.6,0,1.2-0.5,1.2-1v-7.8h0.4v7.8c0,0.4,0.5,1,1.2,1c0.6,0,1.2-0.5,1.2-1v-7.9L8,34.1
		c0.2-0.1,0.3-0.3,0.3-0.5l0-7.6l2.8-1.4l1.3-0.6c0.5,0,0.8-0.2,1-0.5c0.2-0.1,0.3-0.5,0.2-0.8l2.1-8.2c0.2,0.4,0.3,0.9,0.5,1.1
		l0,0.4L13,29.8h2.8v12c0,0.7,0.7,1.2,1.5,1.2s1.5-0.5,1.5-1.2v-12l0.6,0v12c0,0.7,0.7,1.2,1.5,1.2s1.5-0.5,1.5-1.2v-12H25L21.9,16
		l0-0.4c0.1-0.2,0.3-0.6,0.5-1l2,8.1c-0.1,0.4,0,0.7,0.2,0.9c0.2,0.3,0.5,0.5,1,0.5l1.3,0.6l2.8,1.4l0,7.6c0,0.3,0.1,0.4,0.3,0.5
		l0.1,0.1v7.9c0,0.4,0.5,1,1.2,1c0.6,0,1.2-0.5,1.2-1v-7.8h0.4v7.8c0,0.4,0.5,1,1.2,1c0.6,0,1.2-0.5,1.2-1v-7.9l0,0v0
		c0.2,0,0.4-0.2,0.4-0.5v-5.7l0.7,4.4c0,0.3,0.3,0.5,0.7,0.5c0.1,0,0.1,0,0.2,0C37.3,32.8,37.5,32.7,37.6,32.6z"/>
</g>
</svg>
