<svg  xmlns="http://www.w3.org/2000/svg" x="0px" y="0px"
	 viewBox="0 0 24.6 24.6" >
<g>
	<g>
		<path class="st0" d="M20.6,11.3C16,6.8,8.6,6.8,4,11.3c-0.3,0.3-0.3,0.8,0,1c0.1,0.1,0.3,0.2,0.5,0.2c0.2,0,0.4-0.1,0.5-0.2
			c4-4,10.6-4,14.6,0c0.3,0.3,0.8,0.3,1,0C20.9,12,20.9,11.6,20.6,11.3z"/>
	</g>
	<g>
		<path class="st0" d="M18,14.6c0.2,0,0.4-0.1,0.5-0.2c0.3-0.3,0.3-0.8,0-1c-3.4-3.4-9-3.4-12.4,0c-0.3,0.3-0.3,0.8,0,1s0.8,0.3,1,0
			c2.9-2.8,7.5-2.8,10.4,0C17.6,14.5,17.8,14.6,18,14.6z"/>
	</g>
	<g>
		<path class="st0" d="M16.4,16.5c0.3-0.3,0.3-0.8,0-1c-2.3-2.2-6-2.2-8.2,0c-0.3,0.3-0.3,0.8,0,1c0.1,0.1,0.3,0.2,0.5,0.2
			c0.2,0,0.4-0.1,0.5-0.2c1.7-1.7,4.5-1.7,6.2,0C15.7,16.8,16.1,16.8,16.4,16.5z"/>
	</g>
</g>
</svg>
