<svg xmlns="http://www.w3.org/2000/svg" x="0px" y="0px"
	 viewBox="0 0 32.1 32.1" >
<g id="Ebene_1">
	<g>
		<path class="st0" d="M14.5,25.7h3.2v-3.2h-3.2V25.7z M16.1,0C7.2,0,0,7.2,0,16.1s7.2,16.1,16.1,16.1s16.1-7.2,16.1-16.1
			S24.9,0,16.1,0z M16.1,28.9C9,28.9,3.2,23.2,3.2,16.1S9,3.2,16.1,3.2S28.9,9,28.9,16.1S23.2,28.9,16.1,28.9z M16.1,6.4
			c-3.6,0-6.4,2.9-6.4,6.4h3.2c0-1.8,1.4-3.2,3.2-3.2s3.2,1.4,3.2,3.2c0,3.2-4.8,2.8-4.8,8h3.2c0-3.6,4.8-4,4.8-8
			C22.5,9.3,19.6,6.4,16.1,6.4z"/>
	</g>
</g>
<g id="Ebene_2">
</g>
</svg>
