<?xml version="1.0" encoding="UTF-8" standalone="no"?>
<!-- Created with Inkscape (http://www.inkscape.org/) -->

<svg
   xmlns:dc="http://purl.org/dc/elements/1.1/"
   xmlns:cc="http://creativecommons.org/ns#"
   xmlns:rdf="http://www.w3.org/1999/02/22-rdf-syntax-ns#"
   xmlns:svg="http://www.w3.org/2000/svg"
   xmlns="http://www.w3.org/2000/svg"
   xmlns:sodipodi="http://sodipodi.sourceforge.net/DTD/sodipodi-0.dtd"
   xmlns:inkscape="http://www.inkscape.org/namespaces/inkscape"
   id="svg2"
   version="1.1"
   inkscape:version="0.91 r13725"
   xml:space="preserve"
   width="125"
   height="125"
   viewBox="0 0 125 125"
   sodipodi:docname="musikcal-tickets.svg"><metadata
     id="metadata8"><rdf:RDF><cc:Work
         rdf:about=""><dc:format>image/svg+xml</dc:format><dc:type
           rdf:resource="http://purl.org/dc/dcmitype/StillImage" /><dc:title></dc:title></cc:Work></rdf:RDF></metadata><defs
     id="defs6"><clipPath
       clipPathUnits="userSpaceOnUse"
       id="clipPath16"><path
         d="M 0,100 100,100 100,0 0,0 0,100 Z"
         id="path18"
         inkscape:connector-curvature="0" /></clipPath></defs><sodipodi:namedview
     pagecolor="#ffffff"
     bordercolor="#666666"
     borderopacity="1"
     objecttolerance="10"
     gridtolerance="10"
     guidetolerance="10"
     inkscape:pageopacity="0"
     inkscape:pageshadow="2"
     inkscape:window-width="735"
     inkscape:window-height="480"
     id="namedview4"
     showgrid="false"
     inkscape:zoom="1.888"
     inkscape:cx="62.5"
     inkscape:cy="62.5"
     inkscape:window-x="0"
     inkscape:window-y="23"
     inkscape:window-maximized="0"
     inkscape:current-layer="g10" /><g
     id="g10"
     inkscape:groupmode="layer"
     inkscape:label="icons_themen"
     transform="matrix(1.25,0,0,-1.25,0,125)"><g
       id="g12"><g
         id="g14"
         clip-path="url(#clipPath16)"><g
           id="g20"
           transform="translate(60.4337,43.815)"><path
             d="m 0,0 -2.254,-1.588 -15.88,-11.105 4.359,-4.489 c 0.685,-0.718 1.878,-0.733 2.596,-0.048 L 8.929,2.268 6.628,4.633 0,0 Z"
             style="fill:#000000;fill-opacity:1;fill-rule:nonzero;stroke:none"
             id="path22"
             inkscape:connector-curvature="0" /></g><g
           id="g24"
           transform="translate(79.7092,58.6753)"><path
             d="m 0,0 -2.925,3.05 c -2.416,-2.357 -6.257,-2.303 -8.555,0.071 -2.298,2.374 -2.244,6.215 0.13,8.513 0,0 0.051,0.008 0.043,0.059 l -2.917,2.999 c -0.685,0.718 -1.879,0.733 -2.597,0.048 l -2.943,-2.853 1.48,-2.188 0.829,-1.224 -1.212,-0.846 c -2.041,-1.425 -2.54,-4.249 -1.111,-6.295 0.833,-1.194 2.213,-1.907 3.692,-1.907 0.949,0 1.865,0.292 2.649,0.843 l 1.237,0.871 0.86,-1.245 2.405,-3.479 c 1.027,-1.494 0.64,-3.62 -0.837,-4.635 l -0.59,-0.412 1.984,-2.04 8.33,8.073 C 0.67,-1.911 0.685,-0.718 0,0"
             style="fill:#000000;fill-opacity:1;fill-rule:nonzero;stroke:none"
             id="path26"
             inkscape:connector-curvature="0" /></g><g
           id="g28"
           transform="translate(53.4272,48.602)"><path
             d="M 0,0 -2.454,3.578 -0.026,5.308 2.479,1.729 0,0 Z m -6.485,9.331 2.438,1.705 2.505,-3.578 -2.489,-1.705 -2.454,3.578 z m -7.487,-15.628 -1.898,-3.565 -1.69,3.679 -3.973,0.679 2.957,2.743 -0.561,4.009 3.515,-1.987 3.628,1.764 -0.787,-3.937 2.8,-2.919 -3.991,-0.466 z M 16.111,5.641 13.708,9.117 c -2.76,-1.943 -6.543,-1.278 -8.434,1.431 -1.892,2.71 -1.227,6.492 1.482,8.384 0,0 0.051,0 0.051,0.051 l -2.402,3.425 c -0.563,0.818 -1.739,1.022 -2.556,0.46 l -9.509,-6.645 2.096,-2.965 -2.471,-1.731 -2.096,2.965 -22.731,-15.957 c -0.818,-0.562 -1.022,-1.738 -0.46,-2.556 l 11.707,-16.716 c 0.562,-0.818 1.738,-1.022 2.556,-0.46 l 22.73,15.896 -2.152,3.164 2.442,1.716 2.183,-3.138 9.507,6.644 c 0.818,0.562 1.022,1.738 0.46,2.556"
             style="fill:#000000;fill-opacity:1;fill-rule:nonzero;stroke:none"
             id="path30"
             inkscape:connector-curvature="0" /></g></g></g></g></svg>