<?xml version="1.0" encoding="UTF-8" standalone="no"?>
<!-- Created with Inkscape (http://www.inkscape.org/) -->

<svg
   xmlns:dc="http://purl.org/dc/elements/1.1/"
   xmlns:cc="http://creativecommons.org/ns#"
   xmlns:rdf="http://www.w3.org/1999/02/22-rdf-syntax-ns#"
   xmlns:svg="http://www.w3.org/2000/svg"
   xmlns="http://www.w3.org/2000/svg"
   xmlns:sodipodi="http://sodipodi.sourceforge.net/DTD/sodipodi-0.dtd"
   xmlns:inkscape="http://www.inkscape.org/namespaces/inkscape"
   id="svg2"
   version="1.1"
   inkscape:version="0.91 r13725"
   xml:space="preserve"
   width="125"
   height="125"
   viewBox="0 0 125 125"
   sodipodi:docname="luxus-gourmet.svg"><metadata
     id="metadata8"><rdf:RDF><cc:Work
         rdf:about=""><dc:format>image/svg+xml</dc:format><dc:type
           rdf:resource="http://purl.org/dc/dcmitype/StillImage" /><dc:title></dc:title></cc:Work></rdf:RDF></metadata><defs
     id="defs6"><clipPath
       clipPathUnits="userSpaceOnUse"
       id="clipPath16"><path
         d="M 0,100 100,100 100,0 0,0 0,100 Z"
         id="path18"
         inkscape:connector-curvature="0" /></clipPath></defs><sodipodi:namedview
     pagecolor="#ffffff"
     bordercolor="#666666"
     borderopacity="1"
     objecttolerance="10"
     gridtolerance="10"
     guidetolerance="10"
     inkscape:pageopacity="0"
     inkscape:pageshadow="2"
     inkscape:window-width="735"
     inkscape:window-height="480"
     id="namedview4"
     showgrid="false"
     inkscape:zoom="1.888"
     inkscape:cx="62.5"
     inkscape:cy="62.5"
     inkscape:window-x="0"
     inkscape:window-y="23"
     inkscape:window-maximized="0"
     inkscape:current-layer="g10" /><g
     id="g10"
     inkscape:groupmode="layer"
     inkscape:label="icons_themen"
     transform="matrix(1.25,0,0,-1.25,0,125)"><g
       id="g12"><g
         id="g14"
         clip-path="url(#clipPath16)"><g
           id="g20"
           transform="translate(65.4976,43.4546)"><path
             d="m 0,0 c -1.378,2.725 -2.264,5.111 -2.688,8.134 -0.383,2.727 -0.506,3.23 -0.5,5.98 l 8.494,-0.14 c 0.061,1.289 0.084,2.58 0.079,3.869 -0.007,1.671 -0.072,3.761 -0.118,5.431 l -9.847,0.08 c -0.073,-1.665 -0.172,-3.751 -0.206,-5.418 -0.064,-3.141 0.041,-6.29 0.454,-9.406 0.396,-2.999 1.44,-5.574 2.639,-8.302 0.777,-1.769 1.182,-2.158 1.82,-1.881 0,0 0.606,0.205 -0.127,1.653 m 6.718,24.755 -12.732,0.104 c 0,0 -0.063,-2.31 -0.104,-3.169 -0.061,-1.241 -0.114,-2.482 -0.139,-3.724 -0.066,-3.216 0.044,-6.439 0.466,-9.629 0.638,-4.816 2.757,-8.076 4.294,-12.446 0.215,-0.61 0.406,-1.23 0.561,-1.859 0.512,-2.082 0.354,-17.081 -0.226,-18.611 -0.681,-1.796 -4.82,-0.286 -4.839,-2.498 l -10e-4,-0.138 11.862,-0.097 10e-4,0.138 c 0.018,2.189 -4.15,0.769 -4.798,2.58 -0.554,1.552 -0.464,16.53 0.084,18.608 0.167,0.636 0.372,1.26 0.601,1.876 1.612,4.336 3.772,7.552 4.487,12.348 0.474,3.18 0.634,6.399 0.621,9.611 -0.006,1.246 -0.038,2.489 -0.078,3.733 -0.028,0.86 -0.06,3.173 -0.06,3.173"
             style="fill:#000000;fill-opacity:1;fill-rule:evenodd;stroke:none"
             id="path22"
             inkscape:connector-curvature="0" /></g><g
           id="g24"
           transform="translate(50.7399,16.8276)"><path
             d="m 0,0 -20.166,0 c -0.295,0.005 -1.257,0.111 -1.257,1.25 0,0.533 -0.012,2.398 -0.03,4.835 l 1.924,0 c 0,0 3.819,-4.342 9.448,-4.342 5.628,0 9.247,4.382 9.247,4.382 l 2.114,0 C 1.262,3.668 1.25,1.786 1.25,1.25 1.25,0.111 0.288,0.005 0,0 m -17.194,36.239 c 0.299,0.411 0.572,0.82 0.831,1.226 0.676,-0.256 2.43,-0.718 6.309,-0.718 4.117,0 5.653,0.6 6.146,0.879 0.287,-0.46 0.591,-0.922 0.93,-1.388 4.231,-5.794 4.398,-12.449 4.399,-12.497 0,-0.033 -0.005,-0.604 -0.013,-1.534 l -2.363,0 c 0,0 -2.653,4.181 -9.126,4.262 -6.473,0.08 -9.73,-4.302 -9.73,-4.302 l -1.77,0.034 c -0.008,0.932 -0.012,1.503 -0.013,1.535 0,0.065 0.037,6.512 4.4,12.503 m 3.165,28.783 0.091,0 c 0.415,0 0.75,0.336 0.75,0.75 l 0,0.573 6.183,0 0,-0.573 c 0,-0.414 0.336,-0.75 0.75,-0.75 l 0.091,0 0,-2.987 -0.211,0 c -0.413,0 -0.748,-0.334 -0.75,-0.747 l -0.005,-1.061 -5.931,0 -0.006,1.062 c -0.003,0.413 -0.338,0.746 -0.75,0.746 l -0.212,0 0,2.987 z M -1.767,37.123 c -4.076,5.581 -3.92,11.052 -3.917,11.133 l 0.056,12.279 0.214,0 c 0.414,0 0.75,0.336 0.75,0.75 l 0,4.487 c 0,0.415 -0.336,0.75 -0.75,0.75 l -0.091,0 0,0.573 c 0,0.414 -0.336,0.75 -0.75,0.75 l -7.683,0 c -0.414,0 -0.75,-0.336 -0.75,-0.75 l 0,-0.573 -0.091,0 c -0.414,0 -0.75,-0.335 -0.75,-0.75 l 0,-4.487 c 0,-0.414 0.336,-0.75 0.75,-0.75 l 0.216,0 0.074,-12.306 c 0.002,-0.054 0.169,-5.495 -3.918,-11.107 -4.648,-6.383 -4.688,-13.105 -4.687,-13.393 0.002,-0.205 0.171,-20.504 0.171,-22.479 0,-2.018 1.645,-2.75 2.75,-2.75 L 0,-1.5 c 1.105,0 2.75,0.732 2.75,2.75 0,1.975 0.169,22.274 0.171,22.497 -0.005,0.29 -0.166,7.184 -4.688,13.376"
             style="fill:#000000;fill-opacity:1;fill-rule:nonzero;stroke:none"
             id="path26"
             inkscape:connector-curvature="0" /></g></g></g></g></svg>