<?xml version="1.0" encoding="UTF-8" standalone="no"?>
<!-- Created with Inkscape (http://www.inkscape.org/) -->

<svg
   xmlns:dc="http://purl.org/dc/elements/1.1/"
   xmlns:cc="http://creativecommons.org/ns#"
   xmlns:rdf="http://www.w3.org/1999/02/22-rdf-syntax-ns#"
   xmlns:svg="http://www.w3.org/2000/svg"
   xmlns="http://www.w3.org/2000/svg"
   xmlns:sodipodi="http://sodipodi.sourceforge.net/DTD/sodipodi-0.dtd"
   xmlns:inkscape="http://www.inkscape.org/namespaces/inkscape"
   id="svg2"
   version="1.1"
   inkscape:version="0.91 r13725"
   xml:space="preserve"
   width="76.767502"
   height="53.740002"
   viewBox="0 0 76.767501 53.740001"
   sodipodi:docname="icon-newsletter.svg"><metadata
     id="metadata8"><rdf:RDF><cc:Work
         rdf:about=""><dc:format>image/svg+xml</dc:format><dc:type
           rdf:resource="http://purl.org/dc/dcmitype/StillImage" /><dc:title></dc:title></cc:Work></rdf:RDF></metadata><defs
     id="defs6"><clipPath
       clipPathUnits="userSpaceOnUse"
       id="clipPath18"><path
         d="m 0,1417.32 1417.32,0 L 1417.32,0 0,0 0,1417.32 Z"
         id="path20"
         inkscape:connector-curvature="0" /></clipPath></defs><sodipodi:namedview
     pagecolor="#ffffff"
     bordercolor="#666666"
     borderopacity="1"
     objecttolerance="10"
     gridtolerance="10"
     guidetolerance="10"
     inkscape:pageopacity="0"
     inkscape:pageshadow="2"
     inkscape:window-width="735"
     inkscape:window-height="480"
     id="namedview4"
     showgrid="false"
     fit-margin-top="0"
     fit-margin-left="0"
     fit-margin-right="0"
     fit-margin-bottom="0"
     inkscape:zoom="0.13320915"
     inkscape:cx="38.384262"
     inkscape:cy="26.869488"
     inkscape:window-x="1195"
     inkscape:window-y="274"
     inkscape:window-maximized="0"
     inkscape:current-layer="g10" /><g
     id="g10"
     inkscape:groupmode="layer"
     inkscape:label="Newsletter_icon"
     transform="matrix(1.25,0,0,-1.25,-847.44075,912.6955)"><g
       id="g14"><g
         id="g16"
         clip-path="url(#clipPath18)"><g
           id="g22"
           transform="translate(682.8047,727.6074)"><path
             d="m 0,0 22.121,-17.515 c 1,-0.792 2.391,-1.149 3.731,-1.079 1.332,-0.07 2.716,0.278 3.722,1.079 L 51.703,0 c 1.76,1.398 1.363,2.549 -0.887,2.549 l -24.961,0 -24.976,0 C -1.367,2.549 -1.768,1.398 0,0"
             style="fill:#ffffff;fill-opacity:1;fill-rule:nonzero;stroke:none"
             id="path24"
             inkscape:connector-curvature="0" /></g><g
           id="g26"
           transform="translate(736.0956,722.9854)"><path
             d="m 0,0 -24.168,-18.354 c -0.908,-0.677 -2.094,-1.004 -3.267,-0.994 -1.18,-0.01 -2.372,0.317 -3.268,0.994 L -54.887,0 c -1.795,1.369 -3.256,0.636 -3.256,-1.617 l 0,-30.107 c 0,-2.259 1.838,-4.097 4.094,-4.097 l 26.61,0 26.609,0 c 2.252,0 4.101,1.838 4.101,4.097 l 0,30.107 C 3.271,0.636 1.793,1.369 0,0"
             style="fill:#ffffff;fill-opacity:1;fill-rule:nonzero;stroke:none"
             id="path28"
             inkscape:connector-curvature="0" /></g></g></g></g></svg>