<svg  xmlns="http://www.w3.org/2000/svg"  x="0px" y="0px"
	 viewBox="0 0 24.6 24.6" >
<g>
	<path class="st0" d="M17.2,9.8l-4.9-2.5c0,0-4.9,2.5-4.9,2.5l-0.7,0.4l-0.4,0.2c-0.1,0-0.2,0.1-0.3,0.1c-0.2,0-0.4-0.1-0.5-0.3
		c-0.1-0.3,0-0.6,0.3-0.8c0,0,6-3.1,6.2-3.2c0.2-0.1,0.4-0.1,0.5,0l6.2,3.2c0.3,0.1,0.4,0.5,0.3,0.8c-0.1,0.3-0.5,0.4-0.8,0.3
		l-0.4-0.2L17.2,9.8z"/>
	<path class="st0" d="M18.6,13.3c-0.1-0.3-0.4-0.5-0.7-0.4l0,0l0,0l0,0c-0.2,0-0.3,0.2-0.4,0.3c-0.2,0.4-0.5,0.7-0.9,0.8
		c-0.2,0.1-0.4,0.1-0.6,0.1c-0.2,0-0.4-0.1-0.6-0.1c-0.3-0.1-0.5-0.4-0.6-0.7c-0.1-0.3-0.4-0.5-0.7-0.4l0,0l0,0l0,0
		c-0.2,0-0.3,0.2-0.4,0.3c-0.2,0.4-0.5,0.7-0.9,0.8c-0.2,0.1-0.4,0.1-0.6,0.1c-0.2,0-0.4-0.1-0.6-0.1c-0.3-0.1-0.5-0.4-0.6-0.7
		c-0.1-0.3-0.4-0.5-0.7-0.4l0,0l0,0l0,0c-0.2,0-0.3,0.2-0.4,0.3c-0.2,0.4-0.5,0.7-0.9,0.8c-0.2,0.1-0.4,0.1-0.6,0.1
		c-0.2,0-0.4-0.1-0.6-0.1c-0.3-0.1-0.5-0.4-0.6-0.7l0,0C7.1,13,6.8,12.9,6.4,13c-0.3,0.1-0.5,0.5-0.4,0.8c0.2,0.7,0.7,1.1,1.2,1.4
		c0.3,0.2,0.7,0.2,1.1,0.3c0.4,0,0.7,0,1.1-0.2c0.3-0.1,0.7-0.3,1-0.6c0.2,0.2,0.4,0.4,0.7,0.5c0.3,0.2,0.7,0.2,1.1,0.3
		c0.4,0,0.7,0,1.1-0.2c0.3-0.1,0.7-0.3,1-0.6c0.2,0.2,0.4,0.4,0.7,0.5c0.3,0.2,0.7,0.2,1.1,0.3c0.4,0,0.7,0,1.1-0.2
		c0.3-0.1,0.7-0.3,1-0.6C17.9,14.6,18.7,13.8,18.6,13.3z"/>
	<path class="st0" d="M17.9,17.8c-0.3,0.2-0.6,0.5-1,0.6c-0.3,0.1-0.7,0.2-1.1,0.2c-0.4,0-0.7-0.1-1.1-0.3c-0.3-0.1-0.5-0.3-0.7-0.5
		c-0.3,0.3-0.6,0.5-1,0.6c-0.3,0.1-0.7,0.2-1.1,0.2c-0.4,0-0.7-0.1-1.1-0.3c-0.3-0.1-0.5-0.3-0.7-0.5c-0.3,0.3-0.6,0.5-1,0.6
		c-0.3,0.1-0.7,0.2-1.1,0.2c-0.4,0-0.7-0.1-1.1-0.3c-0.5-0.3-1-0.7-1.2-1.4c-0.1-0.3,0-0.7,0.4-0.8c0.3-0.1,0.7,0,0.8,0.4l0,0
		c0.1,0.3,0.3,0.6,0.6,0.7c0.2,0.1,0.4,0.1,0.6,0.1c0.2,0,0.4,0,0.6-0.1c0.4-0.1,0.7-0.4,0.9-0.8c0.1-0.2,0.2-0.3,0.4-0.3l0,0l0,0
		l0,0c0.3-0.1,0.6,0.1,0.7,0.4c0.1,0.3,0.3,0.6,0.6,0.7c0.2,0.1,0.4,0.1,0.6,0.1c0.2,0,0.4,0,0.6-0.1c0.4-0.1,0.7-0.4,0.9-0.8
		c0.1-0.2,0.2-0.3,0.4-0.3l0,0l0,0l0,0c0.3-0.1,0.6,0.1,0.7,0.4c0.1,0.3,0.3,0.6,0.6,0.7c0.2,0.1,0.4,0.1,0.6,0.1
		c0.2,0,0.4,0,0.6-0.1c0.4-0.1,0.7-0.4,0.9-0.8c0.1-0.2,0.2-0.3,0.4-0.3l0,0l0,0l0,0c0.3-0.1,0.6,0.1,0.7,0.4
		C18.6,16.8,18.4,17.4,17.9,17.8z"/>
</g>
</svg>
