<?xml version="1.0" encoding="UTF-8" standalone="no"?>
<!-- Created with Inkscape (http://www.inkscape.org/) -->

<svg
   xmlns:dc="http://purl.org/dc/elements/1.1/"
   xmlns:cc="http://creativecommons.org/ns#"
   xmlns:rdf="http://www.w3.org/1999/02/22-rdf-syntax-ns#"
   xmlns:svg="http://www.w3.org/2000/svg"
   xmlns="http://www.w3.org/2000/svg"
   xmlns:sodipodi="http://sodipodi.sourceforge.net/DTD/sodipodi-0.dtd"
   xmlns:inkscape="http://www.inkscape.org/namespaces/inkscape"
   id="svg2"
   version="1.1"
   inkscape:version="0.91 r13725"
   xml:space="preserve"
   width="125"
   height="125"
   viewBox="0 0 125 125"
   sodipodi:docname="staedte-hotspots.svg"><metadata
     id="metadata8"><rdf:RDF><cc:Work
         rdf:about=""><dc:format>image/svg+xml</dc:format><dc:type
           rdf:resource="http://purl.org/dc/dcmitype/StillImage" /><dc:title></dc:title></cc:Work></rdf:RDF></metadata><defs
     id="defs6"><clipPath
       clipPathUnits="userSpaceOnUse"
       id="clipPath16"><path
         d="M 0,100 100,100 100,0 0,0 0,100 Z"
         id="path18"
         inkscape:connector-curvature="0" /></clipPath></defs><sodipodi:namedview
     pagecolor="#ffffff"
     bordercolor="#666666"
     borderopacity="1"
     objecttolerance="10"
     gridtolerance="10"
     guidetolerance="10"
     inkscape:pageopacity="0"
     inkscape:pageshadow="2"
     inkscape:window-width="735"
     inkscape:window-height="480"
     id="namedview4"
     showgrid="false"
     inkscape:zoom="1.888"
     inkscape:cx="62.5"
     inkscape:cy="62.5"
     inkscape:window-x="0"
     inkscape:window-y="0"
     inkscape:window-maximized="0"
     inkscape:current-layer="g10" /><g
     id="g10"
     inkscape:groupmode="layer"
     inkscape:label="icons_themen"
     transform="matrix(1.25,0,0,-1.25,0,125)"><g
       id="g12"><g
         id="g14"
         clip-path="url(#clipPath16)"><g
           id="g20"
           transform="translate(47.9079,38.203)"><path
             d="m 0,0 c 0.164,0.906 0.31,1.814 0.449,2.72 l -3.936,0 C -3.581,2.277 -3.675,1.834 -3.775,1.391 c -0.759,-3.394 -1.633,-6.51 -2.56,-9.355 l 4.712,0 C -1.065,-5.515 -0.517,-2.863 0,0"
             style="fill:#000000;fill-opacity:1;fill-rule:nonzero;stroke:none"
             id="path22"
             inkscape:connector-curvature="0" /></g><g
           id="g24"
           transform="translate(51.5273,40.9232)"><path
             d="m 0,0 c 0.14,-0.907 0.287,-1.814 0.454,-2.721 0.521,-2.858 1.074,-5.511 1.638,-7.963 l 4.696,0 C 5.861,-7.839 4.988,-4.725 4.229,-1.329 4.13,-0.886 4.034,-0.443 3.942,0 L 0,0 Z"
             style="fill:#000000;fill-opacity:1;fill-rule:nonzero;stroke:none"
             id="path26"
             inkscape:connector-curvature="0" /></g><g
           id="g28"
           transform="translate(49.9383,66.0422)"><path
             d="m 0,0 0,0 c 0.014,-5.101 0.118,-12.148 0.929,-19.605 l 3.632,0 C 2.025,-4.998 2.014,8.228 2.049,11.191 l -4.086,0 C -2.003,8.228 -2.013,-4.998 -4.55,-19.605 l 3.624,0 C -0.117,-12.146 -0.015,-5.102 0,0"
             style="fill:#000000;fill-opacity:1;fill-rule:nonzero;stroke:none"
             id="path30"
             inkscape:connector-curvature="0" /></g><g
           id="g32"
           transform="translate(44.7206,42.4232)"><path
             d="m 0,0 10.445,0 c 0.173,0 0.316,0.141 0.316,0.314 l 0,1.886 c 0,0.173 -0.143,0.314 -0.316,0.314 L 0,2.514 c -0.173,0 -0.315,-0.141 -0.315,-0.314 l 0,-1.886 C -0.315,0.141 -0.173,0 0,0"
             style="fill:#000000;fill-opacity:1;fill-rule:nonzero;stroke:none"
             id="path34"
             inkscape:connector-curvature="0" /></g><g
           id="g36"
           transform="translate(47.9695,78.7336)"><path
             d="m 0,0 3.95,0 c 0.173,0 0.314,0.141 0.314,0.314 l 0,1.18 c 0,0.173 -0.032,0.452 -0.072,0.62 L 3.757,3.465 C 3.716,3.633 3.543,3.771 3.369,3.771 l -0.77,0 C 2.592,3.897 2.55,4.795 2.536,5.028 2.423,7.236 2.185,13.611 1.974,13.611 1.764,13.611 1.526,7.236 1.412,5.028 1.399,4.795 1.356,3.897 1.35,3.771 l -0.77,0 C 0.407,3.771 0.232,3.633 0.192,3.465 L -0.242,2.114 C -0.282,1.944 -0.315,1.667 -0.315,1.495 l 0,-1.181 C -0.315,0.141 -0.173,0 0,0"
             style="fill:#000000;fill-opacity:1;fill-rule:nonzero;stroke:none"
             id="path38"
             inkscape:connector-curvature="0" /></g><g
           id="g40"
           transform="translate(61.6741,20.9539)"><path
             d="m 0,0 -23.462,0 c -3.672,-8.296 -7.123,-12.57 -7.123,-12.57 l 7.779,0 c 0,0 2.316,10.327 11.079,10.327 8.763,0 11.072,-10.327 11.072,-10.327 l 7.78,0 c 0,0 -3.451,4.274 -7.125,12.57"
             style="fill:#000000;fill-opacity:1;fill-rule:nonzero;stroke:none"
             id="path42"
             inkscape:connector-curvature="0" /></g><g
           id="g44"
           transform="translate(59.3399,26.8533)"><path
             d="m 0,0 c -0.001,0 -0.001,1.571 -0.001,1.571 0,0.173 -0.142,0.314 -0.315,0.314 l -18.161,0 c -0.173,0 -0.315,-0.141 -0.315,-0.314 l 0,-1.571 -1.727,-4.399 22.211,0 L 0,0 Z"
             style="fill:#000000;fill-opacity:1;fill-rule:nonzero;stroke:none"
             id="path46"
             inkscape:connector-curvature="0" /></g></g></g></g></svg>