<?xml version="1.0" encoding="UTF-8" standalone="no"?>
<!-- Created with Inkscape (http://www.inkscape.org/) -->

<svg
   xmlns:dc="http://purl.org/dc/elements/1.1/"
   xmlns:cc="http://creativecommons.org/ns#"
   xmlns:rdf="http://www.w3.org/1999/02/22-rdf-syntax-ns#"
   xmlns:svg="http://www.w3.org/2000/svg"
   xmlns="http://www.w3.org/2000/svg"
   xmlns:sodipodi="http://sodipodi.sourceforge.net/DTD/sodipodi-0.dtd"
   xmlns:inkscape="http://www.inkscape.org/namespaces/inkscape"
   id="svg2"
   version="1.1"
   inkscape:version="0.91 r13725"
   xml:space="preserve"
   width="125"
   height="125"
   viewBox="0 0 125 125"
   sodipodi:docname="kinder-familie.svg"><metadata
     id="metadata8"><rdf:RDF><cc:Work
         rdf:about=""><dc:format>image/svg+xml</dc:format><dc:type
           rdf:resource="http://purl.org/dc/dcmitype/StillImage" /><dc:title></dc:title></cc:Work></rdf:RDF></metadata><defs
     id="defs6"><clipPath
       clipPathUnits="userSpaceOnUse"
       id="clipPath16"><path
         d="M 0,100 100,100 100,0 0,0 0,100 Z"
         id="path18"
         inkscape:connector-curvature="0" /></clipPath></defs><sodipodi:namedview
     pagecolor="#ffffff"
     bordercolor="#666666"
     borderopacity="1"
     objecttolerance="10"
     gridtolerance="10"
     guidetolerance="10"
     inkscape:pageopacity="0"
     inkscape:pageshadow="2"
     inkscape:window-width="735"
     inkscape:window-height="480"
     id="namedview4"
     showgrid="false"
     inkscape:zoom="1.888"
     inkscape:cx="62.5"
     inkscape:cy="62.5"
     inkscape:window-x="0"
     inkscape:window-y="0"
     inkscape:window-maximized="0"
     inkscape:current-layer="g10" /><g
     id="g10"
     inkscape:groupmode="layer"
     inkscape:label="icons_themen"
     transform="matrix(1.25,0,0,-1.25,0,125)"><g
       id="g12"><g
         id="g14"
         clip-path="url(#clipPath16)"><g
           id="g20"
           transform="translate(84.2188,47.4559)"><path
             d="m 0,0 -2.147,13.771 -0.884,5.669 c -0.12,0.781 -1.197,1.828 -2.137,1.828 l -3.191,0 -0.997,0 -0.735,0 c -0.079,0.053 -0.135,0.11 -0.185,0.169 -0.098,0.12 -0.154,0.248 -0.233,0.376 0.013,0 -0.142,0.333 -0.247,0.555 -0.031,0.068 -0.059,0.125 -0.075,0.16 l 0.303,0.224 0.188,0.153 c 0.241,0.215 0.473,0.456 0.694,0.713 0.304,0.352 0.576,0.746 0.825,1.162 0.296,0.494 0.564,1.015 0.766,1.568 0.601,0.047 1.063,0.703 1.063,1.531 0,0.23 -0.04,0.457 -0.114,0.663 0.177,0.353 0.193,0.991 0.051,2.03 -0.646,4.77 -2.357,6.461 -6.534,6.461 -3.715,0 -5.725,-2.054 -6.324,-6.461 -0.139,-1.03 -0.123,-1.664 0.058,-2.022 -0.076,-0.207 -0.116,-0.438 -0.116,-0.671 0,-0.823 0.459,-1.476 1.06,-1.53 0.202,-0.554 0.47,-1.076 0.768,-1.571 0.248,-0.417 0.52,-0.811 0.825,-1.163 0.221,-0.257 0.45,-0.495 0.692,-0.709 l 0.202,-0.165 0.289,-0.213 c -0.016,-0.035 -0.042,-0.091 -0.074,-0.156 -0.103,-0.223 -0.261,-0.559 -0.247,-0.559 -0.08,-0.128 -0.135,-0.256 -0.233,-0.375 -0.049,-0.06 -0.105,-0.117 -0.184,-0.17 l -0.734,0 -0.999,0 -3.191,0 c -0.939,0 -2.017,-1.047 -2.134,-1.828 l -0.887,-5.669 -0.806,-5.177 c 0,0 1.57,-0.634 2.242,-1.634 0.59,-0.878 1.106,-2.545 1.172,-2.922 l 1.032,6.793 0,-12.954 c 0.879,-0.417 1.554,-1.284 1.677,-2.088 l 1.992,-12.772 c 0.109,-0.708 -0.138,-1.419 -0.678,-1.952 -0.419,-0.418 -0.999,-0.703 -1.63,-0.797 -0.068,-0.01 -0.135,-0.009 -0.203,-0.016 l 0,-13.504 c 0,-1.134 1.36,-2.506 3.031,-2.506 1.674,0 3.035,1.372 3.035,2.506 l 0,27.834 1.149,0 0,-27.834 c 0,-1.134 1.362,-2.506 3.033,-2.506 1.674,0 3.035,1.372 3.035,2.506 l 0,27.865 0.1,0.009 0,0.058 c 0.461,0.105 0.853,0.417 0.853,1.417 l 0,14.723 1.734,-11.433 c 0.114,-0.742 0.871,-1.259 1.84,-1.259 0.137,0 0.279,0.011 0.421,0.032 0.527,0.08 1.004,0.308 1.34,0.643 C -0.095,-0.846 0.065,-0.421 0,0"
             style="fill:#000000;fill-opacity:1;fill-rule:nonzero;stroke:none"
             id="path22"
             inkscape:connector-curvature="0" /></g><g
           id="g24"
           transform="translate(63.9674,39.3156)"><path
             d="m 0,0 -0.579,3.725 c -0.08,0.514 -0.788,1.202 -1.406,1.202 l -2.095,0 -0.656,0 -0.485,0 c -0.051,0.035 -0.088,0.071 -0.119,0.11 -0.066,0.079 -0.102,0.163 -0.153,0.247 0,0 -0.093,0.219 -0.163,0.365 -0.021,0.045 -0.039,0.082 -0.05,0.106 l 0.199,0.146 0.123,0.102 c 0.16,0.14 0.313,0.299 0.457,0.467 0.199,0.232 0.379,0.492 0.543,0.764 0.193,0.325 0.369,0.667 0.501,1.031 0.396,0.031 0.701,0.462 0.701,1.006 0,0.15 -0.026,0.301 -0.076,0.436 0.117,0.232 0.127,0.651 0.034,1.333 -0.046,0.335 -0.104,0.635 -0.167,0.926 0.046,-0.023 -0.247,1.808 -1.406,2.652 -0.896,0.489 -0.997,0.475 -2.063,0.641 -0.179,0.019 -0.529,0.04 -0.737,0.04 -1.978,0 -3.011,-1.357 -3.032,-1.386 -0.306,-0.349 -0.412,-0.514 -0.589,-1.034 -0.208,-0.524 -0.361,-1.134 -0.458,-1.839 -0.09,-0.676 -0.079,-1.093 0.039,-1.328 -0.05,-0.136 -0.075,-0.287 -0.075,-0.441 0,-0.54 0.301,-0.97 0.697,-1.006 0.131,-0.364 0.307,-0.706 0.503,-1.032 0.165,-0.275 0.343,-0.533 0.541,-0.764 0.146,-0.169 0.297,-0.326 0.456,-0.466 l 0.132,-0.109 0.19,-0.139 C -9.203,5.731 -9.219,5.694 -9.24,5.65 -9.309,5.505 -9.412,5.284 -9.403,5.284 -9.455,5.2 -9.492,5.116 -9.556,5.039 -9.59,4.998 -9.625,4.962 -9.677,4.927 l -0.483,0 -0.656,0 -4.694,1.457 -1.888,0.934 -4.281,19.598 c -0.12,0.789 -1.21,1.847 -2.16,1.847 l -3.631,0 c -0.158,0.177 -0.303,0.358 -0.422,0.551 4.575,0.159 7.387,1.92 7.205,4.289 -0.012,0.185 -2.243,-1.392 -3.048,4.186 -0.635,4.4 -2.312,6.594 -6.807,6.727 l 0,0.004 c -0.012,-0.001 -0.023,-0.002 -0.036,-0.003 -0.012,10e-4 -0.023,0.002 -0.036,0.003 l 0,-0.004 c -4.494,-0.133 -6.171,-2.327 -6.807,-6.727 -0.805,-5.578 -3.035,-4.001 -3.048,-4.186 -0.181,-2.369 2.631,-4.13 7.206,-4.289 -0.119,-0.193 -0.265,-0.374 -0.422,-0.551 l -3.631,0 c -0.95,0 -2.04,-1.058 -2.16,-1.847 L -43.944,7.372 c -0.064,-0.425 0.097,-0.854 0.453,-1.21 0.341,-0.338 0.822,-0.57 1.357,-0.65 0.144,-0.021 0.286,-0.033 0.424,-0.033 0.98,0 1.745,0.523 1.859,1.273 l 3.563,14.115 c 0.261,-0.751 0.587,-1.526 0.822,-1.857 l -0.029,-0.657 -5.289,-23.429 4.756,0 0,-20.484 c 0,-1.134 1.123,-2.057 2.506,-2.057 1.382,0 2.507,0.923 2.507,2.057 l 0,20.484 1.104,-0.024 0,-20.46 c 0,-1.134 1.125,-2.057 2.508,-2.057 1.382,0 2.507,0.923 2.507,2.057 l 0,20.484 4.526,0 -5.237,23.429 -0.027,0.657 c 0.223,0.314 0.53,1.03 0.784,1.744 l 3.32,-13.779 c -0.158,-0.649 -0.041,-1.218 0.314,-1.46 0.291,-0.506 0.925,-0.837 1.7,-0.837 0.003,0 2.181,-1.028 2.181,-1.028 l 4.773,-2.396 0.056,-12.871 c 0,-0.443 0.177,-0.738 0.53,-0.876 l 0.23,-0.095 0,-13.382 c 0,-0.747 0.894,-1.647 1.994,-1.647 1.099,0 1.993,0.9 1.993,1.647 l 0,13.358 0.619,0 0,-13.358 c 0,-0.747 0.895,-1.647 1.994,-1.647 1.098,0 1.995,0.9 1.995,1.647 l 0,13.378 0.063,0.006 0,0.039 c 0.305,0.069 0.698,0.273 0.698,0.93 l 0,9.676 1.142,-7.514 c 0.073,-0.487 0.572,-0.827 1.209,-0.827 0.09,0 0.182,0.007 0.276,0.021 0.347,0.052 0.66,0.203 0.881,0.423 0.233,0.231 0.337,0.51 0.294,0.786 L 0,0 Z"
             style="fill:#000000;fill-opacity:1;fill-rule:nonzero;stroke:none"
             id="path26"
             inkscape:connector-curvature="0" /></g><g
           id="g28"
           transform="translate(93.8986,42.7451)"><path
             d="m 0,0 c 0.104,-0.004 0.209,-0.013 0.315,-0.013 0.021,0 0.041,0.002 0.061,0.002"
             style="fill:#000000;fill-opacity:1;fill-rule:nonzero;stroke:none"
             id="path30"
             inkscape:connector-curvature="0" /></g><g
           id="g32"
           transform="translate(24.0109,84.9127)"><path
             d="m 0,0 c 0.029,-0.001 0.059,-0.004 0.088,-0.004 0.006,0 0.012,0.001 0.018,0.001"
             style="fill:#000000;fill-opacity:1;fill-rule:nonzero;stroke:none"
             id="path34"
             inkscape:connector-curvature="0" /></g><g
           id="g36"
           transform="translate(15.767,88.3017)"><path
             d="m 0,0 c 0.016,-0.001 0.032,-0.002 0.048,-0.002 0.003,0 0.006,0 0.009,0"
             style="fill:#000000;fill-opacity:1;fill-rule:nonzero;stroke:none"
             id="path38"
             inkscape:connector-curvature="0" /></g></g></g></g></svg>