<?xml version="1.0" encoding="UTF-8" standalone="no"?>
<!-- Created with Inkscape (http://www.inkscape.org/) -->

<svg
   xmlns:dc="http://purl.org/dc/elements/1.1/"
   xmlns:cc="http://creativecommons.org/ns#"
   xmlns:rdf="http://www.w3.org/1999/02/22-rdf-syntax-ns#"
   xmlns:svg="http://www.w3.org/2000/svg"
   xmlns="http://www.w3.org/2000/svg"
   xmlns:sodipodi="http://sodipodi.sourceforge.net/DTD/sodipodi-0.dtd"
   xmlns:inkscape="http://www.inkscape.org/namespaces/inkscape"
   id="svg2"
   version="1.1"
   inkscape:version="0.91 r13725"
   xml:space="preserve"
   width="125"
   height="125"
   viewBox="0 0 125 125"
   sodipodi:docname="wellness-spa.svg"><metadata
     id="metadata8"><rdf:RDF><cc:Work
         rdf:about=""><dc:format>image/svg+xml</dc:format><dc:type
           rdf:resource="http://purl.org/dc/dcmitype/StillImage" /><dc:title></dc:title></cc:Work></rdf:RDF></metadata><defs
     id="defs6"><clipPath
       clipPathUnits="userSpaceOnUse"
       id="clipPath16"><path
         d="M 0,100 100,100 100,0 0,0 0,100 Z"
         id="path18"
         inkscape:connector-curvature="0" /></clipPath></defs><sodipodi:namedview
     pagecolor="#ffffff"
     bordercolor="#666666"
     borderopacity="1"
     objecttolerance="10"
     gridtolerance="10"
     guidetolerance="10"
     inkscape:pageopacity="0"
     inkscape:pageshadow="2"
     inkscape:window-width="735"
     inkscape:window-height="480"
     id="namedview4"
     showgrid="false"
     inkscape:zoom="1.888"
     inkscape:cx="62.5"
     inkscape:cy="62.5"
     inkscape:window-x="0"
     inkscape:window-y="23"
     inkscape:window-maximized="0"
     inkscape:current-layer="g10" /><g
     id="g10"
     inkscape:groupmode="layer"
     inkscape:label="icons_themen"
     transform="matrix(1.25,0,0,-1.25,0,125)"><g
       id="g12"><g
         id="g14"
         clip-path="url(#clipPath16)"><g
           id="g20"
           transform="translate(63.6937,32.3279)"><path
             d="M 0,0 C 0.058,0.113 0.124,0.224 0.198,0.333 0.509,0.902 0.72,1.525 0.823,2.171 1.055,3.615 0.756,5.178 -0.129,6.516 l 0,0.001 0.002,10e-4 -0.006,0.009 c -0.012,0.019 -0.025,0.037 -0.039,0.054 -1.15,1.703 -2.826,2.79 -4.614,3.171 -1.793,0.384 -3.699,0.056 -5.292,-1.073 l -0.008,-0.006 0,0 -10e-4,0 -0.007,-0.006 -0.012,-0.009 c -1.573,-1.127 -2.542,-2.832 -2.839,-4.68 -0.3,-1.869 0.085,-3.89 1.229,-5.618 l 0,0 -0.002,-0.002 0.008,-0.011 c 0.012,-0.018 0.025,-0.036 0.038,-0.053 1.408,-2.092 3.464,-3.427 5.658,-3.896 2.199,-0.47 4.536,-0.068 6.491,1.318 l 0.003,0.002 0.001,-0.001 0.01,0.006 c 0.291,0.21 0.336,0.641 0.099,0.963 -0.237,0.322 -0.665,0.412 -0.957,0.203 l -0.009,-0.007 0.001,-0.002 c -1.661,-1.176 -3.64,-1.519 -5.496,-1.123 -1.827,0.391 -3.538,1.501 -4.709,3.239 -0.009,0.016 -0.02,0.033 -0.031,0.049 l -0.007,0.012 -0.002,-0.002 c -0.921,1.393 -1.23,3.034 -0.985,4.56 0.247,1.534 1.051,2.949 2.356,3.883 l 0.022,0.015 0.008,0.006 0,0 c 1.298,0.917 2.842,1.184 4.29,0.874 1.422,-0.304 2.753,-1.166 3.666,-2.515 0.009,-0.016 0.019,-0.033 0.03,-0.049 L -1.227,5.82 -1.225,5.821 C -0.562,4.819 -0.34,3.635 -0.517,2.533 -0.694,1.432 -1.269,0.414 -2.2,-0.262 -2.213,-0.269 -2.226,-0.278 -2.238,-0.287 l -0.006,-0.005 0,-0.001 c -0.937,-0.662 -2.05,-0.855 -3.095,-0.632 -1.024,0.219 -1.983,0.841 -2.638,1.815 l -0.013,0.021 -0.005,0.007 0,0 -0.002,0.002 c -0.405,0.613 -0.54,1.338 -0.432,2.016 0.11,0.678 0.462,1.304 1.031,1.723 0.013,0.008 0.025,0.015 0.037,0.024 l 0.004,0.003 -10e-4,0.001 c 0.575,0.407 1.258,0.526 1.897,0.389 0.613,-0.131 1.188,-0.501 1.585,-1.078 0.01,-0.017 0.02,-0.034 0.032,-0.051 L -3.841,3.943 -3.84,3.944 C -3.699,3.723 -3.654,3.461 -3.693,3.213 -3.734,2.958 -3.864,2.721 -4.075,2.561 L -4.107,2.539 -4.109,2.538 -4.108,2.536 C -4.322,2.386 -4.573,2.342 -4.806,2.392 -5.014,2.436 -5.21,2.559 -5.348,2.748 L -5.366,2.777 -5.368,2.78 C -5.586,3.114 -6.01,3.233 -6.316,3.044 -6.623,2.856 -6.694,2.431 -6.477,2.097 l 0.001,-0.002 c 0.015,-0.022 0.029,-0.043 0.045,-0.063 0.376,-0.535 0.912,-0.877 1.482,-0.999 0.577,-0.123 1.187,-0.019 1.695,0.341 l 0.002,10e-4 0.003,0.002 10e-4,-0.001 0.002,0.001 c 0.012,0.008 0.023,0.018 0.034,0.027 0.475,0.354 0.768,0.879 0.859,1.446 0.096,0.595 -0.03,1.243 -0.399,1.801 L -2.754,4.655 -2.76,4.663 -2.758,4.664 -2.762,4.668 -2.786,4.702 C -3.42,5.632 -4.339,6.226 -5.318,6.435 -6.301,6.645 -7.343,6.467 -8.213,5.85 l -0.004,-0.003 -10e-4,0 L -8.219,5.848 -8.222,5.845 -8.254,5.82 C -9.092,5.208 -9.609,4.291 -9.769,3.299 -9.933,2.28 -9.72,1.176 -9.095,0.228 l 0,0 0.004,-0.008 0.023,-0.032 c 0.892,-1.328 2.196,-2.175 3.586,-2.473 1.388,-0.296 2.862,-0.043 4.093,0.83 l 0.005,0.003 10e-4,-0.001 0.006,0.004 0.032,0.025 C -0.8,-1.029 -0.35,-0.544 0,0 M 8.74,-1.365 C 7.09,-0.071 4.428,2.454 2.022,0.448 0.743,-0.618 1.753,-2.055 2.848,-2.444 3.776,-2.773 4.784,-2.94 5.689,-2.654 6.567,-2.378 8.74,-1.365 8.74,-1.365 M 9.213,-2.338 C 7.482,-3.5 4.446,-5.221 5.591,-8.077 6.209,-9.623 7.9,-9.651 8.608,-8.73 c 0.6,0.781 1.202,2.313 1.21,3.262 0.008,0.92 -0.605,3.13 -0.605,3.13 m 1.236,0.052 c 0.576,-2.024 1.418,-5.235 4.577,-5.023 1.66,0.111 1.972,2.04 1.315,2.998 -0.557,0.812 -1.573,1.382 -2.472,1.683 -0.873,0.292 -3.42,0.342 -3.42,0.342 m 6.477,3.962 C 17.305,3.194 15.825,4.961 14.71,4.631 13.766,4.352 12.995,3.5 12.431,2.738 11.883,1.998 11.238,1.344 10.66,-0.971 c 0.707,-0.094 5.315,-1.019 6.266,2.647 0,0 -0.112,-1.411 0,0 M 9.634,-0.629 C 10.363,1.359 11.756,4.76 9.028,6.476 7.619,7.363 6.562,5.977 6.531,4.815 6.504,3.831 6.742,2.8 7.293,2.028 7.828,1.278 9.634,-0.629 9.634,-0.629 M 5.73,21.298 c 5.28,1.636 10.814,-1.085 12.362,-6.078 0.873,-2.817 0.29,-5.755 -1.332,-8.075 l 0,0 -0.001,-10e-4 C 16.523,6.807 16.095,6.29 15.522,5.648 c 0.708,-0.019 1.27,-0.246 1.684,-0.615 0.386,-0.345 0.637,-0.807 0.753,-1.336 0.392,-1.79 -0.57,-4.259 -2.78,-5.49 0.986,-0.512 1.826,-1.239 2.374,-2.223 0.6,-1.077 0.641,-2.01 0.309,-2.737 -0.215,-0.47 -0.583,-0.847 -1.053,-1.114 -0.454,-0.257 -1.007,-0.413 -1.61,-0.453 -1.349,-0.09 -2.969,0.403 -4.303,1.641 -0.181,-1.096 -0.614,-2.12 -1.379,-2.945 -0.839,-0.904 -1.715,-1.231 -2.509,-1.139 -0.514,0.059 -0.985,0.292 -1.384,0.657 C 5.239,-9.753 4.92,-9.276 4.696,-8.715 4.623,-8.533 4.56,-8.342 4.508,-8.142 4.221,-7.141 4.21,-5.933 4.61,-4.709 2.694,-6.234 0.966,-7.39 -0.202,-7.753 c -6.265,-1.941 -12.832,1.288 -14.668,7.212 -1.842,5.945 1.101,10.347 6.364,13.663 4.746,2.991 13.307,7.887 14.236,8.176"
             style="fill:#000000;fill-opacity:1;fill-rule:evenodd;stroke:none"
             id="path22"
             inkscape:connector-curvature="0" /></g><g
           id="g24"
           transform="translate(60.4822,61.721)"><path
             d="M 0,0 0.042,0 0.585,2.928 C 0.782,3.99 -0.228,4.914 -1.221,4.914 l -5.087,0 C -7.242,3.587 -9.103,1.695 -10.78,0 L 0,0 Z"
             style="fill:#000000;fill-opacity:1;fill-rule:nonzero;stroke:none"
             id="path26"
             inkscape:connector-curvature="0" /></g><g
           id="g28"
           transform="translate(28.8275,74.0512)"><path
             d="m 0,0 c 0.855,0 1.549,-0.553 1.549,-1.548 0,-0.994 -0.694,-1.547 -1.549,-1.547 -0.855,0 -1.549,0.553 -1.549,1.547 C -1.549,-0.553 -0.855,0 0,0 m -10.112,-12.331 0.05,10e-4 22.62,0 c 0.857,1.609 1.791,3.203 2.912,4.914 l -9.652,0 c -4.337,0 -2.351,1.134 -0.943,5.502 0.237,0.736 0.529,1.523 0,2.038 L 0.876,4.013 c -0.529,0.514 -1.223,0.515 -1.752,0 L -4.875,0.124 c -0.529,-0.516 -0.238,-1.299 0,-2.038 1.387,-4.301 3.417,-5.502 -0.958,-5.502 l -3.016,0 c -0.993,0 -2.004,-0.916 -1.805,-1.986 l 0.542,-2.929 z"
             style="fill:#000000;fill-opacity:1;fill-rule:nonzero;stroke:none"
             id="path30"
             inkscape:connector-curvature="0" /></g><g
           id="g32"
           transform="translate(48.2266,60.2212)"><path
             d="m 0,0 c -0.352,-0.363 -0.672,-0.7 -0.944,-1.002 -0.784,-0.87 -1.72,-2.387 -2.674,-4.188 l 15.368,0 c 0.514,0 0.862,0.431 0.939,0.94 l 0.506,3.31 C 13.273,-0.43 12.772,0 12.256,0 L 0,0 Z"
             style="fill:#000000;fill-opacity:1;fill-rule:nonzero;stroke:none"
             id="path34"
             inkscape:connector-curvature="0" /></g><g
           id="g36"
           transform="translate(19.5246,55.0316)"><path
             d="m 0,0 18.643,0 c 0.846,1.873 1.623,3.56 2.442,5.19 l -21.844,0 c -0.517,0 -1.055,-0.436 -0.94,-0.94 L -0.94,0.94 C -0.825,0.436 -0.515,0 0,0"
             style="fill:#000000;fill-opacity:1;fill-rule:nonzero;stroke:none"
             id="path38"
             inkscape:connector-curvature="0" /></g><g
           id="g40"
           transform="translate(53.3534,46.1066)"><path
             d="m 0,0 c 1.378,0.868 3.078,1.897 4.819,2.927 l 0.834,4.498 -15.165,0 c -0.331,-0.669 -0.66,-1.36 -0.981,-2.059 -1.905,-4.145 -3.5,-8.443 -3.669,-9.841 -0.131,-1.089 -0.285,-2.297 -0.528,-3.536 l 8.047,0 C -5.87,-4.795 -3.434,-2.164 0,0"
             style="fill:#000000;fill-opacity:1;fill-rule:nonzero;stroke:none"
             id="path42"
             inkscape:connector-curvature="0" /></g><g
           id="g44"
           transform="translate(23.7542,43.5512)"><path
             d="m 0,0 c 2.309,-0.136 5.1,-0.301 7.881,1.281 0.872,0.496 1.666,1.202 2.401,2.131 0.774,0.978 1.492,2.215 2.173,3.722 0.725,1.601 0.94,2.079 1.165,2.581 l 0.119,0.266 -17.259,0 1.835,-9.902 C -1.148,0.068 -0.586,0.035 0,0"
             style="fill:#000000;fill-opacity:1;fill-rule:nonzero;stroke:none"
             id="path46"
             inkscape:connector-curvature="0" /></g><g
           id="g48"
           transform="translate(27.2951,36.2705)"><path
             d="M 0,0 C -2.564,-0.307 -5.851,0.484 -7.366,2.762 -8.101,3.867 -6.438,4.241 -5.988,4.149 0.068,2.911 4.472,4.731 7.586,6.367 7.812,3.722 5.589,0.67 0,0 M 25.917,31.626 C 28.204,34.651 24.388,37.924 21.4,33.983 15.711,26.454 14.077,22.189 10.279,13.799 8.823,10.581 7.158,8.443 5.079,7.261 -1.43,3.56 -7.359,8.219 -9.377,3.794 -9.194,-7.33 8.373,-11.663 10.409,5.537 c 0.322,2.724 5.357,14.967 8.466,18.414 1.767,1.959 5.761,5.982 7.042,7.675"
             style="fill:#000000;fill-opacity:1;fill-rule:nonzero;stroke:none"
             id="path50"
             inkscape:connector-curvature="0" /></g></g></g></g></svg>