<svg  xmlns="http://www.w3.org/2000/svg"  x="0px" y="0px"
	 viewBox="0 0 20 15.6" >
<path class="st2" d="M11.7,7.8c0-0.4,0.1-0.7,0.2-0.8c-0.1-0.4-0.1-0.7-0.1-1.1c0-0.5,0.1-1,0.4-1.5c0.3-0.5,0.7-0.9,1.1-1.2
	c0.5-0.3,1-0.5,1.5-0.5c0.5,0,1,0.2,1.5,0.5c0.5,0.3,0.9,0.7,1.1,1.2c0.3,0.5,0.4,1,0.4,1.5c0,0.4-0.1,0.8-0.1,1.1
	c0.1,0.2,0.2,0.4,0.2,0.8c0,0.5-0.2,0.9-0.6,1c-0.1,0.4-0.3,0.6-0.4,0.8c-0.1,0.1-0.2,0.2-0.2,0.3c0,0.1-0.1,0.2-0.1,0.3
	c-0.1,0.1-0.1,0.2-0.1,0.3c0,0.4,0.1,0.7,0.3,1c0.2,0.3,0.4,0.6,0.8,0.8c0.2,0.1,0.4,0.2,0.7,0.3c0.3,0.1,0.6,0.2,1,0.4
	c0.4,0.1,0.7,0.2,0.8,0.3v2.3h-4.2c0,0,0-0.1,0-0.2c0-0.1,0-0.2,0-0.4c0-0.2-0.1-0.4-0.1-0.6c-0.1-0.2-0.1-0.4-0.2-0.6
	c-0.1-0.2-0.2-0.4-0.4-0.6c-0.3-0.3-0.6-0.5-0.9-0.7c-0.3-0.2-0.8-0.4-1.3-0.6c0.3-0.4,0.5-0.8,0.5-1.3c0-0.1,0-0.2-0.1-0.3
	C13.1,10.1,13,10,13,10c0-0.1-0.1-0.2-0.2-0.3c-0.2-0.2-0.3-0.4-0.4-0.8C11.9,8.7,11.7,8.3,11.7,7.8z M0,12.8c0.2-0.1,0.5-0.2,1-0.4
	c0.4-0.2,0.8-0.3,1.2-0.4c0.3-0.1,0.6-0.3,0.8-0.4c0.4-0.2,0.7-0.5,1-0.9c0.2-0.4,0.3-0.8,0.3-1.3c0-0.3-0.2-0.7-0.5-1.1
	c-0.2-0.2-0.4-0.6-0.5-1C2.7,7.2,2.5,6.8,2.5,6.1c0-0.5,0.1-0.8,0.2-1C2.6,4.7,2.6,4.2,2.5,3.7c0-0.6,0.1-1.2,0.4-1.8
	c0.3-0.6,0.8-1.1,1.4-1.4C5,0.2,5.6,0,6.2,0c0.5,0,0.9,0.1,1.4,0.3c0.5,0.2,0.9,0.5,1.2,0.8c0.3,0.3,0.6,0.7,0.8,1.2
	c0.2,0.5,0.3,0.9,0.2,1.4C9.8,4.3,9.8,4.8,9.7,5.1c0.2,0.2,0.2,0.5,0.2,1c0,0.6-0.2,1.1-0.7,1.3c-0.2,0.5-0.3,0.8-0.5,1
	C8.3,8.8,8.2,9.1,8.2,9.4c0,0.4,0.1,0.9,0.3,1.3c0.2,0.4,0.5,0.7,1,0.9c0.3,0.2,0.8,0.4,1.5,0.6c0.7,0.3,1.3,0.5,1.9,0.7
	c0.6,0.2,0.9,0.4,1.1,0.6c0.2,0.2,0.3,0.5,0.5,0.8c0.1,0.3,0.2,0.6,0.2,0.8l0,0.3H0V12.8z"/>
</svg>
