<?xml version="1.0" encoding="UTF-8" standalone="no"?>
<!-- Created with Inkscape (http://www.inkscape.org/) -->

<svg
   xmlns:dc="http://purl.org/dc/elements/1.1/"
   xmlns:cc="http://creativecommons.org/ns#"
   xmlns:rdf="http://www.w3.org/1999/02/22-rdf-syntax-ns#"
   xmlns:svg="http://www.w3.org/2000/svg"
   xmlns="http://www.w3.org/2000/svg"
   xmlns:sodipodi="http://sodipodi.sourceforge.net/DTD/sodipodi-0.dtd"
   xmlns:inkscape="http://www.inkscape.org/namespaces/inkscape"
   id="svg2"
   version="1.1"
   inkscape:version="0.91 r13725"
   width="32.201984"
   height="17"
   viewBox="0 0 32.201984 17"
   sodipodi:docname="icon-upload.svg">
  <metadata
     id="metadata8">
    <rdf:RDF>
      <cc:Work
         rdf:about="">
        <dc:format>image/svg+xml</dc:format>
        <dc:type
           rdf:resource="http://purl.org/dc/dcmitype/StillImage" />
        <dc:title></dc:title>
      </cc:Work>
    </rdf:RDF>
  </metadata>
  <defs
     id="defs6" />
  <sodipodi:namedview
     pagecolor="#ffffff"
     bordercolor="#666666"
     borderopacity="1"
     objecttolerance="10"
     gridtolerance="10"
     guidetolerance="10"
     inkscape:pageopacity="0"
     inkscape:pageshadow="2"
     inkscape:window-width="735"
     inkscape:window-height="480"
     id="namedview4"
     showgrid="false"
     inkscape:zoom="8.5625"
     inkscape:cx="18.078302"
     inkscape:cy="8.5"
     inkscape:window-x="0"
     inkscape:window-y="23"
     inkscape:window-maximized="0"
     inkscape:current-layer="svg2"
     fit-margin-top="0"
     fit-margin-left="0"
     fit-margin-right="0"
     fit-margin-bottom="0" />
  <path
     style="fill:#000000"
     d="M 8.6569508,17 2.2793955,17 1.1396978,15.626748 0,14.253496 0.62424185,12.626748 1.2484837,11 l 1.3930112,0 1.3930112,0 0,-1.5214388 0,-1.5214388 2.6535574,-1.2090416 C 8.14752,6.0831079 10.943257,5.105286 10.943257,5.105286 10.778422,3.403524 10.774704,1.701762 14.88066,0 l 1.500198,0 1.500197,0 3.17152,1.771386 2.704366,3.1728457 0.592212,-0.5922123 0.592213,-0.5922122 2.419981,0.6073766 2.419981,0.6073766 1.210329,2.9219921 1.210328,2.9219925 -1.106658,2.067809 c -0.608661,1.137295 -1.966761,2.528123 -3.017998,3.090728 L 26.165989,17 l -4.065742,0 -4.065741,0 0,-1.90638 0,-1.906381 2,0.523012 2,0.523012 0,-0.942318 L 16.375042,8 l -4.340536,4.935729 0,1.278249 1.5,-0.575604 1.5,-0.575604 0,1.968615 0,1.968615 z"
     id="path4146"
     inkscape:connector-curvature="0"
     sodipodi:nodetypes="ccccccccccsccccccccccccsscccccccccccccccc" />
</svg>
