<svg xmlns="http://www.w3.org/2000/svg" viewBox="0 0 112.9 35.9"><path d="M0 20.7c0 .9.8 10.3.8 10.7v.5h12.9V25c0-5.3 4.7-9.7 10.4-9.7s10.4 4.3 10.4 9.7v6.9h48.7V25c0-5.3 4.7-9.7 10.4-9.7S104 19.6 104 25v6.9h.5c1.8-.1 4.6-.5 5.7-.6h.2c.9-.1 1.4-1 1.5-1.5.1-.3.8-2.5.7-3.8 0-.2 0-.7-.1-1.2-.1-3.2-.3-6.8-2.1-7.8-2.2-1.3-9-4.1-13.4-5.3-4.2-1.3-23.7-1.7-25.7-1.7-.8 0-3-1.2-5.5-2.6-3.4-1.9-7.6-4.3-11.9-5.7C50.3.6 46.8 0 43.3 0 38.4 0 34.8 1.2 33 1.8c-.2.1-.4.1-.6.2-2.4.8-11.8 6.1-13 6.8-.7 0-3.5.1-5.3.7-1.9.6-8.2 1.5-9.2 1.5-.6 0-.9.2-1.1.4-.4.4-.4 1-.4 1.1.2 1.3-.5 2.9-.7 3.1-.3.3-.6 1.2-.6 1.5v.5L.4 18.8l-.1.1c-.2.5-.3 1.6-.3 1.8zm105.2-3.5c0-.2.9-.6 1.5-.6.5 0 2.7.6 4.2 1.5.5.8.8 2.1 1 4-1.8-.1-4.4-2.5-5.4-3.4l-.3-.3c-.4-.3-1-.9-1-1.2zm-27.5-2.7c0-.4.3-.7.7-.7h3.4c.4 0 .7.3.7.7v.5c0 .4-.3.7-.7.7h-3.4c-.4 0-.7-.3-.7-.7v-.5zM64.8 9.6C63.7 8.8 57 5 54.7 3.8l.9-.8c3.7 1.4 7.1 3.4 10 5 1.2.7 2.2 1.3 3.1 1.7-.4.3-.8.5-1 .5-.2 0-.5.1-.8.1-.6.1-1.4-.2-2.1-.7zm-25 .9l-3.2-5.8c3.7-1 8.5-1.5 13.3-.5 6.5 1.4 11.5 6.3 11.5 6.3H44c-1.2.1-2.7.1-4.2 0zm-8.2-3.9c.7-.3 1.6-.7 2.6-1l2.6 4.8c-3.1-.2-5.7-.4-6.3-.5-1.2-.2-2.5-1.7 1.1-3.3zM3 17.6c0-.1 0-.2.1-.5.2-.5 2.1-2.8 2.8-3.2.2-.1.5-.2.7-.2h.3c.3.2 2.9 1.6 3.6 2.1.2.1.3.3.3.4 0 .2-.1.3-.2.5-.2.3-1.4 1.1-1.7 1.3-.5 0-3.7-.3-5.9-.4z"/><path class="st18" d="M84.1 26.2c0 5.3 4.3 9.7 9.7 9.7 5.3 0 9.7-4.3 9.7-9.7s-4.3-9.7-9.7-9.7c-5.4 0-9.7 4.4-9.7 9.7zm3.1 0c0-3.6 2.9-6.6 6.6-6.6 3.6 0 6.6 2.9 6.6 6.6s-2.9 6.6-6.6 6.6c-3.7 0-6.6-3-6.6-6.6z"/><circle class="st18" cx="93.7" cy="26.2" r=".5"/><path class="st18" d="M93.6 24.4c-.2 0-.4-.2-.4-.4v-1.5c0-.2.2-.4.4-.4s.4.2.4.4V24c0 .2-.2.4-.4.4z"/><ellipse transform="rotate(-30.037 94.572 24.864)" class="st18" cx="94.6" cy="24.9" rx=".4" ry=".4"/><ellipse transform="rotate(-30.003 92.727 24.956)" class="st18" cx="92.7" cy="25" rx=".4" ry=".4"/><ellipse transform="rotate(-30.026 95.226 26.582)" class="st18" cx="95.2" cy="26.6" rx=".4" ry=".4"/><path class="st18" d="M91.5 26.1l-1.4-.5c-.2-.1-.3-.3-.2-.5.1-.2.3-.3.5-.2l1.4.5c.2.1.3.3.2.5-.1.1-.3.2-.5.2zM89.6 23.5h-.1c.6-1 1.6-1.7 2.7-2.1l.4 2.5c-.3.2-.6.4-.9.7l-2.1-1.1z"/><ellipse transform="rotate(-29.957 92.247 26.737)" class="st18" cx="92.2" cy="26.7" rx=".4" ry=".4"/><ellipse transform="rotate(-29.98 93.79 27.75)" class="st18" cx="93.8" cy="27.7" rx=".4" ry=".4"/><path class="st18" d="M95.4 25.7c-.1-.2 0-.4.2-.5l1.4-.5c.2-.1.4 0 .5.2.1.2 0 .4-.2.5l-1.4.5c-.2.1-.4-.1-.5-.2zM92.1 27.7c.1-.2.4-.2.5-.1.2.1.2.4.1.5l-.9 1.2c-.1.2-.4.2-.5.1-.2-.1-.2-.4-.1-.5l.9-1.2zM93.7 28.8c.2 0 .4 0 .5-.1l1.1 2.2c-.5.2-1.1.3-1.7.3-.6 0-1.1-.1-1.7-.3l1.2-2.3c.3.2.4.2.6.2zM91.5 27.5l-1.8 1.8c-.7-.8-1.1-1.9-1.1-3.1l2.5.4c.1.4.2.7.4.9zM95.7 24.5c-.3-.3-.6-.5-1-.7l.4-2.4v-.1c1.2.3 2.2 1.1 2.8 2.1h-.1l-2.1 1.1zM94.8 27.7c.2-.1.4-.1.5.1l.9 1.2c.1.2.1.4-.1.5-.2.1-.4.1-.5-.1l-.9-1.2c-.1-.2-.1-.4.1-.5zM96.3 26.6l2.5-.4c0 1.2-.4 2.2-1 3.1L96 27.5l.3-.9zM14.6 26.2c0 5.3 4.3 9.7 9.7 9.7 5.3 0 9.7-4.3 9.7-9.7s-4.3-9.7-9.7-9.7c-5.4 0-9.7 4.4-9.7 9.7zm3.1 0c0-3.6 2.9-6.6 6.6-6.6 3.6 0 6.6 2.9 6.6 6.6s-2.9 6.6-6.6 6.6c-3.7 0-6.6-3-6.6-6.6z"/><circle class="st18" cx="24.3" cy="26.2" r=".5"/><path class="st18" d="M24.2 24.4c-.2 0-.4-.2-.4-.4v-1.5c0-.2.2-.4.4-.4s.4.2.4.4V24c-.1.2-.2.4-.4.4z"/><ellipse transform="rotate(-30.014 25.106 24.855)" class="st18" cx="25.1" cy="24.9" rx=".4" ry=".4"/><ellipse transform="rotate(-29.99 23.266 24.952)" class="st18" cx="23.3" cy="25" rx=".4" ry=".4"/><ellipse transform="rotate(-30.026 25.764 26.583)" class="st18" cx="25.8" cy="26.6" rx=".4" ry=".4"/><path class="st18" d="M22.1 26.1l-1.4-.5c-.2-.1-.3-.3-.2-.5.1-.2.3-.3.5-.2l1.4.5c.2.1.3.3.2.5-.1.1-.3.2-.5.2zM20.1 23.5H20c.6-1 1.6-1.7 2.7-2.1l.4 2.5c-.3.2-.6.4-.9.7l-2.1-1.1z"/><ellipse transform="rotate(-29.99 22.786 26.733)" class="st18" cx="22.8" cy="26.7" rx=".4" ry=".4"/><ellipse transform="rotate(-29.97 24.328 27.737)" class="st18" cx="24.3" cy="27.7" rx=".4" ry=".4"/><path class="st18" d="M26 25.7c-.1-.2 0-.4.2-.5l1.4-.5c.2-.1.4 0 .5.2.1.2 0 .4-.2.5l-1.4.5c-.3.1-.5-.1-.5-.2zM22.7 27.7c.1-.2.4-.2.5-.1.2.1.2.4.1.5l-.9 1.2c-.1.2-.4.2-.5.1-.2-.1-.2-.4-.1-.5l.9-1.2zM24.3 28.8c.2 0 .4 0 .5-.1l1.1 2.2c-.5.2-1.1.3-1.7.3-.6 0-1.1-.1-1.7-.3l1.2-2.3c.2.2.4.2.6.2zM22 27.5l-1.8 1.8c-.7-.8-1.1-1.9-1.1-3.1l2.5.4c.2.4.3.7.4.9zM26.2 24.5c-.3-.3-.6-.5-1-.7l.4-2.4v-.1c1.2.3 2.2 1.1 2.8 2.1h-.1l-2.1 1.1zM25.3 27.7c.2-.1.4-.1.5.1l.9 1.2c.1.2.1.4-.1.5-.2.1-.4.1-.5-.1l-.9-1.2c-.1-.2-.1-.4.1-.5zM26.8 26.6l2.5-.4c0 1.2-.4 2.2-1 3.1l-1.8-1.8c.2-.3.3-.6.3-.9z"/></svg>