<svg xmlns="http://www.w3.org/2000/svg" viewBox="0 0 20 15.4"><path d="M16.3 15.3c-.4 0-.7-.2-.8-.6-.1-.3-.1-2.9-.1-3.1 0-.1 0-.1-5.5-.1H4.4c.1.1.1 2.5 0 2.9 0 .3-.2.5-.4.6l-.2.1h-1c-1.2 0-1.2 0-1.5-.3l-.2-.2v-1.5c0-1.3 0-1.5.1-1.6.1-.1 0-.1-.1-.1-.4-.1-.8-.3-1-.8l-.1-1V7.7c0-1 0-1 .5-1.6.4-.7.6-1.1 1.8-3.8.8-1.7.9-2 1.4-2.2.1 0 .2 0 1-.1h10.6c.8 0 .9 0 1.1.1.5.2.6.5 1.7 3 .8 1.9 1 2.2 1.3 2.7.4.7.5.8.5 1.5V10c0 .6-.1.8-.4 1.1-.2.3-.4.3-.7.4-.2 0-.2 0-.1.1s.1.3.1 1.6v1.5l-.2.3-.3.3c-.1.1-1.5.1-2 0zM3.2 8.9c.5-.2.8-.8.6-1.3 0-.3-.4-.6-.6-.7-.2-.1-.5-.1-.6 0-.5.1-.9.6-.9 1.1.1.8.9 1.2 1.5.9zm14.3 0c.3-.1.6-.4.7-.7.2-.7-.3-1.4-1.1-1.4-.3 0-.6.1-.8.4-.5.5-.3 1.3.3 1.7.2.1.3.1.5.1.1 0 .3 0 .4-.1zM15.7 5h1.4l-.4-.9c-.4-1-1-2.3-1.1-2.3 0 0-7.5-.1-9.5 0H4.4l-.2.4C4 2.5 3.1 4.7 2.9 5c0 0 .3 0 1.3.1 2.7 0 10.2 0 11.5-.1z"/></svg>