<?xml version="1.0" encoding="UTF-8" standalone="no"?>
<!-- Created with Inkscape (http://www.inkscape.org/) -->

<svg
   xmlns:dc="http://purl.org/dc/elements/1.1/"
   xmlns:cc="http://creativecommons.org/ns#"
   xmlns:rdf="http://www.w3.org/1999/02/22-rdf-syntax-ns#"
   xmlns:svg="http://www.w3.org/2000/svg"
   xmlns="http://www.w3.org/2000/svg"
   xmlns:sodipodi="http://sodipodi.sourceforge.net/DTD/sodipodi-0.dtd"
   xmlns:inkscape="http://www.inkscape.org/namespaces/inkscape"
   id="svg4140"
   version="1.1"
   inkscape:version="0.91 r13725"
   width="13.15254"
   height="16.087257"
   viewBox="0 0 13.15254 16.087257"
   sodipodi:docname="icon-file.svg">
  <metadata
     id="metadata4146">
    <rdf:RDF>
      <cc:Work
         rdf:about="">
        <dc:format>image/svg+xml</dc:format>
        <dc:type
           rdf:resource="http://purl.org/dc/dcmitype/StillImage" />
        <dc:title></dc:title>
      </cc:Work>
    </rdf:RDF>
  </metadata>
  <defs
     id="defs4144" />
  <sodipodi:namedview
     pagecolor="#ffffff"
     bordercolor="#666666"
     borderopacity="1"
     objecttolerance="10"
     gridtolerance="10"
     guidetolerance="10"
     inkscape:pageopacity="0"
     inkscape:pageshadow="2"
     inkscape:window-width="700"
     inkscape:window-height="480"
     id="namedview4142"
     showgrid="false"
     fit-margin-top="0"
     fit-margin-left="0"
     fit-margin-right="0"
     fit-margin-bottom="0"
     inkscape:zoom="10.727273"
     inkscape:cx="7"
     inkscape:cy="8.180479"
     inkscape:window-x="20"
     inkscape:window-y="65"
     inkscape:window-maximized="0"
     inkscape:current-layer="svg4140" />
  <path
     style="fill:#000000"
     d="M 1.4205916,16.087258 0.7102958,15.376962 0,14.666667 0,7.3333333 0,0 4.325686,0 8.651372,0 10.882291,2.374704 13.11321,4.749408 13.15254,16.059322 Z M 6.9999998,13 10,13 l 0,-1 0,-1 -3.0000002,0 -3,0 0,1 0,1 z m -0.5,-3 2.3819662,0 0.397085,-1.9999997 -2.7790512,0 L 3.7209489,7.9067803 4.1180338,10 Z M 9.773303,5 11.428571,5 9.738095,3.309523 8.047619,1.619047 7.4588813,3.933468 8.118034,5 Z"
     id="path4692"
     inkscape:connector-curvature="0"
     sodipodi:nodetypes="cccccccccccccccccccccccccccccccccc" />
</svg>
