<svg xmlns="http://www.w3.org/2000/svg" viewBox="0 0 66.3 62.4"><path d="M60.8 59.2V33.7c0-1.6-.9-3.6-2.1-4.5L35.1 12.1c-1.3-.9-3.3-.9-4.5 0L8.5 28.2c-1.2.9-2.3 2.9-2.3 4.5v26.5c0 1.6 1.3 3.2 2.8 3.2h49.4c1.5 0 2.4-1.6 2.4-3.2zm-26.9-3.7l-.2.1C21 50.2 16 37.7 21.7 32.3c5.6-5.4 12 1.9 12 1.9s6.4-7.3 12-1.9c5.7 5.4.9 17.8-11.8 23.2z"/><path d="M65.1 23l-30-21.6c-1.3-.9-3.3-.9-4.5 0L1.2 23.3c-1.2.9-1.5 2.7-.7 4l.1.1c.9 1.3 2.6 1.6 3.8.7L30.5 8.7c1.2-.9 3.3-.9 4.5 0l27 19.2c1.3.9 3 .5 3.8-.8l.1-.1c.8-1.3.5-3.1-.8-4zM51.6 10.9c1.2.9 2.2.3 2.2-1.2V2.4C53.8.8 52.5 0 51 0h-4.6c-1.5 0-2.7.9-2.7 2.4s1 3.3 2.2 4.2l5.7 4.3z"/></svg>