<svg  xmlns="http://www.w3.org/2000/svg"  x="0px"
	 y="0px" viewBox="0 0 133.5 104.9" >
<g>
	<path class="st0" d="M131.9,81.6c-17-16.1-39.9-26-65.1-26s-48.2,9.9-65.1,26c-1,1-1.6,2.4-1.6,3.9c0,1.6,0.6,2.9,1.6,3.9
		l13.8,13.8c1,1,2.4,1.6,3.9,1.6c1.5,0,2.9-0.6,3.9-1.6c4.4-4.1,9.4-7.6,14.8-10.3c1.8-0.9,3.1-2.8,3.1-5V70.8
		c8.1-2.7,16.7-4.1,25.6-4.1s17.5,1.4,25.6,4V88c0,2.2,1.3,4.1,3.1,5c5.5,2.7,10.4,6.2,14.8,10.3c1,1,2.4,1.6,3.9,1.6
		c1.6,0,2.9-0.6,3.9-1.6l13.8-13.8c1-1,1.6-2.4,1.6-3.9C133.5,84,132.9,82.6,131.9,81.6z M117.7,23.7l-7.8-7.8L90,35.6l7.8,7.8
		C97.9,43.4,117.1,23.9,117.7,23.7z M72.3,0H61.2v27.8h11.1V0z M35.6,43.4l7.8-7.8L23.7,15.8l-7.9,7.9
		C16.4,23.9,35.6,43.4,35.6,43.4z"/>
</g>
</svg>
