<svg xmlns="http://www.w3.org/2000/svg"  x="0px" y="0px"
	 viewBox="0 0 24.6 24.6" >
<g>
	<path class="st0" d="M10.9,15.7c-1,0.5-2.4,1.1-4.4,0.7c-0.1,0-0.7,0.1-0.4,0.4c0.5,0.7,1.5,1,2.4,0.9
		C10.2,17.5,10.9,16.6,10.9,15.7L10.9,15.7z M5.4,16.5c0.1,3.6,5.7,5,6.3-0.6c0.1-0.9,1.7-4.8,2.7-5.9c0.6-0.6,1.8-1.9,2.3-2.5
		c0.7-1-0.5-2-1.4-0.8c-1.8,2.4-2.3,3.8-3.6,6.5c-0.5,1-1,1.7-1.7,2.1C8,16.6,6.1,15.1,5.4,16.5L5.4,16.5z M18.6,12.2"/>
	<path class="st0" d="M19.3,10.7l0.2-0.9c0.1-0.3-0.3-0.6-0.6-0.6H17h-0.3c-0.5,0.3-1.1,0.7-1.6,1.5c-0.5,0.7-1.1,1.7-1.1,1.7
		c-0.1,0.2-0.2,0.4-0.3,0.7c-0.6,1.3-1.1,2.7-1.2,3.2c0,0.3-0.1,0.7-0.2,1.1h5.1c0.3,0,0.5-0.3,0.6-0.6l0.8-4.3h0.3
		c0.2,0,0.3-0.1,0.3-0.3l0.2-1.1C19.6,10.8,19.5,10.7,19.3,10.7z"/>
	<path class="st0" d="M10.5,8.8c-1.4,0-0.8-0.4-0.3-1.8c0.1-0.2,0.2-0.5,0-0.7L8.9,5.1C8.7,5,8.5,5,8.4,5.1L7.1,6.4
		C6.9,6.5,7,6.8,7.1,7c0.4,1.4,1.1,1.8-0.3,1.8c-0.3,0-0.6,0-1,0c-0.3,0-0.6,0.3-0.6,0.6l0.2,0.9c-0.2,0-0.3,0.1-0.3,0.3l0.2,1.1
		c0,0.2,0.1,0.3,0.3,0.3h0.2l0.6,3.2c0.2,0,0.4,0,0.5,0c0.7,0,1.6,0.1,2.5-0.4c0.3-0.2,0.5-0.4,0.8-0.7c0.2-0.3,0.5-0.7,0.7-1.2
		c0.2-0.5,0.3-0.7,0.4-0.8l0-0.1c0.3-0.6,0.5-1.2,0.7-1.7c0.3-0.5,0.5-1,0.9-1.6L10.5,8.8z M8.6,6.4c0.3,0,0.5,0.2,0.5,0.5
		c0,0.3-0.2,0.5-0.5,0.5S8.1,7.2,8.1,6.9C8.1,6.6,8.4,6.4,8.6,6.4z"/>
</g>
</svg>
