<svg xmlns="http://www.w3.org/2000/svg" viewBox="0 0 106 85.2"><path d="M73.5 40.3h-4.7c-.3 0-.5.1-.5.3v6.3c0 .2.2.3.5.3h4.7c.3 0 .5-.1.5-.3v-6.3c0-.2-.2-.3-.5-.3zM83.8 40.3h-4.7c-.3 0-.5.1-.5.3v6.3c0 .2.2.3.5.3h4.7c.3 0 .5-.1.5-.3v-6.3c-.1-.2-.3-.3-.5-.3zM94 40.3h-4.7c-.3 0-.5.1-.5.3v6.3c0 .2.2.3.5.3H94c.3 0 .5-.1.5-.3v-6.3c0-.2-.2-.3-.5-.3zM73.5 50.4h-4.7c-.3 0-.5.1-.5.3V57c0 .2.2.3.5.3h4.7c.3 0 .5-.1.5-.3v-6.3c0-.2-.2-.3-.5-.3zM83.8 50.4h-4.7c-.3 0-.5.1-.5.3V57c0 .2.2.3.5.3h4.7c.3 0 .5-.1.5-.3v-6.3c-.1-.2-.3-.3-.5-.3zM94 50.4h-4.7c-.3 0-.5.1-.5.3V57c0 .2.2.3.5.3H94c.3 0 .5-.1.5-.3v-6.3c0-.2-.2-.3-.5-.3zM73.5 60.5h-4.7c-.3 0-.5.1-.5.3v6.3c0 .2.2.3.5.3h4.7c.3 0 .5-.1.5-.3v-6.3c0-.1-.2-.3-.5-.3zM83.8 60.5h-4.7c-.3 0-.5.1-.5.3v6.3c0 .2.2.3.5.3h4.7c.3 0 .5-.1.5-.3v-6.3c-.1-.1-.3-.3-.5-.3zM94 60.5h-4.7c-.3 0-.5.1-.5.3v6.3c0 .2.2.3.5.3H94c.3 0 .5-.1.5-.3v-6.3c0-.1-.2-.3-.5-.3zM73.5 70.7h-4.7c-.3 0-.5.1-.5.3v6.3c0 .2.2.3.5.3h4.7c.3 0 .5-.1.5-.3V71c0-.2-.2-.3-.5-.3zM83.8 70.7h-4.7c-.3 0-.5.1-.5.3v6.3c0 .2.2.3.5.3h4.7c.3 0 .5-.1.5-.3V71c-.1-.2-.3-.3-.5-.3zM94 70.7h-4.7c-.3 0-.5.1-.5.3v6.3c0 .2.2.3.5.3H94c.3 0 .5-.1.5-.3V71c0-.2-.2-.3-.5-.3z"/><path fill="currentColor" d="M79.1 67.4h4.7c.3 0 .5-.1.5-.3v-6.3c0-.2-.2-.3-.5-.3h-4.7c-.3 0-.5.1-.5.3v6.3c0 .2.2.3.5.3zM89.3 77.5H94c.3 0 .5-.1.5-.3v-6.3c0-.2-.2-.3-.5-.3h-4.7c-.3 0-.5.1-.5.3v6.3c0 .2.3.3.5.3zM79.1 57.3h4.7c.3 0 .5-.1.5-.3v-6.3c0-.2-.2-.3-.5-.3h-4.7c-.3 0-.5.1-.5.3V57c0 .1.2.3.5.3zM89.3 67.4H94c.3 0 .5-.1.5-.3v-6.3c0-.2-.2-.3-.5-.3h-4.7c-.3 0-.5.1-.5.3v6.3c0 .2.3.3.5.3zM89.3 47.1H94c.3 0 .5-.1.5-.3v-6.3c0-.2-.2-.3-.5-.3h-4.7c-.3 0-.5.1-.5.3v6.3c0 .2.3.3.5.3zM89.3 57.3H94c.3 0 .5-.1.5-.3v-6.3c0-.2-.2-.3-.5-.3h-4.7c-.3 0-.5.1-.5.3V57c0 .1.3.3.5.3zM79.1 47.1h4.7c.3 0 .5-.1.5-.3v-6.3c0-.2-.2-.3-.5-.3h-4.7c-.3 0-.5.1-.5.3v6.3c0 .2.2.3.5.3zM68.8 67.4h4.7c.3 0 .5-.1.5-.3v-6.3c0-.2-.2-.3-.5-.3h-4.7c-.3 0-.5.1-.5.3v6.3c0 .2.2.3.5.3zM79.1 77.5h4.7c.3 0 .5-.1.5-.3v-6.3c0-.2-.2-.3-.5-.3h-4.7c-.3 0-.5.1-.5.3v6.3c0 .2.2.3.5.3zM68.8 57.3h4.7c.3 0 .5-.1.5-.3v-6.3c0-.2-.2-.3-.5-.3h-4.7c-.3 0-.5.1-.5.3V57c0 .1.2.3.5.3zM68.8 77.5h4.7c.3 0 .5-.1.5-.3v-6.3c0-.2-.2-.3-.5-.3h-4.7c-.3 0-.5.1-.5.3v6.3c0 .2.2.3.5.3zM68.8 47.1h4.7c.3 0 .5-.1.5-.3v-6.3c0-.2-.2-.3-.5-.3h-4.7c-.3 0-.5.1-.5.3v6.3c0 .2.2.3.5.3z"/><path d="M98.8 83.4V39c0-1.2-1.3-2.2-2.9-2.2h-29c-1.6 0-2.9 1-2.9 2.2v44.4h-7.1v1.8h49v-1.8h-7.1zm-10-42.8c0-.2.2-.3.5-.3H94c.3 0 .5.1.5.3v6.3c0 .2-.2.3-.5.3h-4.7c-.3 0-.5-.1-.5-.3v-6.3zm0 10.1c0-.2.2-.3.5-.3H94c.3 0 .5.1.5.3V57c0 .2-.2.3-.5.3h-4.7c-.3 0-.5-.1-.5-.3v-6.3zm0 10.1c0-.2.2-.3.5-.3H94c.3 0 .5.1.5.3v6.3c0 .2-.2.3-.5.3h-4.7c-.3 0-.5-.1-.5-.3v-6.3zm0 10.1c0-.2.2-.3.5-.3H94c.3 0 .5.1.5.3v6.3c0 .2-.2.3-.5.3h-4.7c-.3 0-.5-.1-.5-.3v-6.3zM78.6 40.6c0-.2.2-.3.5-.3h4.7c.3 0 .5.1.5.3v6.3c0 .2-.2.3-.5.3h-4.7c-.3 0-.5-.1-.5-.3v-6.3zm0 10.1c0-.2.2-.3.5-.3h4.7c.3 0 .5.1.5.3V57c0 .2-.2.3-.5.3h-4.7c-.3 0-.5-.1-.5-.3v-6.3zm0 10.1c0-.2.2-.3.5-.3h4.7c.3 0 .5.1.5.3v6.3c0 .2-.2.3-.5.3h-4.7c-.3 0-.5-.1-.5-.3v-6.3zm0 10.1c0-.2.2-.3.5-.3h4.7c.3 0 .5.1.5.3v6.3c0 .2-.2.3-.5.3h-4.7c-.3 0-.5-.1-.5-.3v-6.3zM68.3 40.6c0-.2.2-.3.5-.3h4.7c.3 0 .5.1.5.3v6.3c0 .2-.2.3-.5.3h-4.7c-.3 0-.5-.1-.5-.3v-6.3zm0 10.1c0-.2.2-.3.5-.3h4.7c.3 0 .5.1.5.3V57c0 .2-.2.3-.5.3h-4.7c-.3 0-.5-.1-.5-.3v-6.3zm0 10.1c0-.2.2-.3.5-.3h4.7c.3 0 .5.1.5.3v6.3c0 .2-.2.3-.5.3h-4.7c-.3 0-.5-.1-.5-.3v-6.3zm0 10.1c0-.2.2-.3.5-.3h4.7c.3 0 .5.1.5.3v6.3c0 .2-.2.3-.5.3h-4.7c-.3 0-.5-.1-.5-.3v-6.3z"/><g><path d="M16.6 40.3h-4.7c-.3 0-.5.1-.5.3v6.3c0 .2.2.3.5.3h4.7c.3 0 .5-.1.5-.3v-6.3c0-.2-.2-.3-.5-.3zM26.9 40.3h-4.7c-.3 0-.5.1-.5.3v6.3c0 .2.2.3.5.3h4.7c.3 0 .5-.1.5-.3v-6.3c0-.2-.2-.3-.5-.3zM37.2 40.3h-4.7c-.3 0-.5.1-.5.3v6.3c0 .2.2.3.5.3h4.7c.3 0 .5-.1.5-.3v-6.3c-.1-.2-.3-.3-.5-.3zM16.6 50.4h-4.7c-.3 0-.5.1-.5.3V57c0 .2.2.3.5.3h4.7c.3 0 .5-.1.5-.3v-6.3c0-.2-.2-.3-.5-.3zM26.9 50.4h-4.7c-.3 0-.5.1-.5.3V57c0 .2.2.3.5.3h4.7c.3 0 .5-.1.5-.3v-6.3c0-.2-.2-.3-.5-.3zM37.2 50.4h-4.7c-.3 0-.5.1-.5.3V57c0 .2.2.3.5.3h4.7c.3 0 .5-.1.5-.3v-6.3c-.1-.2-.3-.3-.5-.3zM16.6 60.5h-4.7c-.3 0-.5.1-.5.3v6.3c0 .2.2.3.5.3h4.7c.3 0 .5-.1.5-.3v-6.3c0-.1-.2-.3-.5-.3zM26.9 60.5h-4.7c-.3 0-.5.1-.5.3v6.3c0 .2.2.3.5.3h4.7c.3 0 .5-.1.5-.3v-6.3c0-.1-.2-.3-.5-.3zM37.2 60.5h-4.7c-.3 0-.5.1-.5.3v6.3c0 .2.2.3.5.3h4.7c.3 0 .5-.1.5-.3v-6.3c-.1-.1-.3-.3-.5-.3zM16.6 70.7h-4.7c-.3 0-.5.1-.5.3v6.3c0 .2.2.3.5.3h4.7c.3 0 .5-.1.5-.3V71c0-.2-.2-.3-.5-.3zM26.9 70.7h-4.7c-.3 0-.5.1-.5.3v6.3c0 .2.2.3.5.3h4.7c.3 0 .5-.1.5-.3V71c0-.2-.2-.3-.5-.3zM37.2 70.7h-4.7c-.3 0-.5.1-.5.3v6.3c0 .2.2.3.5.3h4.7c.3 0 .5-.1.5-.3V71c-.1-.2-.3-.3-.5-.3z"/><path fill="currentColor" d="M22.2 67.4h4.7c.3 0 .5-.1.5-.3v-6.3c0-.2-.2-.3-.5-.3h-4.7c-.3 0-.5.1-.5.3v6.3c0 .2.2.3.5.3zM32.4 77.5h4.7c.3 0 .5-.1.5-.3v-6.3c0-.2-.2-.3-.5-.3h-4.7c-.3 0-.5.1-.5.3v6.3c.1.2.3.3.5.3zM22.2 57.3h4.7c.3 0 .5-.1.5-.3v-6.3c0-.2-.2-.3-.5-.3h-4.7c-.3 0-.5.1-.5.3V57c0 .1.2.3.5.3zM32.4 67.4h4.7c.3 0 .5-.1.5-.3v-6.3c0-.2-.2-.3-.5-.3h-4.7c-.3 0-.5.1-.5.3v6.3c.1.2.3.3.5.3zM32.4 47.1h4.7c.3 0 .5-.1.5-.3v-6.3c0-.2-.2-.3-.5-.3h-4.7c-.3 0-.5.1-.5.3v6.3c.1.2.3.3.5.3zM32.4 57.3h4.7c.3 0 .5-.1.5-.3v-6.3c0-.2-.2-.3-.5-.3h-4.7c-.3 0-.5.1-.5.3V57c.1.1.3.3.5.3zM22.2 47.1h4.7c.3 0 .5-.1.5-.3v-6.3c0-.2-.2-.3-.5-.3h-4.7c-.3 0-.5.1-.5.3v6.3c0 .2.2.3.5.3zM11.9 67.4h4.7c.3 0 .5-.1.5-.3v-6.3c0-.2-.2-.3-.5-.3h-4.7c-.3 0-.5.1-.5.3v6.3c.1.2.3.3.5.3zM22.2 77.5h4.7c.3 0 .5-.1.5-.3v-6.3c0-.2-.2-.3-.5-.3h-4.7c-.3 0-.5.1-.5.3v6.3c0 .2.2.3.5.3zM11.9 57.3h4.7c.3 0 .5-.1.5-.3v-6.3c0-.2-.2-.3-.5-.3h-4.7c-.3 0-.5.1-.5.3V57c.1.1.3.3.5.3zM11.9 77.5h4.7c.3 0 .5-.1.5-.3v-6.3c0-.2-.2-.3-.5-.3h-4.7c-.3 0-.5.1-.5.3v6.3c.1.2.3.3.5.3zM11.9 47.1h4.7c.3 0 .5-.1.5-.3v-6.3c0-.2-.2-.3-.5-.3h-4.7c-.3 0-.5.1-.5.3v6.3c.1.2.3.3.5.3z"/><path d="M41.9 83.4V39c0-1.2-1.3-2.2-2.9-2.2H10c-1.6 0-2.9 1-2.9 2.2v44.4H0v1.8h49v-1.8h-7.1zM32 40.6c0-.2.2-.3.5-.3h4.7c.3 0 .5.1.5.3v6.3c0 .2-.2.3-.5.3h-4.7c-.3 0-.5-.1-.5-.3v-6.3zm0 10.1c0-.2.2-.3.5-.3h4.7c.3 0 .5.1.5.3V57c0 .2-.2.3-.5.3h-4.7c-.3 0-.5-.1-.5-.3v-6.3zm0 10.1c0-.2.2-.3.5-.3h4.7c.3 0 .5.1.5.3v6.3c0 .2-.2.3-.5.3h-4.7c-.3 0-.5-.1-.5-.3v-6.3zm0 10.1c0-.2.2-.3.5-.3h4.7c.3 0 .5.1.5.3v6.3c0 .2-.2.3-.5.3h-4.7c-.3 0-.5-.1-.5-.3v-6.3zM21.7 40.6c0-.2.2-.3.5-.3h4.7c.3 0 .5.1.5.3v6.3c0 .2-.2.3-.5.3h-4.7c-.3 0-.5-.1-.5-.3v-6.3zm0 10.1c0-.2.2-.3.5-.3h4.7c.3 0 .5.1.5.3V57c0 .2-.2.3-.5.3h-4.7c-.3 0-.5-.1-.5-.3v-6.3zm0 10.1c0-.2.2-.3.5-.3h4.7c.3 0 .5.1.5.3v6.3c0 .2-.2.3-.5.3h-4.7c-.3 0-.5-.1-.5-.3v-6.3zm0 10.1c0-.2.2-.3.5-.3h4.7c.3 0 .5.1.5.3v6.3c0 .2-.2.3-.5.3h-4.7c-.3 0-.5-.1-.5-.3v-6.3zM11.5 40.6c0-.2.2-.3.5-.3h4.7c.3 0 .5.1.5.3v6.3c0 .2-.2.3-.5.3H12c-.3 0-.5-.1-.5-.3v-6.3zm0 10.1c0-.2.2-.3.5-.3h4.7c.3 0 .5.1.5.3V57c0 .2-.2.3-.5.3H12c-.3 0-.5-.1-.5-.3v-6.3zm0 10.1c0-.2.2-.3.5-.3h4.7c.3 0 .5.1.5.3v6.3c0 .2-.2.3-.5.3H12c-.3 0-.5-.1-.5-.3v-6.3zm0 10.1c0-.2.2-.3.5-.3h4.7c.3 0 .5.1.5.3v6.3c0 .2-.2.3-.5.3H12c-.3 0-.5-.1-.5-.3v-6.3z"/></g><g><path d="M42.1 23.4h-6.5c-.4 0-.7.2-.7.4v8.6c0 .2.3.4.7.4h6.5c.4 0 .7-.2.7-.4v-8.6c-.1-.2-.3-.4-.7-.4zM56.2 23.4h-6.5c-.4 0-.7.2-.7.4v8.6c0 .2.3.4.7.4h6.5c.4 0 .7-.2.7-.4v-8.6c0-.2-.3-.4-.7-.4zM70.3 23.4h-6.5c-.4 0-.7.2-.7.4v8.6c0 .2.3.4.7.4h6.5c.4 0 .7-.2.7-.4v-8.6c0-.2-.3-.4-.7-.4zM42.1 37.3h-6.5c-.4 0-.7.2-.7.4v8.6c0 .2.3.4.7.4h6.5c.4 0 .7-.2.7-.4v-8.6c-.1-.2-.3-.4-.7-.4zM56.2 37.3h-6.5c-.4 0-.7.2-.7.4v8.6c0 .2.3.4.7.4h6.5c.4 0 .7-.2.7-.4v-8.6c0-.2-.3-.4-.7-.4zM70.3 37.3h-6.5c-.4 0-.7.2-.7.4v8.6c0 .2.3.4.7.4h6.5c.4 0 .7-.2.7-.4v-8.6c0-.2-.3-.4-.7-.4zM42.1 51.2h-6.5c-.4 0-.7.2-.7.4v8.6c0 .2.3.4.7.4h6.5c.4 0 .7-.2.7-.4v-8.6c-.1-.2-.3-.4-.7-.4zM56.2 51.2h-6.5c-.4 0-.7.2-.7.4v8.6c0 .2.3.4.7.4h6.5c.4 0 .7-.2.7-.4v-8.6c0-.2-.3-.4-.7-.4zM70.3 51.2h-6.5c-.4 0-.7.2-.7.4v8.6c0 .2.3.4.7.4h6.5c.4 0 .7-.2.7-.4v-8.6c0-.2-.3-.4-.7-.4zM42.1 65.2h-6.5c-.4 0-.7.2-.7.4v8.6c0 .2.3.4.7.4h6.5c.4 0 .7-.2.7-.4v-8.6c-.1-.2-.3-.4-.7-.4zM56.2 65.2h-6.5c-.4 0-.7.2-.7.4v8.6c0 .2.3.4.7.4h6.5c.4 0 .7-.2.7-.4v-8.6c0-.2-.3-.4-.7-.4zM70.3 65.2h-6.5c-.4 0-.7.2-.7.4v8.6c0 .2.3.4.7.4h6.5c.4 0 .7-.2.7-.4v-8.6c0-.2-.3-.4-.7-.4z"/><path fill="currentColor" d="M49.7 60.7h6.5c.4 0 .7-.2.7-.4v-8.6c0-.2-.3-.4-.7-.4h-6.5c-.4 0-.7.2-.7.4v8.6c.1.2.4.4.7.4zM63.9 74.6h6.5c.4 0 .7-.2.7-.4v-8.6c0-.2-.3-.4-.7-.4h-6.5c-.4 0-.7.2-.7.4v8.6c0 .2.3.4.7.4zM49.7 46.8h6.5c.4 0 .7-.2.7-.4v-8.6c0-.2-.3-.4-.7-.4h-6.5c-.4 0-.7.2-.7.4v8.6c.1.2.4.4.7.4zM63.9 60.7h6.5c.4 0 .7-.2.7-.4v-8.6c0-.2-.3-.4-.7-.4h-6.5c-.4 0-.7.2-.7.4v8.6c0 .2.3.4.7.4zM63.9 32.8h6.5c.4 0 .7-.2.7-.4v-8.6c0-.2-.3-.4-.7-.4h-6.5c-.4 0-.7.2-.7.4v8.6c0 .2.3.4.7.4zM63.9 46.8h6.5c.4 0 .7-.2.7-.4v-8.6c0-.2-.3-.4-.7-.4h-6.5c-.4 0-.7.2-.7.4v8.6c0 .2.3.4.7.4zM49.7 32.8h6.5c.4 0 .7-.2.7-.4v-8.6c0-.2-.3-.4-.7-.4h-6.5c-.4 0-.7.2-.7.4v8.6c.1.2.4.4.7.4zM35.6 60.7h6.5c.4 0 .7-.2.7-.4v-8.6c0-.2-.3-.4-.7-.4h-6.5c-.4 0-.7.2-.7.4v8.6c.1.2.4.4.7.4zM49.7 74.6h6.5c.4 0 .7-.2.7-.4v-8.6c0-.2-.3-.4-.7-.4h-6.5c-.4 0-.7.2-.7.4v8.6c.1.2.4.4.7.4zM35.6 46.8h6.5c.4 0 .7-.2.7-.4v-8.6c0-.2-.3-.4-.7-.4h-6.5c-.4 0-.7.2-.7.4v8.6c.1.2.4.4.7.4zM35.6 74.6h6.5c.4 0 .7-.2.7-.4v-8.6c0-.2-.3-.4-.7-.4h-6.5c-.4 0-.7.2-.7.4v8.6c.1.2.4.4.7.4zM35.6 32.8h6.5c.4 0 .7-.2.7-.4v-8.6c0-.2-.3-.4-.7-.4h-6.5c-.4 0-.7.2-.7.4v8.6c.1.2.4.4.7.4z"/><path d="M76.9 82.7v-61c0-1.7-1.8-3-4-3H33c-2.2 0-4 1.4-4 3v61h-9.8v2.5h67.5v-2.5h-9.8zM63.2 23.8c0-.2.3-.4.7-.4h6.5c.4 0 .7.2.7.4v8.6c0 .2-.3.4-.7.4h-6.5c-.4 0-.7-.2-.7-.4v-8.6zm0 13.9c0-.2.3-.4.7-.4h6.5c.4 0 .7.2.7.4v8.6c0 .2-.3.4-.7.4h-6.5c-.4 0-.7-.2-.7-.4v-8.6zm0 13.9c0-.2.3-.4.7-.4h6.5c.4 0 .7.2.7.4v8.6c0 .2-.3.4-.7.4h-6.5c-.4 0-.7-.2-.7-.4v-8.6zm0 14c0-.2.3-.4.7-.4h6.5c.4 0 .7.2.7.4v8.6c0 .2-.3.4-.7.4h-6.5c-.4 0-.7-.2-.7-.4v-8.6zM49.1 23.8c0-.2.3-.4.7-.4h6.5c.4 0 .7.2.7.4v8.6c0 .2-.3.4-.7.4h-6.5c-.4 0-.7-.2-.7-.4v-8.6zm0 13.9c0-.2.3-.4.7-.4h6.5c.4 0 .7.2.7.4v8.6c0 .2-.3.4-.7.4h-6.5c-.4 0-.7-.2-.7-.4v-8.6zm0 13.9c0-.2.3-.4.7-.4h6.5c.4 0 .7.2.7.4v8.6c0 .2-.3.4-.7.4h-6.5c-.4 0-.7-.2-.7-.4v-8.6zm0 14c0-.2.3-.4.7-.4h6.5c.4 0 .7.2.7.4v8.6c0 .2-.3.4-.7.4h-6.5c-.4 0-.7-.2-.7-.4v-8.6zM35 23.8c0-.2.3-.4.7-.4h6.5c.4 0 .7.2.7.4v8.6c0 .2-.3.4-.7.4h-6.5c-.4 0-.7-.2-.7-.4v-8.6zm0 13.9c0-.2.3-.4.7-.4h6.5c.4 0 .7.2.7.4v8.6c0 .2-.3.4-.7.4h-6.5c-.4 0-.7-.2-.7-.4v-8.6zm0 13.9c0-.2.3-.4.7-.4h6.5c.4 0 .7.2.7.4v8.6c0 .2-.3.4-.7.4h-6.5c-.4 0-.7-.2-.7-.4v-8.6zm0 14c0-.2.3-.4.7-.4h6.5c.4 0 .7.2.7.4v8.6c0 .2-.3.4-.7.4h-6.5c-.4 0-.7-.2-.7-.4v-8.6z"/></g><path d="M51.7 0l-2.4 5.3-5.2.8 3.8 4.1-.9 5.9 4.7-2.8 4.7 2.8-.9-5.9 3.8-4.1-5.2-.8L51.7 0"/><path d="M39.4 4.5l-1.7 3.9-3.8.6 2.8 3-.7 4.2 3.4-2 3.5 2-.7-4.2L45 9l-3.8-.6-1.8-3.9M64 5l-1.8 3.9-3.8.6 2.8 3-.7 4.2 3.5-2 3.4 2-.6-4.2 2.7-3-3.8-.6L64 5"/></svg>