<?xml version="1.0" encoding="UTF-8" standalone="no"?>
<!-- Created with Inkscape (http://www.inkscape.org/) -->

<svg
   xmlns:dc="http://purl.org/dc/elements/1.1/"
   xmlns:cc="http://creativecommons.org/ns#"
   xmlns:rdf="http://www.w3.org/1999/02/22-rdf-syntax-ns#"
   xmlns:svg="http://www.w3.org/2000/svg"
   xmlns="http://www.w3.org/2000/svg"
   xmlns:sodipodi="http://sodipodi.sourceforge.net/DTD/sodipodi-0.dtd"
   xmlns:inkscape="http://www.inkscape.org/namespaces/inkscape"
   id="svg2"
   version="1.1"
   inkscape:version="0.91 r13725"
   xml:space="preserve"
   width="125"
   height="125"
   viewBox="0 0 125 125"
   sodipodi:docname="awards.svg"><metadata
     id="metadata8"><rdf:RDF><cc:Work
         rdf:about=""><dc:format>image/svg+xml</dc:format><dc:type
           rdf:resource="http://purl.org/dc/dcmitype/StillImage" /><dc:title></dc:title></cc:Work></rdf:RDF></metadata><defs
     id="defs6"><clipPath
       clipPathUnits="userSpaceOnUse"
       id="clipPath16"><path
         d="M 0,100 100,100 100,0 0,0 0,100 Z"
         id="path18"
         inkscape:connector-curvature="0" /></clipPath></defs><sodipodi:namedview
     pagecolor="#ffffff"
     bordercolor="#666666"
     borderopacity="1"
     objecttolerance="10"
     gridtolerance="10"
     guidetolerance="10"
     inkscape:pageopacity="0"
     inkscape:pageshadow="2"
     inkscape:window-width="735"
     inkscape:window-height="480"
     id="namedview4"
     showgrid="false"
     inkscape:zoom="1.888"
     inkscape:cx="62.5"
     inkscape:cy="62.5"
     inkscape:window-x="0"
     inkscape:window-y="23"
     inkscape:window-maximized="0"
     inkscape:current-layer="g10" /><g
     id="g10"
     inkscape:groupmode="layer"
     inkscape:label="icons_themen"
     transform="matrix(1.25,0,0,-1.25,0,125)"><g
       id="g12"><g
         id="g14"
         clip-path="url(#clipPath16)"><g
           id="g20"
           transform="translate(58.6123,33.7064)"><path
             d="M 0,0 C 5.002,6.115 13.514,7.908 21.028,6.729 L 22.599,6.482 21.64,5.215 C 16.854,-1.108 8.027,-3.07 0.544,-1.534 L -0.997,-1.218 0,0 Z"
             style="fill:#000000;fill-opacity:1;fill-rule:nonzero;stroke:none"
             id="path22"
             inkscape:connector-curvature="0" /></g><g
           id="g24"
           transform="translate(60.5613,78.7028)"><path
             d="m 0,0 c 5.268,-4.236 8.416,-11.259 7.109,-18.014 l -0.287,-1.481 -1.212,0.896 c -5.401,3.997 -9.051,11.414 -7.12,18.121 L -1.114,0.896 0,0 Z"
             style="fill:#000000;fill-opacity:1;fill-rule:nonzero;stroke:none"
             id="path26"
             inkscape:connector-curvature="0" /></g><g
           id="g28"
           transform="translate(82.273,56.9618)"><path
             d="m 0,0 c -1.034,-7.349 -6.313,-14.806 -13.84,-16.467 l -1.395,-0.309 0.255,1.408 c 1.34,7.372 6.479,14.11 13.753,16.407 L 0.21,1.494 0,0 Z"
             style="fill:#000000;fill-opacity:1;fill-rule:nonzero;stroke:none"
             id="path30"
             inkscape:connector-curvature="0" /></g><g
           id="g32"
           transform="translate(74.4283,73.1079)"><path
             d="m 0,0 c 2.788,-6.436 1.941,-14.22 -2.36,-19.792 l -1.01,-1.308 -0.625,1.53 c -2.628,6.458 -1.973,14.21 2.371,19.776 L -0.637,1.469 0,0 Z"
             style="fill:#000000;fill-opacity:1;fill-rule:nonzero;stroke:none"
             id="path34"
             inkscape:connector-curvature="0" /></g><g
           id="g36"
           transform="translate(27.1945,73.3138)"><path
             d="m 0,0 c 4.346,-5.566 5,-13.317 2.371,-19.776 l -0.623,-1.53 -1.011,1.307 c -4.301,5.573 -5.148,13.357 -2.359,19.793 L -0.985,1.263 0,0 Z"
             style="fill:#000000;fill-opacity:1;fill-rule:nonzero;stroke:none"
             id="path38"
             inkscape:connector-curvature="0" /></g><g
           id="g40"
           transform="translate(40.8433,32.1732)"><path
             d="m 0,0 c -7.482,-1.536 -16.309,0.426 -21.095,6.749 l -0.959,1.267 1.57,0.246 C -12.969,9.442 -4.459,7.648 0.545,1.534 L 1.541,0.316 0,0 Z"
             style="fill:#000000;fill-opacity:1;fill-rule:nonzero;stroke:none"
             id="path42"
             inkscape:connector-curvature="0" /></g><g
           id="g44"
           transform="translate(40.9486,78.224)"><path
             d="m 0,0 c 1.931,-6.706 -1.717,-14.124 -7.119,-18.12 l -1.214,-0.896 -0.285,1.481 c -1.306,6.754 1.84,13.778 7.108,18.014 L -0.395,1.374 0,0 Z"
             style="fill:#000000;fill-opacity:1;fill-rule:nonzero;stroke:none"
             id="path46"
             inkscape:connector-curvature="0" /></g><g
           id="g48"
           transform="translate(18.9555,58.0006)"><path
             d="m 0,0 c 7.272,-2.297 12.413,-9.035 13.753,-16.407 l 0.255,-1.407 -1.395,0.308 C 5.084,-15.845 -0.194,-8.388 -1.229,-1.039 L -1.439,0.455 0,0 Z"
             style="fill:#000000;fill-opacity:1;fill-rule:nonzero;stroke:none"
             id="path50"
             inkscape:connector-curvature="0" /></g><g
           id="g52"
           transform="translate(55.2795,26.8843)"><path
             d="M 0,0 C 1.225,-1.302 2.497,-2.555 3.966,-3.546 L 4.977,-4.225 4.07,-5.041 C 3.695,-5.378 3.326,-5.717 2.957,-6.059 L 2.503,-6.482 1.932,-6.235 c -3.5,1.511 -4.494,5.27 -7.212,7.043 -2.717,-1.773 -3.71,-5.532 -7.21,-7.044 l -0.572,-0.247 -0.455,0.424 c -0.368,0.343 -0.738,0.681 -1.111,1.017 l -0.906,0.816 1.011,0.679 c 1.468,0.991 2.741,2.244 3.965,3.546 -1.677,-0.83 -3.342,-1.787 -5.252,-2.145 -3.411,-0.573 -7.061,-0.777 -10.304,0.637 l -1.568,0.683 1.408,0.972 c 3.206,2.211 6.648,4.272 10.636,4.589 3.138,0.173 6.321,0.095 9.397,-0.614 l 0.039,-0.009 0.04,-0.013 c 0.581,-0.188 1.186,-0.188 1.768,0 l 0.039,0.013 0.041,0.009 C -1.24,4.83 1.942,4.908 5.093,4.735 9.071,4.418 12.512,2.356 15.717,0.146 l 1.407,-0.972 -1.567,-0.683 C 12.314,-2.924 8.664,-2.719 5.245,-2.145 3.339,-1.787 1.675,-0.83 0,0"
             style="fill:#000000;fill-opacity:1;fill-rule:nonzero;stroke:none"
             id="path54"
             inkscape:connector-curvature="0" /></g></g></g></g></svg>