<svg xmlns="http://www.w3.org/2000/svg" x="0px" y="0px"
	 viewBox="0 0 28.9 32.1" >
<g id="Ebene_1">
	<path class="st0" d="M25.7,3.2H19C18.3,1.4,16.6,0,14.5,0s-3.9,1.4-4.5,3.2H3.2C1.4,3.2,0,4.7,0,6.4v22.5c0,1.8,1.4,3.2,3.2,3.2
		h22.5c1.8,0,3.2-1.4,3.2-3.2V6.4C28.9,4.7,27.5,3.2,25.7,3.2z M14.5,3.2c0.9,0,1.6,0.7,1.6,1.6s-0.7,1.6-1.6,1.6
		c-0.9,0-1.6-0.7-1.6-1.6S13.6,3.2,14.5,3.2z M17.7,25.7H6.4v-3.2h11.3V25.7z M22.5,19.3H6.4v-3.2h16.1V19.3z M22.5,12.9H6.4V9.6
		h16.1V12.9z"/>
</g>
<g id="Ebene_2">
</g>
</svg>
