<svg  xmlns="http://www.w3.org/2000/svg"  x="0px" y="0px"
	 viewBox="0 0 30.1 43.2" >
<path class="st0" d="M29.8,21.9l-1.3-8.1L28,10.5c-0.1-0.5-0.7-1.1-1.3-1.1h-1.9h-0.6h-0.4c0,0-0.1-0.1-0.1-0.1
	c-0.1-0.1-0.1-0.1-0.1-0.2c0,0-0.1-0.2-0.1-0.3c0,0,0-0.1,0-0.1l0.2-0.1l0.1-0.1c0.1-0.1,0.3-0.3,0.4-0.4c0.2-0.2,0.3-0.4,0.5-0.7
	c0.2-0.3,0.3-0.6,0.4-0.9c0.4,0,0.6-0.4,0.6-0.9c0-0.1,0-0.3-0.1-0.4c0.1-0.2,0.1-0.6,0-1.2c-0.4-2.8-1.4-3.8-3.8-3.8
	c-2.5,0-3.5,1-3.8,3.8c-0.1,0.6-0.1,1,0,1.2c0,0.1-0.1,0.3-0.1,0.4c0,0.5,0.3,0.9,0.6,0.9c0.1,0.3,0.3,0.6,0.4,0.9
	c0.1,0.2,0.3,0.5,0.5,0.7c0.1,0.2,0.3,0.3,0.4,0.4L20,8.6l0.2,0.1c0,0,0,0.1,0,0.1C20.1,8.9,20,9.1,20,9.1c0,0.1-0.1,0.2-0.1,0.2
	c0,0-0.1,0.1-0.1,0.1h-0.4h-0.6h-1.9c-0.6,0-1.2,0.6-1.3,1.1l-0.5,3.3l-0.4,2.6l-1.3-5.5c-0.1-0.5-0.7-1.1-1.3-1.1H10
	C9.9,9.7,9.8,9.6,9.7,9.5C12.4,9.4,14.1,8.4,14,7c0-0.1-1.3,0.8-1.8-2.5c-0.4-2.6-1.4-3.9-4-4v0c0,0,0,0,0,0c0,0,0,0,0,0v0
	c-2.6,0.1-3.6,1.4-4,4C3.7,7.8,2.4,6.9,2.3,7C2.2,8.4,3.9,9.4,6.6,9.5C6.5,9.6,6.4,9.7,6.3,9.8H4.2c-0.6,0-1.2,0.6-1.3,1.1L0.3,22.4
	c0,0.2,0.1,0.5,0.3,0.7c0.2,0.2,0.5,0.3,0.8,0.4c0.1,0,0.2,0,0.2,0c0.6,0,1-0.3,1.1-0.7l2.1-8.3c0.2,0.4,0.3,0.9,0.5,1.1l0,0.4
	L2.2,29.7H5v12C5,42.4,5.6,43,6.4,43c0.8,0,1.5-0.5,1.5-1.2v-12l0.6,0v12c0,0.7,0.7,1.2,1.5,1.2c0.8,0,1.5-0.5,1.5-1.2v-12h2.7
	l-3.1-13.8l0-0.4c0,0,0,0,0,0l0,0c0.1-0.2,0.3-0.6,0.5-1.1l0,0l2.1,8.3c0.1,0.4,0.5,0.7,1.1,0.7c0.1,0,0.2,0,0.2,0
	c0.3,0,0.6-0.2,0.8-0.4c0.1-0.1,0.2-0.3,0.2-0.4c0.1-0.1,0.2-0.2,0.2-0.4l1-6.7v8.6c0,0.6,0.2,0.8,0.5,0.8v0l0.1,0v16.4
	c0,0.7,0.8,1.5,1.8,1.5c1,0,1.8-0.8,1.8-1.5V25.1h0.9v16.4c0,0.7,0.8,1.5,1.8,1.5c1,0,1.8-0.8,1.8-1.5V25.1l0.1,0v0
	c0.3-0.1,0.5-0.2,0.5-0.8v-8.6l1,6.7c0.1,0.4,0.5,0.7,1.1,0.7c0.1,0,0.2,0,0.2,0c0.3,0,0.6-0.2,0.8-0.4
	C29.7,22.4,29.8,22.2,29.8,21.9z"/>
</svg>
