<svg  xmlns="http://www.w3.org/2000/svg" x="0px" y="0px"
	 viewBox="0 0 28 18.1" >
<g>
	<path class="st5" d="M6,8.1H2c-1.1,0-2-0.9-2-2v-4c0-1.1,0.9-2,2-2h4c1.1,0,2,0.9,2,2v4C8,7.2,7.1,8.1,6,8.1z"/>
	<path class="st5" d="M16,8h-4c-1.1,0-2-0.9-2-2V2c0-1.1,0.9-2,2-2h4c1.1,0,2,0.9,2,2v4C18,7.1,17.1,8,16,8z"/>
	<path class="st5" d="M26,8h-4c-1.1,0-2-0.9-2-2V2c0-1.1,0.9-2,2-2h4c1.1,0,2,0.9,2,2v4C28,7.1,27.1,8,26,8z"/>
</g>
<g>
	<path class="st5" d="M6,18.1H2c-1.1,0-2-0.9-2-2v-4c0-1.1,0.9-2,2-2h4c1.1,0,2,0.9,2,2v4C8,17.2,7.1,18.1,6,18.1z"/>
	<path class="st5" d="M16,18.1h-4c-1.1,0-2-0.9-2-2v-4c0-1.1,0.9-2,2-2h4c1.1,0,2,0.9,2,2v4C18,17.2,17.1,18.1,16,18.1z"/>
	<path class="st5" d="M26,18.1h-4c-1.1,0-2-0.9-2-2v-4c0-1.1,0.9-2,2-2h4c1.1,0,2,0.9,2,2v4C28,17.2,27.1,18.1,26,18.1z"/>
</g>
</svg>
