<svg  xmlns="http://www.w3.org/2000/svg"  x="0px" y="0px"
	 viewBox="0 0 24.6 24.6" >

<g>
	<rect x="9.5" y="11.2" class="st0" width="5.6" height="2.2"/>
	<path class="st0" d="M8.9,7.8H7.3C7.2,7.8,7.1,7.9,7.1,8v8.7c0,0.1,0.1,0.2,0.2,0.2h1.6c0.1,0,0.2-0.1,0.2-0.2V8
		C9.1,7.9,9,7.8,8.9,7.8z"/>
	<path class="st0" d="M6.5,9.1H4.9c-0.1,0-0.2,0.1-0.2,0.2v6.1c0,0.1,0.1,0.2,0.2,0.2h1.6c0.1,0,0.2-0.1,0.2-0.2V9.3
		C6.7,9.2,6.6,9.1,6.5,9.1z"/>
	<path class="st0" d="M3.1,11.8v1c0,0.4,0.3,0.8,0.6,0.8c0.3,0,0.6,0,0.6,0V11H3.7C3.4,11,3.1,11.4,3.1,11.8z"/>
	<path class="st0" d="M17.3,7.8h-1.6c-0.1,0-0.2,0.1-0.2,0.2v8.7c0,0.1,0.1,0.2,0.2,0.2h1.6c0.1,0,0.2-0.1,0.2-0.2V8
		C17.5,7.9,17.4,7.8,17.3,7.8z"/>
	<path class="st0" d="M19.7,9.1h-1.6c-0.1,0-0.2,0.1-0.2,0.2v6.1c0,0.1,0.1,0.2,0.2,0.2h1.6c0.1,0,0.2-0.1,0.2-0.2V9.3
		C19.9,9.2,19.8,9.1,19.7,9.1z"/>
	<path class="st0" d="M20.9,11c-0.3,0-0.6,0-0.6,0v2.6h0.6c0.3,0,0.6-0.4,0.6-0.8v-1C21.5,11.4,21.2,11,20.9,11z"/>
</g>
</svg>
