<?xml version="1.0" encoding="UTF-8" standalone="no"?>
<!-- Created with Inkscape (http://www.inkscape.org/) -->

<svg
   xmlns:dc="http://purl.org/dc/elements/1.1/"
   xmlns:cc="http://creativecommons.org/ns#"
   xmlns:rdf="http://www.w3.org/1999/02/22-rdf-syntax-ns#"
   xmlns:svg="http://www.w3.org/2000/svg"
   xmlns="http://www.w3.org/2000/svg"
   xmlns:sodipodi="http://sodipodi.sourceforge.net/DTD/sodipodi-0.dtd"
   xmlns:inkscape="http://www.inkscape.org/namespaces/inkscape"
   id="svg2"
   version="1.1"
   inkscape:version="0.91 r13725"
   xml:space="preserve"
   width="125"
   height="125"
   viewBox="0 0 125 125"
   sodipodi:docname="romantik-liebe.svg"><metadata
     id="metadata8"><rdf:RDF><cc:Work
         rdf:about=""><dc:format>image/svg+xml</dc:format><dc:type
           rdf:resource="http://purl.org/dc/dcmitype/StillImage" /><dc:title></dc:title></cc:Work></rdf:RDF></metadata><defs
     id="defs6"><clipPath
       clipPathUnits="userSpaceOnUse"
       id="clipPath16"><path
         d="M 0,100 100,100 100,0 0,0 0,100 Z"
         id="path18"
         inkscape:connector-curvature="0" /></clipPath></defs><sodipodi:namedview
     pagecolor="#ffffff"
     bordercolor="#666666"
     borderopacity="1"
     objecttolerance="10"
     gridtolerance="10"
     guidetolerance="10"
     inkscape:pageopacity="0"
     inkscape:pageshadow="2"
     inkscape:window-width="735"
     inkscape:window-height="480"
     id="namedview4"
     showgrid="false"
     inkscape:zoom="1.888"
     inkscape:cx="62.5"
     inkscape:cy="62.5"
     inkscape:window-x="0"
     inkscape:window-y="23"
     inkscape:window-maximized="0"
     inkscape:current-layer="g10" /><g
     id="g10"
     inkscape:groupmode="layer"
     inkscape:label="icons_themen"
     transform="matrix(1.25,0,0,-1.25,0,125)"><g
       id="g12"><g
         id="g14"
         clip-path="url(#clipPath16)"><g
           id="g20"
           transform="translate(39.1754,42.3211)"><path
             d="M 0,0 1.148,1.47 2.098,-0.133 0,0 Z m 12.164,11.547 c -5.819,4.546 -9.231,9.389 -10.9,13.757 -3.093,1.994 -6.137,2.566 -8.566,1.539 -2.302,-0.992 -3.751,-3.242 -3.981,-6.19 C -11.657,15.952 -8.776,8.896 0.245,2.833 L -3.038,-1.36 0.011,-1.557 c 1.118,-14.213 5.838,-21.782 6.043,-22.1 0.142,-0.224 0.384,-0.347 0.632,-0.347 0.138,0 0.278,0.038 0.403,0.118 0.349,0.223 0.452,0.686 0.228,1.036 -0.047,0.074 -4.669,7.488 -5.791,21.196 L 4.92,-1.873 2.218,2.7 c 4.735,2.75 7.943,5.844 9.946,8.847"
             style="fill:#000000;fill-opacity:1;fill-rule:nonzero;stroke:none"
             id="path22"
             inkscape:connector-curvature="0" /></g><g
           id="g24"
           transform="translate(53.9469,50.4045)"><path
             d="M 0,0 1.218,1.416 2.087,-0.237 0,0 Z m 18.192,23.449 c -0.014,3.436 -1.467,6.161 -3.984,7.473 -2.935,1.525 -6.873,0.961 -11.088,-1.59 l -0.43,-0.26 -0.403,0.297 c -2.816,2.071 -5.578,3.137 -8.034,3.137 -1.011,0 -1.97,-0.18 -2.859,-0.545 -2.64,-1.082 -4.338,-3.663 -4.657,-7.082 -0.528,-5.635 2.853,-14.295 13.806,-21.875 l -3.639,-4.207 3.484,-0.396 c 1.585,-7.512 -3.134,-30.577 -3.183,-30.815 -0.084,-0.405 0.177,-0.802 0.583,-0.886 0.051,-0.01 0.101,-0.015 0.152,-0.015 0.348,0 0.66,0.244 0.734,0.598 0.198,0.962 4.636,22.658 3.27,30.941 L 4.833,-2.105 2.245,2.788 c 11.739,6.596 15.949,14.953 15.947,20.661"
             style="fill:#000000;fill-opacity:1;fill-rule:nonzero;stroke:none"
             id="path26"
             inkscape:connector-curvature="0" /></g></g></g></g></svg>