
<svg xmlns="http://www.w3.org/2000/svg" viewBox="0 0 20 15.4" >
<path id="path5855" d="M16.3,15.3c-0.4,0-0.7-0.2-0.8-0.6c-0.1-0.3-0.1-2.9-0.1-3.1c0-0.1,0-0.1-5.5-0.1c-4.3,0-5.6,0-5.5,0
	c0.1,0.1,0.1,2.5,0,2.9c0,0.3-0.2,0.5-0.4,0.6l-0.2,0.1l-1,0c-1.2,0-1.2,0-1.5-0.3l-0.2-0.2v-1.5c0-1.3,0-1.5,0.1-1.6
	c0.1-0.1,0-0.1-0.1-0.1c-0.4-0.1-0.8-0.3-1-0.8C0.1,10.6,0.1,10.6,0,9.6c0-0.7,0-1.3,0-1.9c0-1,0-1,0.5-1.6C0.9,5.4,1.1,5,2.3,2.3
	c0.8-1.7,0.9-2,1.4-2.2C3.8,0.1,3.9,0.1,4.7,0c1.1,0,9.4,0,10.6,0c0.8,0,0.9,0,1.1,0.1c0.5,0.2,0.6,0.5,1.7,3c0.8,1.9,1,2.2,1.3,2.7
	c0.4,0.7,0.5,0.8,0.5,1.5c0,0.7,0,2.1,0,2.7c0,0.6-0.1,0.8-0.4,1.1c-0.2,0.3-0.4,0.3-0.7,0.4c-0.2,0-0.2,0-0.1,0.1
	c0.1,0.1,0.1,0.3,0.1,1.6v1.5L18.6,15c-0.1,0.1-0.3,0.3-0.3,0.3C18.2,15.4,16.8,15.4,16.3,15.3L16.3,15.3z M3.2,8.9
	C3.7,8.7,4,8.1,3.8,7.6C3.8,7.3,3.4,7,3.2,6.9C3,6.8,2.7,6.8,2.6,6.9C2.1,7,1.7,7.5,1.7,8C1.8,8.8,2.6,9.2,3.2,8.9z M17.5,8.9
	c0.3-0.1,0.6-0.4,0.7-0.7c0.2-0.7-0.3-1.4-1.1-1.4c-0.3,0-0.6,0.1-0.8,0.4c-0.5,0.5-0.3,1.3,0.3,1.7C16.8,9,16.9,9,17.1,9
	C17.2,9,17.4,9,17.5,8.9z M15.7,5l1.4,0l-0.4-0.9c-0.4-1-1-2.3-1.1-2.3c0,0-7.5-0.1-9.5,0l-1.7,0L4.2,2.2C4,2.5,3.1,4.7,2.9,5
	c0,0,0.3,0,1.3,0.1C6.9,5.1,14.4,5.1,15.7,5L15.7,5z"/>
</svg>
