<?xml version="1.0" encoding="utf-8"?>
<!-- Generator: Adobe Illustrator 19.2.1, SVG Export Plug-In . SVG Version: 6.00 Build 0)  -->
<svg version="1.1" id="Ebene_1" xmlns="http://www.w3.org/2000/svg" xmlns:xlink="http://www.w3.org/1999/xlink" x="0px" y="0px"
	 viewBox="0 0 20 20" style="enable-background:new 0 0 20 20;" xml:space="preserve">

<path class="st2" d="M5,10c0,1.4,0.5,2.6,1.5,3.5S8.6,15,10,15s2.6-0.5,3.5-1.5S15,11.4,15,10s-0.5-2.6-1.5-3.5S11.4,5,10,5
	S7.4,5.5,6.5,6.5S5,8.6,5,10z M10,18.3c-2.3,0-4.3-0.8-5.9-2.4c-1.6-1.6-2.4-3.6-2.4-5.9s0.8-4.3,2.4-5.9S7.7,1.7,10,1.7
	s4.3,0.8,5.9,2.4s2.4,3.6,2.4,5.9s-0.8,4.3-2.4,5.9C14.3,17.5,12.3,18.3,10,18.3z M10,0C7.2,0,4.9,1,2.9,2.9S0,7.2,0,10
	s1,5.1,2.9,7.1S7.2,20,10,20s5.1-1,7.1-2.9S20,12.8,20,10s-1-5.1-2.9-7.1S12.8,0,10,0z"/>
</svg>
