<?xml version="1.0" encoding="UTF-8" standalone="no"?>
<!-- Created with Inkscape (http://www.inkscape.org/) -->

<svg
   xmlns:dc="http://purl.org/dc/elements/1.1/"
   xmlns:cc="http://creativecommons.org/ns#"
   xmlns:rdf="http://www.w3.org/1999/02/22-rdf-syntax-ns#"
   xmlns:svg="http://www.w3.org/2000/svg"
   xmlns="http://www.w3.org/2000/svg"
   xmlns:sodipodi="http://sodipodi.sourceforge.net/DTD/sodipodi-0.dtd"
   xmlns:inkscape="http://www.inkscape.org/namespaces/inkscape"
   id="svg2"
   version="1.1"
   inkscape:version="0.91 r13725"
   xml:space="preserve"
   width="125"
   height="125"
   viewBox="0 0 125 125"
   sodipodi:docname="berge-natur.svg"><metadata
     id="metadata8"><rdf:RDF><cc:Work
         rdf:about=""><dc:format>image/svg+xml</dc:format><dc:type
           rdf:resource="http://purl.org/dc/dcmitype/StillImage" /><dc:title></dc:title></cc:Work></rdf:RDF></metadata><defs
     id="defs6"><clipPath
       clipPathUnits="userSpaceOnUse"
       id="clipPath16"><path
         d="M 0,100 100,100 100,0 0,0 0,100 Z"
         id="path18"
         inkscape:connector-curvature="0" /></clipPath></defs><sodipodi:namedview
     pagecolor="#ffffff"
     bordercolor="#666666"
     borderopacity="1"
     objecttolerance="10"
     gridtolerance="10"
     guidetolerance="10"
     inkscape:pageopacity="0"
     inkscape:pageshadow="2"
     inkscape:window-width="735"
     inkscape:window-height="480"
     id="namedview4"
     showgrid="false"
     inkscape:zoom="1.888"
     inkscape:cx="62.5"
     inkscape:cy="62.5"
     inkscape:window-x="0"
     inkscape:window-y="23"
     inkscape:window-maximized="0"
     inkscape:current-layer="g10" /><g
     id="g10"
     inkscape:groupmode="layer"
     inkscape:label="icons_themen"
     transform="matrix(1.25,0,0,-1.25,0,125)"><g
       id="g12"><g
         id="g14"
         clip-path="url(#clipPath16)"><g
           id="g20"
           transform="translate(72.2377,45.9521)"><path
             d="M 0,0 -2.5,5.667 -4.75,1.083 -6.583,4.25 -8.667,1.583 l -1.164,1.084 -1.478,-0.525 5.88,8.371 c 1.735,2.461 1.209,2.406 2.859,0.007 L 6.792,-2.893 1.917,1.75 0,0 Z m -2.733,13.213 c -0.727,1.025 -1.874,1.025 -2.601,0 L -12.812,2.677 1.49,-17.474 l 17.557,0 -21.78,30.687 z"
             style="fill:#000000;fill-opacity:1;fill-rule:nonzero;stroke:none"
             id="path22"
             inkscape:connector-curvature="0" /></g><g
           id="g24"
           transform="translate(44.3689,55.8799)"><path
             d="m 0,0 -2.858,-5.702 -3.394,9.716 -4.343,-8.803 -2.992,2.455 -4.22,-2.579 11.687,16.778 c 2.049,2.991 2.049,2.991 4.12,-0.009 L 7.543,-2.452 5.002,-6.91 0,0 Z m -2.29,14.59 c -0.996,1.403 -2.565,1.403 -3.561,0 l -29.803,-41.992 63.167,0 L -2.29,14.59 Z"
             style="fill:#000000;fill-opacity:1;fill-rule:nonzero;stroke:none"
             id="path26"
             inkscape:connector-curvature="0" /></g></g></g></g></svg>