<svg xmlns="http://www.w3.org/2000/svg"  x="0px" y="0px"
	 viewBox="0 0 24.6 24.6" >
<g>
	<path class="st0" d="M18.6,13.3c-0.1-0.3-0.4-0.5-0.7-0.4l0,0l0,0l0,0c-0.2,0-0.3,0.2-0.4,0.3c-0.2,0.4-0.5,0.7-0.9,0.8
		c-0.2,0.1-0.4,0.1-0.6,0.1c-0.2,0-0.4-0.1-0.6-0.1c-0.3-0.1-0.5-0.4-0.6-0.7c-0.1-0.3-0.4-0.5-0.7-0.4l0,0l0,0l0,0
		c-0.2,0-0.3,0.2-0.4,0.3c-0.2,0.4-0.5,0.7-0.9,0.8c-0.2,0.1-0.4,0.1-0.6,0.1c-0.2,0-0.4-0.1-0.6-0.1c-0.3-0.1-0.5-0.4-0.6-0.7
		c-0.1-0.3-0.4-0.5-0.7-0.4l0,0l0,0l0,0c-0.2,0-0.3,0.2-0.4,0.3C9.7,13.6,9.4,13.9,9,14c-0.2,0.1-0.4,0.1-0.6,0.1
		c-0.2,0-0.4-0.1-0.6-0.1c-0.3-0.1-0.5-0.4-0.6-0.7l0,0c-0.1-0.3-0.5-0.5-0.8-0.4c-0.3,0.1-0.5,0.5-0.4,0.8c0.2,0.7,0.7,1.1,1.2,1.4
		c0.3,0.2,0.7,0.2,1.1,0.3c0.4,0,0.7,0,1.1-0.2c0.3-0.1,0.7-0.3,1-0.6c0.2,0.2,0.4,0.4,0.7,0.5c0.3,0.2,0.7,0.2,1.1,0.3
		c0.4,0,0.7,0,1.1-0.2c0.3-0.1,0.7-0.3,1-0.6c0.2,0.2,0.4,0.4,0.7,0.5c0.3,0.2,0.7,0.2,1.1,0.3c0.4,0,0.7,0,1.1-0.2
		c0.3-0.1,0.7-0.3,1-0.6C17.9,14.6,18.7,13.8,18.6,13.3z"/>
	<path class="st0" d="M17.9,17.7c-0.3,0.2-0.6,0.5-1,0.6c-0.3,0.1-0.7,0.2-1.1,0.2c-0.4,0-0.7-0.1-1.1-0.3c-0.3-0.1-0.5-0.3-0.7-0.5
		c-0.3,0.3-0.6,0.5-1,0.6c-0.3,0.1-0.7,0.2-1.1,0.2c-0.4,0-0.7-0.1-1.1-0.3c-0.3-0.1-0.5-0.3-0.7-0.5c-0.3,0.3-0.6,0.5-1,0.6
		c-0.3,0.1-0.7,0.2-1.1,0.2c-0.4,0-0.7-0.1-1.1-0.3c-0.5-0.3-1-0.7-1.2-1.4c-0.1-0.3,0-0.7,0.4-0.8c0.3-0.1,0.7,0,0.8,0.4l0,0
		c0.1,0.3,0.3,0.6,0.6,0.7c0.2,0.1,0.4,0.1,0.6,0.1c0.2,0,0.4,0,0.6-0.1c0.4-0.1,0.7-0.4,0.9-0.8c0.1-0.2,0.2-0.3,0.4-0.3l0,0l0,0
		l0,0c0.3-0.1,0.6,0.1,0.7,0.4c0.1,0.3,0.3,0.6,0.6,0.7c0.2,0.1,0.4,0.1,0.6,0.1c0.2,0,0.4,0,0.6-0.1c0.4-0.1,0.7-0.4,0.9-0.8
		c0.1-0.2,0.2-0.3,0.4-0.3l0,0l0,0l0,0c0.3-0.1,0.6,0.1,0.7,0.4c0.1,0.3,0.3,0.6,0.6,0.7c0.2,0.1,0.4,0.1,0.6,0.1
		c0.2,0,0.4,0,0.6-0.1c0.4-0.1,0.7-0.4,0.9-0.8c0.1-0.2,0.2-0.3,0.4-0.3l0,0l0,0l0,0c0.3-0.1,0.6,0.1,0.7,0.4
		C18.6,16.7,18.4,17.4,17.9,17.7z"/>
	<path class="st1" d="M13,7.4c1,0.4,1.4,1.5,1,2.5c-0.4,1-1.5,1.4-2.5,1c-1-0.4-1.4-1.5-1-2.5C10.9,7.4,12,7,13,7.4L13,7.4z"/>
	<path class="st1" d="M8.9,7.2l0.9,0.4c0.3,0.1,0.4,0.4,0.3,0.6l0,0.1C9.9,8.5,9.6,8.6,9.4,8.5L8.5,8.2C8.2,8.1,8.1,7.8,8.2,7.5
		l0-0.1C8.3,7.2,8.6,7.1,8.9,7.2L8.9,7.2z"/>
	<path class="st1" d="M8.5,10.2l0.9-0.4c0.3-0.1,0.5,0,0.6,0.3l0,0.1c0.1,0.3,0,0.5-0.3,0.6l-0.9,0.4c-0.2,0.1-0.5,0-0.6-0.3l0-0.1
		C8.1,10.6,8.3,10.3,8.5,10.2L8.5,10.2z"/>
	<path class="st1" d="M15.7,11.1l-0.9-0.4c-0.3-0.1-0.4-0.4-0.3-0.6l0-0.1c0.1-0.3,0.4-0.4,0.6-0.3l0.9,0.4c0.3,0.1,0.4,0.4,0.3,0.6
		l0,0.1C16.3,11,16,11.2,15.7,11.1L15.7,11.1z"/>
	<path class="st1" d="M16.1,8.1l-0.9,0.4c-0.3,0.1-0.5,0-0.6-0.3l0-0.1c-0.1-0.3,0-0.5,0.3-0.6l0.9-0.4c0.2-0.1,0.5,0,0.6,0.3l0,0.1
		C16.5,7.7,16.3,8,16.1,8.1L16.1,8.1z"/>
	<path class="st1" d="M14.2,5.7l-0.4,0.9c-0.1,0.3-0.4,0.4-0.6,0.3l-0.1,0c-0.3-0.1-0.4-0.4-0.3-0.6l0.4-0.9C13.3,5,13.6,4.9,13.9,5
		l0.1,0C14.2,5.2,14.3,5.4,14.2,5.7L14.2,5.7z"/>
	<path class="st1" d="M11.3,5.3l0.4,0.9c0.1,0.3,0,0.5-0.3,0.6l-0.1,0c-0.3,0.1-0.5,0-0.6-0.3l-0.4-0.9c-0.1-0.2,0-0.5,0.3-0.6
		l0.1,0C10.9,5,11.1,5.1,11.3,5.3L11.3,5.3z"/>
</g>
</svg>
