<svg version="1.1" id="Ebene_1" xmlns="http://www.w3.org/2000/svg"  x="0px" y="0px"
	 viewBox="0 0 36 36" >
<path class="st10" d="M24.8,19.1H11.2c-0.3,0-0.6-0.1-0.8-0.3c-0.2-0.2-0.3-0.5-0.3-0.8s0.1-0.6,0.3-0.8c0.2-0.2,0.5-0.3,0.8-0.3
	h13.5c0.3,0,0.6,0.1,0.8,0.3c0.2,0.2,0.3,0.5,0.3,0.8s-0.1,0.6-0.3,0.8C25.3,19,25.1,19.1,24.8,19.1z M18,0c-2.5,0-4.8,0.5-7,1.4
	C8.8,2.3,6.9,3.6,5.3,5.3C3.6,6.9,2.3,8.8,1.4,11C0.5,13.2,0,15.5,0,18s0.5,4.8,1.4,7s2.2,4.1,3.8,5.7c1.6,1.6,3.5,2.9,5.7,3.8
	c2.2,0.9,4.5,1.4,7,1.4s4.8-0.5,7-1.4c2.2-0.9,4.1-2.2,5.7-3.8c1.6-1.6,2.9-3.5,3.8-5.7s1.4-4.5,1.4-7s-0.5-4.8-1.4-7
	c-0.9-2.2-2.2-4.1-3.8-5.7c-1.6-1.6-3.5-2.9-5.7-3.8C22.8,0.5,20.5,0,18,0z"/>
</svg>
