<svg  xmlns="http://www.w3.org/2000/svg"  x="0px"
	 y="0px" viewBox="0 0 103.3 103.3" >
<g>
	<path class="st0" d="M51.7,0C23.1,0,0,23.1,0,51.7s23.1,51.7,51.7,51.7c4.8,0,8.6-3.8,8.6-8.6c0-2.2-0.9-4.2-2.2-5.8
		c-1.3-1.5-2.2-3.5-2.2-5.7c0-4.8,3.8-8.6,8.6-8.6h10.2c15.8,0,28.7-12.9,28.7-28.7C103.3,20.6,80.2,0,51.7,0z M20.1,51.7
		c-4.8,0-8.6-3.8-8.6-8.6s3.8-8.6,8.6-8.6s8.6,3.8,8.6,8.6S24.9,51.7,20.1,51.7z M37.3,28.7c-4.8,0-8.6-3.8-8.6-8.6s3.8-8.6,8.6-8.6
		s8.6,3.8,8.6,8.6S42.1,28.7,37.3,28.7z M66,28.7c-4.8,0-8.6-3.8-8.6-8.6s3.8-8.6,8.6-8.6s8.6,3.8,8.6,8.6S70.8,28.7,66,28.7z
		 M83.2,51.7c-4.8,0-8.6-3.8-8.6-8.6s3.8-8.6,8.6-8.6c4.8,0,8.6,3.8,8.6,8.6S88,51.7,83.2,51.7z"/>
</g>
</svg>
