<svg  xmlns="http://www.w3.org/2000/svg"  x="0px" y="0px"
	 viewBox="0 0 20 20" style="enable-background:new 0 0 20 20;" xml:space="preserve">
<path d="M19.5,0.2C19.3,0.1,19.1,0,18.9,0c-0.4,0-0.7,0.2-0.9,0.5L9.7,12.6L6.4,8.8C6.2,8.7,6,8.6,5.7,8.6c-0.3,0-0.6,0.1-0.7,0.3
	C4.7,9.1,4.6,9.4,4.6,9.7c0,0.3,0.1,0.6,0.3,0.7l3.9,4.4c0,0,0,0.1,0,0.1s0,0,0,0L9,15.1c0,0,0,0,0,0c0,0,0,0,0,0c0,0,0,0,0,0
	c0,0,0,0,0.1,0c0,0,0.1,0.1,0.2,0.1c0,0,0,0,0,0c0.1,0,0.2,0,0.3,0c0.3,0,0.6-0.1,0.8-0.3c0,0,0-0.1,0-0.1c0,0,0,0,0.1,0l9.1-13.2
	C20,1.4,20,1.2,20,0.9C19.9,0.6,19.8,0.4,19.5,0.2z M16.9,18.5H1.5V3.1h11.4l1-1.5H1.5C1.1,1.5,0.8,1.7,0.5,2C0.2,2.3,0,2.7,0,3.1
	v15.4c0,0.4,0.2,0.8,0.5,1.1S1.1,20,1.5,20h15.4c0.4,0,0.8-0.2,1.1-0.5c0.3-0.3,0.5-0.7,0.5-1.1V8.3l-1.5,2.5V18.5z"/>
</svg>
