<svg xmlns="http://www.w3.org/2000/svg"><path data-name="Forma 1 copy" d="M14.09 16.626a.823.823 0 0 0 0 1.162.807.807 0 0 0 1.15 0l5.6-5.667a.955.955 0 0 0 0-1.243l-5.6-5.666a.807.807 0 0 0-1.15 0 .823.823 0 0 0 0 1.162l4.26 4.306H.81a.821.821 0 0 0 0 1.642h17.54zM22.75 0H6.5a3.271 3.271 0 0 0-3.25 3.285V6.57h1.63V3.287A1.628 1.628 0 0 1 6.5 1.644h16.25a1.628 1.628 0 0 1 1.62 1.643v16.425a1.629 1.629 0 0 1-1.62 1.643H6.5a1.628 1.628 0 0 1-1.62-1.643v-3.285H3.25v3.285A3.271 3.271 0 0 0 6.5 23h16.25A3.271 3.271 0 0 0 26 19.715V3.287A3.271 3.271 0 0 0 22.75 0z"/></svg>
