<svg xmlns="http://www.w3.org/2000/svg" viewBox="0 0 357.4 71"><title>Travador</title><path d="M308.3 28.3c11.9 0 21.4 8.9 21.4 21.3 0 12.5-9.5 21.3-21.3 21.3-11.9 0-21.4-8.8-21.4-21.3-.1-12.4 9.5-21.3 21.3-21.3zm.1 34.1c6.2 0 11.5-5.1 11.5-12.7 0-7.5-5.3-12.7-11.5-12.7-6.3 0-11.6 5.2-11.6 12.7 0 7.6 5.2 12.7 11.6 12.7zM261.7 28.3c8.9 0 11.7 5.2 11.7 5.2h.2s-.1-1-.1-2.3V13.3h10.1V70H274v-3.4c0-1.5.2-2.6.2-2.6h-.2s-3.4 7-12.8 7c-11 0-18.1-8.7-18.1-21.3.1-13 7.8-21.4 18.6-21.4zm1.9 34.1c5.3 0 10.2-3.8 10.2-12.9 0-6.3-3.4-12.5-10.1-12.5-5.6 0-10.2 4.6-10.2 12.6-.1 7.8 4.1 12.8 10.1 12.8zM94.6 38h-5.3v-8.1h5.5V18.2h9.9v11.7h9.3V38h-9.3v15.8c0 6.7 5.3 7.7 8.1 7.7 1.1 0 1.8-.2 1.8-.2v8.9s-1.2.2-3.1.2c-5.7 0-16.9-1.7-16.9-15.3V38zM169.3 28.3H180l8.5 25.8c.8 2.5 1.4 6.3 1.4 6.3h.2c.1 0 .6-3.8 1.4-6.3l8.5-25.8h10.7L196.1 70h-12l-14.8-41.7zM55.6 0C48.8 0 43 2.4 38.2 7.2c-1.2 1.2-2.2 2.4-3 3.6 3 1.3 5.7 3.2 8.2 5.6.5-.6.9-1.2 1.5-1.8 3-3 6.5-4.5 10.7-4.5s7.8 1.5 10.7 4.5c3 3 4.5 6.5 4.5 10.7 0 .6 0 1.2-.1 1.9-.2 2.3-.9 4.7-2 7.3-1.1 2.6-2.2 4.9-3.4 6.8-1.2 2-2.5 3.9-4 5.9-1 1.3-1.7 2.3-2.4 3 .6 2.8 1.1 5.7 1.5 8.7.3 2.3.6 4.1.7 5.6 1-1.2 2.1-2.6 3.6-4.6 2.4-3.2 4.6-6.4 6.5-9.6 1.9-3.2 3.8-6.8 5.6-11.1 1.8-4.2 2.9-8.1 3.2-11.8.1-1.1.1-2.1.1-3 0-6.8-2.4-12.6-7.2-17.4-4.7-4.6-10.5-7-17.3-7z"/><path d="M24.6 12.9c-6.8 0-12.6 2.4-17.4 7.2C2.4 24.9 0 30.7 0 37.5S2.4 50 7.2 54.8c.7.7 1.5 1.4 2.3 2.1 2.8 2.3 6.3 4.3 10.4 6s8.2 3 12.1 3.9c3.9.9 7.6 1.6 11.1 2.1s6.2.8 8.3 1c2.2.1 3.3.2 3.3.2.6 0 1.1.1 1.4 0 .3-.1.5-.3.6-.4.1-.1.2-.3.4-.6.1-.3.1-.5.1-1.4 0-.9 0-1.1-.2-3.3-.2-2-.4-4.3-1-8.3-.6-4-1.3-7.8-2.1-11.4-.9-3.6-2.2-7.5-3.9-11.7-1.7-4.2-3.7-7.8-6.1-10.6-.7-.8-1.4-1.6-2-2.2-4.7-4.9-10.5-7.3-17.3-7.3zm12.6 15.8c1.4 1.8 2.7 4 3.8 6.6 1.1 2.6 1.9 5 2.4 7.3.5 2.2 1 4.5 1.3 7 .4 2.5.5 3.9.6 5.2.1 1.4.1 1.5.1 2v.8c-.1.2-.2.3-.2.4-.1.1-.2.2-.4.2-.2.1-.5 0-.9 0 0 0-.7 0-2-.1s-3-.3-5.2-.6-4.5-.8-6.9-1.3c-2.4-.5-4.9-1.3-7.5-2.4-2.6-1.1-4.7-2.3-6.5-3.7-.5-.4-1-.9-1.4-1.3-3-3-4.4-6.5-4.4-10.7 0-4.2 1.5-7.8 4.4-10.7S20.9 23 25.1 23c4.2 0 7.8 1.5 10.7 4.4.5.3.9.7 1.4 1.3zM153.2 28.3c-1.2 0-3.8 0-6.6.1v8.3h5.7c4.5-.1 7.8 1.8 7.8 7.2v.6h-1.4c-6.6 0-24.1.9-24.1 13.8 0 8.1 6.6 12.7 13.8 12.7 9.3 0 12.5-7.2 12.4-7.2h.2s-.2 1.3-.2 2.9V70h9.3V44.6c0-10.4-6.2-16.3-16.9-16.3zm6.9 24.1c0 5-3.8 10.7-9.2 10.7-4.2 0-6.2-2.6-6.2-5.3 0-5.7 8.4-6.4 13.6-6.4h1.8v1zM223.1 28.3c-1.2 0-3.8 0-6.6.1v8.3h5.7c4.5-.1 7.8 1.8 7.8 7.2v.6h-1.4c-6.6 0-24.1.9-24.1 13.8 0 8.1 6.6 12.7 13.8 12.7 9.3 0 12.5-7.2 12.4-7.2h.2s-.2 1.3-.2 2.9V70h9.3V44.6c0-10.4-6.2-16.3-16.9-16.3zm6.9 24.1c0 5-3.8 10.7-9.2 10.7-4.2 0-6.2-2.6-6.2-5.3 0-5.7 8.4-6.4 13.6-6.4h1.8v1z"/><path d="M139.7 28.8h-.2c-.3 0-.5.1-.8.1-.1 0-.5.1-.5.1-5 1.1-8.8 5.2-10.3 10.2h-.2s.2-1.4.2-2.9v-7h-9.7V70h10.1V54.9c0-2.4.2-4.6.9-6.6 1.9-6.1 8.3-11.5 13.5-11.5v-8.2c-1.2 0-2.2.1-3 .2zM354.5 28.8h-.2c-.3 0-.5.1-.8.1-.1 0-.5.1-.5.1-5 1.1-8.8 5.2-10.3 10.2h-.2s.2-1.4.2-2.9v-7H333V70h10V54.9c0-2.4.2-4.6.9-6.6 1.9-6.1 8.3-11.5 13.5-11.5v-8.2c-1.1 0-2.1.1-2.9.2z"/></svg>