<?xml version="1.0" encoding="utf-8"?>
<svg xmlns="http://www.w3.org/2000/svg"><path fillRule="evenodd" d="M 16.24 16.56C 16.24 16.56 12.18 12.31 12.18 12.31 13.22 11.06 13.79 9.48 13.79 7.85 13.79 4.02 10.7 0.91 6.9 0.91 3.09 0.91-0 4.02-0 7.85-0 11.67 3.09 14.79 6.9 14.79 8.32 14.79 9.69 14.35 10.85 13.53 10.85 13.53 14.95 17.82 14.95 17.82 15.12 18 15.35 18.09 15.59 18.09 15.83 18.09 16.05 18 16.22 17.84 16.57 17.5 16.59 16.92 16.24 16.56ZM 6.9 2.72C 9.71 2.72 11.99 5.02 11.99 7.85 11.99 10.67 9.71 12.97 6.9 12.97 4.09 12.97 1.8 10.67 1.8 7.85 1.8 5.02 4.09 2.72 6.9 2.72Z"/></svg>
