<svg xmlns="http://www.w3.org/2000/svg"><linearGradient id="a"><stop offset="0%" stop-color="#A94F97"/><stop offset="25%" stop-color="#49B5D5"/><stop offset="53.052%" stop-color="#A5C725"/><stop offset="75%" stop-color="#FFE91B"/><stop offset="100%" stop-color="#F5A911"/></linearGradient><circle cx="28.5" cy="28.5" r="28.5" fill="#DFDCDC"/><path d="M32.99 27.67l10.02-8.83v17.45l-10.02-8.62zm-18.34-10.1c.37-.35.87-.57 1.42-.57h24.86c.55 0 1.05.22 1.43.57L28.5 29.6 14.65 17.57zm-.66 18.72V18.84l10.02 8.83-10.02 8.62zM28.5 31.7l3.59-3.18 10.26 8.91c-.37.35-.87.57-1.42.57H16.07c-.55 0-1.05-.22-1.43-.57l10.27-8.91 3.59 3.18z" fill="#FFF"/><rect x="14" y="38"  rx="1" fill="url(#a)"/></svg>
