<?xml version="1.0" encoding="utf-8"?>
<!-- Generator: Adobe Illustrator 22.0.1, SVG Export Plug-In . SVG Version: 6.00 Build 0)  -->
<svg version="1.1" id="Layer_1" xmlns="http://www.w3.org/2000/svg" xmlns:xlink="http://www.w3.org/1999/xlink" x="0px" y="0px"
	 viewBox="0 0 23.5 23.5" style="enable-background:new 0 0 23.5 23.5;" xml:space="preserve">
<style type="text/css">
	.st0{fill:#00316D;}
</style>
<path class="st0" d="M11.8,0C5.3,0,0,5.3,0,11.8s5.3,11.8,11.8,11.8s11.8-5.3,11.8-11.8S18.2,0,11.8,0z M11.8,14.5
	c3.2,0,5.9,1.8,7.3,4.4c-1.9,1.9-4.4,3.1-7.3,3.1c-2.9,0-5.4-1.2-7.3-3.1C5.8,16.3,8.6,14.5,11.8,14.5z M15,8.8
	c0,1.8-1.5,3.3-3.3,3.3s-3.3-1.5-3.3-3.3s1.5-3.3,3.3-3.3S15,7,15,8.8z M16.5,8.8c0-2.6-2.1-4.8-4.8-4.8S7,6.1,7,8.8
	c0,2,1.3,3.7,3,4.4c-2.8,0.5-5.2,2.2-6.6,4.5c-1.2-1.7-1.9-3.7-1.9-6c0-5.7,4.6-10.2,10.2-10.2C17.4,1.5,22,6.1,22,11.8
	c0,2.2-0.7,4.3-1.9,6c-1.4-2.3-3.8-4-6.6-4.5C15.2,12.5,16.5,10.8,16.5,8.8z"/>
</svg>
