<svg xmlns="http://www.w3.org/2000/svg" viewBox="0 0 23.5 23.5"><path d="M11.8 0C5.3 0 0 5.3 0 11.8s5.3 11.8 11.8 11.8 11.8-5.3 11.8-11.8S18.2 0 11.8 0zm0 14.5c3.2 0 5.9 1.8 7.3 4.4-1.9 1.9-4.4 3.1-7.3 3.1-2.9 0-5.4-1.2-7.3-3.1 1.3-2.6 4.1-4.4 7.3-4.4zM15 8.8c0 1.8-1.5 3.3-3.3 3.3s-3.3-1.5-3.3-3.3 1.5-3.3 3.3-3.3S15 7 15 8.8zm1.5 0c0-2.6-2.1-4.8-4.8-4.8S7 6.1 7 8.8c0 2 1.3 3.7 3 4.4-2.8.5-5.2 2.2-6.6 4.5-1.2-1.7-1.9-3.7-1.9-6C1.5 6 6.1 1.5 11.7 1.5 17.4 1.5 22 6.1 22 11.8c0 2.2-.7 4.3-1.9 6-1.4-2.3-3.8-4-6.6-4.5 1.7-.8 3-2.5 3-4.5z"/></svg>
